<svg width="24" height="24" viewBox="0 0 24 24" fill="none" xmlns="http://www.w3.org/2000/svg">
<path d="M10.1935 4C9.81942 4 9.51613 4.28198 9.51613 4.62983V5.25966H5.67742C5.30329 5.25966 5 5.54164 5 5.88948C5 6.23733 5.30329 6.51931 5.67742 6.51931H18.3226C18.6967 6.51931 19 6.23733 19 5.88948C19 5.54164 18.6967 5.25966 18.3226 5.25966H14.4839V4.62983C14.4839 4.28198 14.1806 4 13.8065 4H10.1935Z" fill="#00508B"/>
<path d="M10.1935 11.0541C10.5677 11.0541 10.871 11.3361 10.871 11.6839L10.871 17.5623C10.871 17.9101 10.5677 18.1921 10.1935 18.1921C9.81942 18.1921 9.51613 17.9101 9.51613 17.5623L9.51613 11.6839C9.51613 11.3361 9.81942 11.0541 10.1935 11.0541Z" fill="#00508B"/>
<path d="M14.4839 11.6839C14.4839 11.3361 14.1806 11.0541 13.8065 11.0541C13.4323 11.0541 13.129 11.3361 13.129 11.6839V17.5623C13.129 17.9101 13.4323 18.1921 13.8065 18.1921C14.1806 18.1921 14.4839 17.9101 14.4839 17.5623V11.6839Z" fill="#00508B"/>
<path fill-rule="evenodd" clip-rule="evenodd" d="M6.5729 8.75913C6.61102 8.44016 6.901 8.19885 7.24618 8.19885H16.7538C17.099 8.19885 17.389 8.44016 17.4271 8.75913L17.6079 10.2718C17.9356 13.014 17.9356 15.7814 17.6079 18.5235L17.5901 18.6725C17.46 19.7609 16.5527 20.6289 15.3861 20.7807C13.1397 21.0731 10.8603 21.0731 8.61388 20.7807C7.44733 20.6289 6.54 19.7609 6.40992 18.6725L6.39212 18.5235C6.06442 15.7814 6.06442 13.014 6.39212 10.2718L6.5729 8.75913ZM7.8525 9.45851L7.73867 10.411C7.42202 13.0606 7.42202 15.7348 7.73867 18.3844L7.75647 18.5333C7.81816 19.0496 8.24847 19.4612 8.80172 19.5332C10.9236 19.8094 13.0764 19.8094 15.1983 19.5332C15.7515 19.4612 16.1818 19.0496 16.2435 18.5333L16.2613 18.3844C16.578 15.7348 16.578 13.0606 16.2613 10.411L16.1475 9.45851H7.8525Z" fill="#00508B"/>
</svg>
