<svg width="24" height="24" viewBox="0 0 24 24" fill="none" xmlns="http://www.w3.org/2000/svg">
<path fill-rule="evenodd" clip-rule="evenodd" d="M18.4833 19.7901L18.484 19.7884L18.5014 19.7449L21.5002 4.6258V4.57669C21.5002 4.19999 21.361 3.87113 21.0581 3.67387C20.793 3.50121 20.4882 3.48892 20.2745 3.50514C20.0485 3.52229 19.8354 3.57871 19.6879 3.62567C19.612 3.64983 19.5484 3.67311 19.503 3.69071C19.4802 3.69955 19.4617 3.70705 19.4483 3.71263L19.4351 3.71819L2.71526 10.2771L2.71066 10.2788C2.70163 10.2821 2.68969 10.2865 2.67526 10.2921C2.64651 10.3033 2.60737 10.3193 2.56139 10.3402C2.47111 10.3811 2.34637 10.4442 2.21987 10.5309C2.00502 10.678 1.5959 11.0263 1.66499 11.5785C1.72221 12.036 2.03751 12.3265 2.25008 12.4769C2.36403 12.5575 2.47304 12.6156 2.55287 12.6536C2.59332 12.6729 2.62767 12.6876 2.65326 12.6981C2.66609 12.7033 2.67682 12.7075 2.68512 12.7106L2.69574 12.7146L2.70253 12.7171L5.62777 13.7019C5.6179 13.8854 5.6361 14.0726 5.68478 14.2572L7.15006 19.8156C7.3238 20.4747 7.92002 20.9337 8.60159 20.9333C9.21252 20.9328 9.75435 20.5632 9.98454 20.0118L12.2722 17.5657L16.2012 20.578L16.2571 20.6023C16.614 20.7581 16.9475 20.8075 17.2525 20.7658C17.557 20.7242 17.7989 20.5965 17.9807 20.4511C18.1595 20.308 18.2821 20.1465 18.3592 20.0249C18.3984 19.9631 18.4276 19.9088 18.4478 19.868C18.458 19.8475 18.466 19.8301 18.472 19.8166L18.4796 19.7991L18.4822 19.7927L18.4833 19.7901ZM7.13518 13.8748C7.10187 13.7485 7.15416 13.6151 7.26444 13.5451L17.1865 7.2442C17.1865 7.2442 17.77 6.8899 17.7492 7.2442C17.7492 7.2442 17.8533 7.30676 17.5406 7.59849C17.244 7.87557 10.4689 14.4166 9.7834 15.0785C9.74383 15.1167 9.72021 15.1605 9.70627 15.2137L8.60046 19.4332L7.13518 13.8748Z" fill="currentColor"/>
</svg>
