<svg width="40" height="40" viewBox="0 0 40 40" fill="none" xmlns="http://www.w3.org/2000/svg">
<path d="M19.9998 14.5836C17.0083 14.5836 14.5831 17.0087 14.5831 20.0002C14.5831 22.9918 17.0083 25.4169 19.9998 25.4169C22.9914 25.4169 25.4165 22.9918 25.4165 20.0002C25.4165 17.0087 22.9914 14.5836 19.9998 14.5836Z" fill="white"/>
<path fill-rule="evenodd" clip-rule="evenodd" d="M11.2824 5.13602C17.0292 4.49372 22.9704 4.49372 28.7173 5.13602C31.8813 5.48964 34.4333 7.98261 34.8046 11.1577C35.4918 17.0327 35.4918 22.9678 34.8046 28.8428C34.4333 32.0179 31.8813 34.5108 28.7173 34.8645C22.9704 35.5068 17.0293 35.5068 11.2824 34.8645C8.11838 34.5108 5.56639 32.0179 5.19504 28.8428C4.5079 22.9678 4.5079 17.0327 5.19504 11.1577C5.56639 7.98261 8.11838 5.48964 11.2824 5.13602ZM28.3331 10.0002C27.4127 10.0002 26.6665 10.7464 26.6665 11.6669C26.6665 12.5874 27.4127 13.3336 28.3331 13.3336C29.2536 13.3336 29.9998 12.5874 29.9998 11.6669C29.9998 10.7464 29.2536 10.0002 28.3331 10.0002ZM12.0831 20.0002C12.0831 15.628 15.6276 12.0836 19.9998 12.0836C24.3721 12.0836 27.9165 15.628 27.9165 20.0002C27.9165 24.3725 24.3721 27.9169 19.9998 27.9169C15.6276 27.9169 12.0831 24.3725 12.0831 20.0002Z" fill="white"/>
</svg>
