<svg width="82" height="80" viewBox="0 0 82 80" fill="none" xmlns="http://www.w3.org/2000/svg">
<ellipse cx="43.1595" cy="45.7715" rx="12.6152" ry="38.9867" transform="rotate(51.2819 43.1595 45.7715)" fill="#C4C4C4"/>
<path d="M50.3217 46.2943L4.10645 58.5794H52.0767" stroke="white" stroke-width="3"/>
<path d="M69.0423 58.5792C69.0423 61.8101 65.6374 64.4292 61.4372 64.4292C57.2371 64.4292 51.4922 61.8101 51.4922 58.5792C51.4922 55.3483 57.2371 52.7292 61.4372 52.7292C65.6374 52.7292 69.0423 55.3483 69.0423 58.5792Z" fill="white"/>
<path d="M66.3435 42.0832C66.9842 45.25 64.1662 48.4922 60.0495 49.3251C55.9327 50.1579 49.7825 48.7299 49.1419 45.5631C48.5013 42.3964 53.6128 38.6901 57.7295 37.8573C61.8463 37.0245 65.7029 38.9165 66.3435 42.0832Z" fill="white"/>
<path d="M4.09503 58.85C4.09503 60.0587 3.57142 61.145 2.73868 61.8946C1.50723 63.003 1.55078e-06 61.6019 1.55078e-06 59.9451V57.755C1.55078e-06 56.0982 1.50723 54.6971 2.73868 55.8055C3.57142 56.5551 4.09503 57.6414 4.09503 58.85Z" fill="white"/>
<ellipse cx="15.2102" cy="35.6852" rx="10.5301" ry="35.6852" fill="#EAEAE9"/>
<ellipse cx="34.2734" cy="38.8248" rx="12.1842" ry="38.4765" transform="rotate(33.4233 34.2734 38.8248)" fill="white"/>
</svg>
