<svg width="170" height="170" viewBox="0 0 170 170" fill="none" xmlns="http://www.w3.org/2000/svg">
<circle cx="85" cy="85" r="85" fill="#C7DCEB"/>
<g style="mix-blend-mode:screen" opacity="0.5">
<g style="mix-blend-mode:screen" opacity="0.8">
<path d="M30.9592 61.4625C19.1202 88.7891 27.6511 129.088 65.5244 137.656C103.398 146.224 137.192 131.518 140.968 117.818C146.228 98.7348 122.635 94.3736 114.37 77.2426C106.105 60.1116 101.531 33.4178 80.56 30.3969C61.7749 27.6897 40.7347 38.9172 30.9699 61.4625H30.9592Z" fill="#FFFDFA"/>
</g>
<g style="mix-blend-mode:screen" opacity="0.8">
<path d="M110.157 37.7205C104.036 41.7786 111.662 63.4197 118.571 73.3388C125.485 83.2579 139.244 94.2141 142.467 78.4499C146.823 57.1119 124.884 27.9557 110.157 37.7259V37.7205Z" fill="#FFFDFA"/>
</g>
</g>
<path d="M85.2233 18C79.6465 18 70.5978 24.8679 68.5634 62.4191C66.5291 99.9702 73.831 146.841 80.9973 154.008C81.4204 154.431 84.2468 154.523 85.2233 154.523C86.1997 154.523 89.0261 154.431 89.4493 154.008C96.6156 146.836 103.923 99.9702 101.883 62.4191C99.8488 24.8679 90.8001 18 85.2233 18Z" fill="#FFFDFA"/>
<path d="M71.8512 123.096C74.2924 138.709 77.6613 150.671 80.9976 154.008C81.4207 154.431 84.2471 154.523 85.2235 154.523C86.2 154.523 89.0264 154.431 89.4495 154.008C92.8455 150.612 96.2741 138.297 98.7207 122.283C91.332 123.894 78.8547 123.617 71.8512 123.096Z" fill="#FF8056"/>
<path d="M99.5727 116.321C99.6595 115.67 99.7409 115.008 99.8223 114.352C92.0267 116.278 77.5368 115.822 70.7394 115.214C70.8208 115.854 70.9021 116.489 70.9889 117.124C77.7592 117.715 91.7663 118.149 99.5727 116.326L99.5727 116.321Z" fill="#FF8056"/>
<path d="M71.2554 119.077C71.3476 119.717 71.4344 120.352 71.532 120.986C78.503 121.534 91.5174 121.86 99.0417 120.167C99.1339 119.511 99.2316 118.854 99.3184 118.193C91.7886 119.994 78.286 119.646 71.2554 119.082L71.2554 119.077Z" fill="#FF8056"/>
<path d="M85.2233 152.901C83.9918 152.901 82.5271 152.792 81.9629 152.668C78.8653 149.207 75.3391 136.241 72.9359 119.386C70.2506 100.54 69.247 79.8113 70.1855 62.5168C71.0752 46.1336 73.3753 34.1391 77.0209 26.8644C80.0154 20.8861 83.1347 19.633 85.2233 19.633C87.3119 19.633 90.4312 20.8861 93.4258 26.8644C97.0713 34.1391 99.3714 46.1336 100.256 62.5168C101.194 79.8113 100.191 100.54 97.5053 119.386C95.102 136.247 91.5813 149.207 88.4782 152.668C87.914 152.792 86.4439 152.901 85.2179 152.901L85.2233 152.901Z" fill="#FF8056"/>
<path d="M85.2241 148.176C83.7594 148.176 82.0668 147.888 81.0524 146.011C69.0688 123.753 70.7939 71.7444 71.8029 67.985C72.8119 64.2255 82.6418 63.504 85.2187 63.504C87.7955 63.504 97.6254 64.2255 98.6344 67.985C99.6435 71.7444 101.374 123.753 89.385 146.011C88.376 147.888 86.678 148.176 85.2132 148.176L85.2241 148.176Z" fill="#FFFDFA"/>
<path d="M85.2243 146.554C83.7433 146.554 83.0001 146.196 82.4847 145.241C76.2949 133.746 74.0056 114.276 73.181 99.9702C72.2317 83.5924 72.964 69.9488 73.3763 68.4136C73.908 66.4443 80.8572 65.1369 85.2243 65.1369C89.5913 65.1369 96.5406 66.4443 97.0723 68.4136C97.4846 69.9542 98.2169 83.5979 97.2676 99.9702C96.4376 114.276 94.1537 133.746 87.9639 145.241C87.4485 146.196 86.7053 146.554 85.2243 146.554Z" fill="#80B5DC"/>
<path d="M85.2233 130.502C85.1094 130.507 84.9901 130.464 84.887 130.344C80.6773 125.267 77.0155 119.706 74.3627 113.701C75.7026 125.109 78.1276 137.147 82.4838 145.241C82.9991 146.196 83.7423 146.554 85.2233 146.554C86.7043 146.554 87.4475 146.196 87.9629 145.241C92.3191 137.147 94.744 125.109 96.084 113.701C93.4312 119.706 89.7748 125.267 85.5651 130.344C85.462 130.469 85.3427 130.512 85.2288 130.502L85.2233 130.502Z" fill="#3988C2"/>
<path d="M85.2231 130.502C85.337 130.507 85.4564 130.464 85.5594 130.344C91.1417 123.617 95.7528 116.044 98.3296 107.701C98.3622 107.348 98.3893 107.001 98.4219 106.648C95.5684 114.992 90.8216 122.451 85.2231 129.265C79.6246 122.451 74.8724 114.992 72.0243 106.648C72.0569 107.001 72.084 107.348 72.1166 107.701C74.6934 116.044 79.31 123.617 84.8922 130.344C84.9953 130.469 85.1146 130.512 85.2285 130.502L85.2231 130.502Z" fill="#FFFDFA"/>
<path d="M97.6854 54.7972C97.756 54.7429 97.7397 54.6507 97.6854 54.6182C97.6692 54.5802 97.6421 54.5476 97.5987 54.5314C95.7271 53.8695 93.5951 53.9129 91.6313 53.8424C89.3203 53.7556 87.0092 53.7881 84.6982 53.8098C82.5174 53.8315 80.3366 53.8532 78.1504 53.8532C76.3059 53.8532 74.2662 53.6525 72.4651 54.1353C72.4542 54.1299 72.4434 54.1245 72.4271 54.1191C72.3078 54.054 72.2101 54.2221 72.3186 54.2981C73.3711 55.0196 74.5971 55.5187 75.7472 56.0666C77.7327 57.016 79.729 57.9328 81.7525 58.7953C82.7236 59.2076 83.7109 59.5874 84.7037 59.9563C84.5029 60.0322 84.3076 60.1027 84.1069 60.1787C81.8556 61.0141 79.6043 61.8278 77.38 62.7284C75.7038 63.4065 73.6531 63.9815 72.3783 65.3215C72.3457 65.354 72.3783 65.4191 72.4271 65.4028C74.3096 64.6651 76.1161 63.6289 77.9822 62.826C80.2878 61.8387 82.6314 60.9165 84.9966 60.0647C86.2552 60.5259 87.5192 60.9816 88.7615 61.4752C90.4541 62.1425 92.1358 62.8531 93.8121 63.5692C95.1086 64.1226 96.3129 64.8929 97.6203 65.4029C97.6692 65.4191 97.6963 65.354 97.6692 65.3215C96.8012 64.4101 95.5643 63.9219 94.4251 63.439C93.058 62.8586 91.6638 62.3215 90.275 61.7844C88.6259 61.1497 86.9604 60.5693 85.3004 59.9563C87.53 59.1534 89.7651 58.3613 91.973 57.5042C93.9368 56.7447 95.9603 56.0286 97.6854 54.8026L97.6854 54.7972ZM82.1485 58.714C78.9533 57.3523 75.7689 55.8659 72.6929 54.2493C76.5175 54.2167 80.342 54.1679 84.1666 54.1245C86.2986 54.0974 88.4306 54.0757 90.5626 54.1082C92.7488 54.1462 95.228 54.0594 97.3328 54.7483C93.4106 56.8586 89.1792 58.3125 85.002 59.8423C84.0418 59.4843 83.087 59.1154 82.1431 58.714L82.1485 58.714Z" fill="black"/>
<path d="M54.2311 115.299L54.2311 137.514C54.2311 138.127 55.8857 138.637 55.8368 139.234C55.7826 139.831 54.4915 140.14 53.6398 140.14C52.788 140.14 51.4915 139.831 51.4427 139.234C51.3884 138.637 53.0484 138.127 53.0484 137.514L53.0484 115.299L54.2365 115.299L54.2311 115.299Z" fill="#FFFDFA"/>
<path d="M53.6389 116.151L54.4201 116.151L54.4201 65.0703C54.4201 62.7647 57.3658 54.9583 58.006 51.4972C58.6461 48.0415 58.581 44 53.6444 44C48.7077 44 48.6426 48.0415 49.2827 51.4972C49.9229 54.9529 52.8686 62.7647 52.8686 65.0703L52.8686 116.151L53.6498 116.151L53.6389 116.151Z" fill="#3988C2"/>
<path d="M53.5134 59.3091C53.7738 54.5243 54.0722 49.5877 53.6274 44.7975C53.6111 44.6293 53.3832 44.6293 53.367 44.7975C53.2151 46.4901 53.3236 48.2097 53.3344 49.9077C53.3561 53.0433 53.4158 56.1735 53.4863 59.3091C53.4863 59.3254 53.5134 59.3254 53.5134 59.3091Z" fill="#A9CFEB"/>
</svg>
