<svg width="160" height="24" viewBox="0 0 160 24" fill="none" xmlns="http://www.w3.org/2000/svg">
<path d="M12.865 2.99628C12.4796 2.33213 11.5205 2.33213 11.1351 2.99628L8.42107 7.67359C8.2307 8.00168 7.90165 8.22557 7.52659 8.28222L2.44027 9.05044C1.58599 9.17947 1.28633 10.2581 1.95164 10.8093L5.74073 13.9485C6.09147 14.2391 6.25639 14.6975 6.17119 15.1449L5.18002 20.35C5.02334 21.1729 5.88712 21.8122 6.62827 21.4219L11.4177 18.9001C11.7822 18.7082 12.2179 18.7082 12.5824 18.9001L17.3718 21.4219C18.113 21.8122 18.9768 21.1729 18.8201 20.35L17.8289 15.1449C17.7437 14.6975 17.9087 14.2391 18.2594 13.9485L22.0485 10.8093C22.7138 10.2581 22.4141 9.17947 21.5598 9.05044L16.4735 8.28222C16.0985 8.22557 15.7694 8.00168 15.579 7.67359L12.865 2.99628Z" fill="#DF6435"/>
<path d="M46.865 2.99628C46.4796 2.33213 45.5205 2.33213 45.1351 2.99628L42.4211 7.67359C42.2307 8.00168 41.9016 8.22557 41.5266 8.28222L36.4403 9.05044C35.586 9.17947 35.2863 10.2581 35.9516 10.8093L39.7407 13.9485C40.0915 14.2391 40.2564 14.6975 40.1712 15.1449L39.18 20.35C39.0233 21.1729 39.8871 21.8122 40.6283 21.4219L45.4177 18.9001C45.7822 18.7082 46.2179 18.7082 46.5824 18.9001L51.3718 21.4219C52.113 21.8122 52.9768 21.1729 52.8201 20.35L51.8289 15.1449C51.7437 14.6975 51.9087 14.2391 52.2594 13.9485L56.0485 10.8093C56.7138 10.2581 56.4141 9.17947 55.5598 9.05044L50.4735 8.28222C50.0985 8.22557 49.7694 8.00168 49.579 7.67359L46.865 2.99628Z" fill="#DF6435"/>
<path d="M114.865 2.99628C114.48 2.33213 113.521 2.33213 113.135 2.99628L110.421 7.67359C110.231 8.00168 109.902 8.22557 109.527 8.28222L104.44 9.05044C103.586 9.17947 103.286 10.2581 103.952 10.8093L107.741 13.9485C108.091 14.2391 108.256 14.6975 108.171 15.1449L107.18 20.35C107.023 21.1729 107.887 21.8122 108.628 21.4219L113.418 18.9001C113.782 18.7082 114.218 18.7082 114.582 18.9001L119.372 21.4219C120.113 21.8122 120.977 21.1729 120.82 20.35L119.829 15.1449C119.744 14.6975 119.909 14.2391 120.259 13.9485L124.048 10.8093C124.714 10.2581 124.414 9.17947 123.56 9.05044L118.474 8.28222C118.098 8.22557 117.769 8.00168 117.579 7.67359L114.865 2.99628Z" fill="#DF6435"/>
<path d="M80.865 2.99628C80.4796 2.33213 79.5205 2.33213 79.1351 2.99628L76.4211 7.67359C76.2307 8.00168 75.9016 8.22557 75.5266 8.28222L70.4403 9.05044C69.586 9.17947 69.2863 10.2581 69.9516 10.8093L73.7407 13.9485C74.0915 14.2391 74.2564 14.6975 74.1712 15.1449L73.18 20.35C73.0233 21.1729 73.8871 21.8122 74.6283 21.4219L79.4177 18.9001C79.7822 18.7082 80.2179 18.7082 80.5824 18.9001L85.3718 21.4219C86.113 21.8122 86.9768 21.1729 86.8201 20.35L85.8289 15.1449C85.7437 14.6975 85.9087 14.2391 86.2594 13.9485L90.0485 10.8093C90.7138 10.2581 90.4141 9.17947 89.5598 9.05044L84.4735 8.28222C84.0985 8.22557 83.7694 8.00168 83.579 7.67359L80.865 2.99628Z" fill="#DF6435"/>
<path d="M148.865 2.99628C148.48 2.33213 147.521 2.33213 147.135 2.99628L144.421 7.67359C144.231 8.00168 143.902 8.22557 143.527 8.28222L138.44 9.05044C137.586 9.17947 137.286 10.2581 137.952 10.8093L141.741 13.9485C142.091 14.2391 142.256 14.6975 142.171 15.1449L141.18 20.35C141.023 21.1729 141.887 21.8122 142.628 21.4219L147.418 18.9001C147.782 18.7082 148.218 18.7082 148.582 18.9001L153.372 21.4219C154.113 21.8122 154.977 21.1729 154.82 20.35L153.829 15.1449C153.744 14.6975 153.909 14.2391 154.259 13.9485L158.048 10.8093C158.714 10.2581 158.414 9.17947 157.56 9.05044L152.474 8.28222C152.098 8.22557 151.769 8.00168 151.579 7.67359L148.865 2.99628Z" fill="#E9E9E9"/>
</svg>
