<svg width="172" height="150" viewBox="0 0 172 150" fill="none" xmlns="http://www.w3.org/2000/svg">
<g clip-path="url(#clip0_629_2038)">
<path d="M81.1648 135.71C125.991 135.71 162.33 106.621 162.33 70.7374C162.33 34.8542 125.991 5.76514 81.1648 5.76514C36.3387 5.76514 0 34.8542 0 70.7374C0 106.621 36.3387 135.71 81.1648 135.71Z" fill="#DCF2F4"/>
<path d="M171.107 124.255C171.107 138.47 133.428 150 86.9461 150C40.464 150 2.78516 138.47 2.78516 124.255C2.78516 110.04 42.5259 84.8089 86.9461 98.5019C139.707 114.779 171.107 110.032 171.107 124.255Z" fill="#26A9B3"/>
<path d="M158.003 106.523C158.003 112.279 149.175 116.942 138.293 116.942C127.411 116.942 118.582 112.279 118.582 106.523C118.582 100.766 127.402 96.0952 138.293 96.0952C149.183 96.0952 158.003 100.766 158.003 106.523Z" fill="#26A9B3"/>
<path d="M111.428 100.8C114.872 100.8 117.664 98.8629 117.664 96.4738C117.664 94.0847 114.872 92.1479 111.428 92.1479C107.984 92.1479 105.191 94.0847 105.191 96.4738C105.191 98.8629 107.984 100.8 111.428 100.8Z" fill="#26A9B3"/>
<path d="M9.39896 125.863C15.4417 124.853 21.4424 123.885 27.5777 123.893C34.0918 123.893 40.1177 125.526 46.0931 127.874C51.774 130.096 57.337 132.596 63.1105 134.607C69.0666 136.554 75.1639 138.04 81.3481 139.051C93.3946 141.295 105.736 141.469 117.84 139.564C129.16 137.687 138.224 132.68 147.145 125.636C147.633 125.24 146.994 124.44 146.472 124.794C141.969 127.613 137.542 130.601 132.779 132.966C126.888 135.903 120.744 136.45 114.263 136.879C101.807 137.793 89.2866 137.228 76.9633 135.196C65.0125 133.143 54.1389 128.463 42.6846 124.735C31.8615 121.209 20.079 122.791 9.27272 125.518C9.02024 125.577 9.12965 125.939 9.37371 125.896L9.39896 125.863Z" fill="#44BFC6"/>
<path d="M142.755 115.595C131.217 120.847 117.238 118.271 105.127 116.723C91.215 114.947 77.4294 117.825 64.3256 122.37C64.2384 122.397 64.1653 122.458 64.1215 122.538C64.0776 122.618 64.0665 122.712 64.0905 122.8C64.1144 122.888 64.1715 122.964 64.2499 123.01C64.3282 123.057 64.4217 123.072 64.5107 123.052C71.5129 121.369 78.3888 118.928 85.6351 118.473C92.8814 118.019 100.086 120.838 107.147 122.109C119.687 124.382 132.471 123.986 143.092 116.176C143.162 116.128 143.211 116.055 143.229 115.972C143.248 115.89 143.234 115.803 143.192 115.73C143.149 115.657 143.081 115.602 143 115.577C142.919 115.552 142.832 115.558 142.755 115.595Z" fill="#44BFC6"/>
<path d="M22.772 111.589C32.2317 112.128 41.2874 109.065 50.259 106.405C60.6804 103.286 71.7558 103.07 82.2906 105.782C82.3818 105.796 82.4748 105.775 82.5521 105.725C82.6294 105.675 82.6858 105.598 82.7105 105.509C82.7353 105.421 82.7269 105.326 82.6867 105.243C82.6466 105.16 82.5776 105.094 82.4926 105.058C77.6702 103.055 72.6205 100.918 67.4025 100.253C62.1846 99.588 57.1013 100.522 52.0348 102.155C42.2132 105.319 33.3174 110.571 22.772 111.084C22.7051 111.084 22.6408 111.111 22.5935 111.158C22.5461 111.206 22.5195 111.27 22.5195 111.337C22.5195 111.404 22.5461 111.468 22.5935 111.515C22.6408 111.563 22.7051 111.589 22.772 111.589Z" fill="#44BFC6"/>
<path d="M58.7517 45.6068C59.1662 45.12 59.3983 44.504 59.4081 43.8647C59.4081 41.7102 56.6224 39.9512 53.1886 39.9512C51.6794 39.9256 50.1911 40.3064 48.8796 41.0537C46.6922 40.0302 44.3005 39.5179 41.8858 39.5557C37.4758 39.5557 33.6885 41.0958 32.0558 43.284C30.9168 43.1079 29.7662 43.0179 28.6136 43.0147C22.1417 43.0147 16.8984 45.5395 16.8984 48.7376C16.8984 51.9357 22.108 54.4521 28.6136 54.4521C44.6547 54.4521 61.8488 54.4521 61.8488 48.2158C61.8151 47.1891 60.6369 46.2885 58.7517 45.6068Z" fill="white"/>
<path d="M136.097 50.5471C135.205 50.5471 134.338 50.5471 133.497 50.6397C133.99 50.016 134.262 49.2464 134.271 48.4515C134.271 45.7247 130.964 43.5112 126.882 43.5112C123.557 43.5112 120.755 44.9756 119.812 46.9871C119.028 46.8576 118.234 46.7928 117.439 46.7935C112.28 46.7935 108.105 49.2763 108.105 52.3313C108.105 55.3863 112.036 58.7949 117.178 58.9968C120.94 59.1315 130.24 59.7206 136.097 59.7206C143.133 59.7206 148.839 57.6671 148.839 55.1339C148.839 52.6006 143.133 50.5471 136.097 50.5471Z" fill="white"/>
<path d="M13.7344 131.948C13.7344 135.314 45.8838 138.049 85.5489 138.091C125.214 138.134 157.38 135.432 157.38 132.074C157.38 128.716 125.231 125.972 85.5657 125.93C45.9007 125.888 13.7344 128.59 13.7344 131.948Z" fill="#FEB71F"/>
<path d="M36.7797 134.489C62.1879 135.726 87.8654 136.173 113.366 135.735C128.12 135.482 143.058 136.055 157.382 132.2C156.6 135.499 124.753 138.091 85.5762 138.091C45.9617 138.049 13.8459 135.306 13.7617 131.956C21.3697 133.31 29.0594 134.156 36.7797 134.489Z" fill="#F29316"/>
<g opacity="0.4">
<path d="M153.449 131.417C136.002 132.015 118.48 131.485 101.025 131.367C83.0819 131.241 65.1472 131.123 47.2041 131.241C38.9058 131.291 26.5594 130.618 18.2611 130.904C17.2175 130.904 52.2032 129.625 67.125 129.717C85.674 129.846 104.226 130.102 122.781 130.483C132.998 130.702 143.24 130.752 153.449 131.325C153.46 131.325 153.471 131.329 153.479 131.337C153.486 131.345 153.491 131.356 153.491 131.367C153.491 131.378 153.486 131.389 153.479 131.396C153.471 131.404 153.46 131.409 153.449 131.409V131.417Z" fill="#FEFFFF"/>
</g>
<g style="mix-blend-mode:multiply" opacity="0.5">
<path d="M94.9427 132.343C94.9427 133.42 88.6307 134.977 80.1472 134.338C71.6638 133.698 69.9638 133.176 69.9806 132.091C69.9974 131.005 78.2536 129.019 86.7454 129.658C95.2373 130.298 94.9595 131.291 94.9427 132.343Z" fill="#F29316"/>
</g>
<path d="M74.5177 67.2533C75.3593 71.4614 73.9454 85.4153 73.8528 94.5383C73.8528 94.5383 76.1084 102.576 76.3777 108.071C76.6217 112.557 74.888 128.102 74.888 128.102L76.6217 132.84C76.849 133.471 71.0335 133.555 71.0335 132.84C71.4424 131.055 71.9481 129.293 72.5484 127.563C72.5484 127.563 69.2829 112.17 69.0136 108.055C68.7443 103.939 68.6601 99.3776 68.6601 99.3776C68.6601 99.3776 64.7214 88.1 63.7367 79.1789C62.752 70.2579 65.5714 63.0537 67.9448 60.2007C70.3181 57.3476 74.0633 65.0062 74.5177 67.2533Z" fill="#F5B182"/>
<path d="M72.379 98.6621C72.1269 99.0618 71.9819 99.5198 71.9582 99.9918C71.8993 100.337 71.428 100.211 71.3943 99.9161C71.3755 99.6323 71.429 99.3483 71.5497 99.0908C71.6703 98.8332 71.8543 98.6105 72.0844 98.4433C72.2359 98.317 72.5136 98.4433 72.379 98.6621Z" fill="#E28B5A"/>
<path opacity="0.5" d="M70.4073 65.0817C70.8798 64.0781 71.5266 63.1662 72.3178 62.3886C70.946 60.234 69.2122 58.6013 67.9162 60.1751C65.5681 63.0282 62.7487 70.2071 63.7081 79.1534C64.0126 81.7207 64.4593 84.2691 65.0463 86.7868C65.1196 84.0621 65.4208 81.3482 65.9468 78.6737C66.8 73.9591 68.301 69.3851 70.4073 65.0817Z" fill="#E28B5A"/>
<path d="M84.1624 61.833C84.1624 61.833 105.615 66.0915 107.584 75.7448C107.584 75.7448 101.853 84.2451 78.591 94.4454C78.591 94.4454 76.1251 103.4 75.7463 103.215C75.3676 103.03 74.3745 92.2067 74.5176 91.9458C74.6607 91.6849 76.6216 92.476 76.6216 92.476C78.7791 90.8077 80.8127 88.985 82.7064 87.0224C86.5526 83.1762 92.6374 77.3523 95.0528 76.5528C95.0528 76.5528 81.3346 75.3829 74.8542 70.8214C68.3738 66.2599 84.1624 61.833 84.1624 61.833Z" fill="#F5B182"/>
<path d="M104.013 76.0058C103.763 75.4804 103.373 75.0346 102.885 74.7181C102.641 74.5245 102.885 74.1206 103.188 74.2047C103.537 74.3464 103.843 74.5758 104.078 74.8706C104.312 75.1655 104.467 75.5159 104.526 75.888C104.534 75.9521 104.519 76.017 104.483 76.0709C104.447 76.1248 104.393 76.164 104.331 76.1813C104.269 76.1987 104.202 76.1931 104.144 76.1655C104.085 76.1379 104.039 76.0901 104.013 76.031V76.0058Z" fill="#E28B5A"/>
<path opacity="0.5" d="M74.7676 70.7965C81.29 75.358 94.9662 76.5278 94.9662 76.5278C92.6938 77.2853 87.1561 82.4949 83.3099 86.3073C88.1316 82.56 93.4154 79.4486 99.0312 77.0496C94.8904 76.208 90.3121 74.5837 87.114 71.6718C85.3155 70.0549 84.1767 67.8314 83.9159 65.427C83.788 64.2228 83.9706 63.006 84.4461 61.8923L84.0505 61.8081C84.0505 61.8081 77.0483 63.8195 74.3047 66.4875C74.3923 66.7319 74.4626 66.9822 74.5151 67.2365C74.6963 68.4143 74.7807 69.6049 74.7676 70.7965Z" fill="#E28B5A"/>
<path d="M74.9028 20.6701C74.9028 20.6701 75.1721 16.9334 72.479 16.9755C69.7858 17.0175 69.4071 20.6112 71.6374 21.8568L74.9028 20.6701Z" fill="#D98F00"/>
<path d="M71.0834 17.5143C70.7964 17.8724 70.6178 18.3051 70.5686 18.7614C70.5194 19.2177 70.6016 19.6785 70.8057 20.0896C70.8477 20.1738 70.974 20.0896 70.9319 20.0139C70.7409 19.6258 70.6655 19.1909 70.7148 18.7612C70.764 18.3314 70.9358 17.9249 71.2096 17.59C71.2685 17.5143 71.1423 17.4385 71.0834 17.5143Z" fill="#F79E00"/>
<path d="M71.6372 17.3459C71.6372 17.2533 71.5193 17.2112 71.4941 17.3038C71.3554 18.1217 71.473 18.9624 71.8307 19.7108C71.8728 19.795 71.999 19.7108 71.957 19.6351C71.6176 18.923 71.506 18.1237 71.6372 17.3459Z" fill="#F79E00"/>
<path d="M71.7639 17.3793C72.2594 17.94 72.5964 18.6227 72.7402 19.3571C72.7402 19.4496 72.8917 19.4076 72.8749 19.315C72.7264 18.5605 72.3775 17.8599 71.8649 17.2867C71.806 17.2025 71.705 17.3035 71.7639 17.3793Z" fill="#F79E00"/>
<path d="M72.1422 17.127C72.058 17.127 72.0159 17.2364 72.1422 17.27C72.5598 17.4427 72.9332 17.7071 73.2347 18.0436C73.5363 18.3801 73.7583 18.7802 73.8843 19.2141C73.8843 19.2983 74.0526 19.2646 74.019 19.2141C73.8907 18.7439 73.6542 18.3102 73.3283 17.9478C73.0024 17.5853 72.5962 17.3042 72.1422 17.127Z" fill="#F79E00"/>
<path d="M72.4532 17.0005C72.4383 17.0057 72.4255 17.0153 72.4164 17.0281C72.4072 17.041 72.4023 17.0563 72.4023 17.072C72.4023 17.0878 72.4072 17.1031 72.4164 17.1159C72.4255 17.1287 72.4383 17.1384 72.4532 17.1436C72.7163 17.1459 72.9759 17.2043 73.2146 17.3148C73.4534 17.4253 73.6659 17.5854 73.8379 17.7845C74.0099 17.9836 74.1375 18.2171 74.2122 18.4694C74.2869 18.7216 74.307 18.9869 74.2711 19.2476C74.2711 19.3402 74.4057 19.3402 74.4141 19.2476C74.4512 18.9678 74.4283 18.6834 74.3468 18.4132C74.2653 18.1431 74.1272 17.8933 73.9417 17.6807C73.7561 17.4681 73.5274 17.2975 73.2707 17.1802C73.0141 17.0629 72.7354 17.0016 72.4532 17.0005Z" fill="#F79E00"/>
<path d="M70.2485 20.5017C71.5812 19.5939 73.2057 19.2186 74.8016 19.4497C75.1634 19.5254 75.3234 18.9615 74.953 18.8858C73.2051 18.6132 71.4187 19.0132 69.9539 20.0051C69.888 20.0442 69.8404 20.1078 69.8215 20.182C69.8025 20.2562 69.8138 20.3348 69.8529 20.4007C69.892 20.4665 69.9556 20.5142 70.0298 20.5331C70.1039 20.552 70.1826 20.5407 70.2485 20.5017Z" fill="#2191C3"/>
<path d="M76.7041 20.0725C76.7041 20.0725 79.5066 19.071 80.8532 22.7656C82.1998 26.4603 79.8517 31.5436 76.1234 31.7961L74.356 32.6377C74.356 32.6377 69.7776 31.5604 68.5657 28.4297C68.0747 27.326 67.8509 26.1221 67.9123 24.9158C67.9737 23.7094 68.3187 22.5345 68.9192 21.4864C70.1984 19.5423 74.3897 18.3893 76.7041 20.0725Z" fill="#D98F00"/>
<path d="M75.9207 20.6786C75.4278 22.0172 74.6613 23.2384 73.6701 24.2643C72.679 25.2902 71.485 26.0983 70.1641 26.6372C70.0716 26.6372 70.1136 26.8139 70.1641 26.7802C71.5152 26.2382 72.7376 25.4189 73.7523 24.3752C74.7671 23.3314 75.5517 22.0864 76.0554 20.7207C76.0891 20.6281 75.946 20.5944 75.9207 20.6786Z" fill="#F79E00"/>
<path d="M80.123 24.2219C79.3707 23.9364 78.6921 23.4857 78.1371 22.9031C77.5822 22.3205 77.165 21.6207 76.9164 20.8555C76.9164 20.7713 76.7481 20.805 76.7818 20.8555C77.025 21.6609 77.4496 22.3998 78.023 23.0155C78.5963 23.6312 79.3032 24.1072 80.0893 24.4071C80.1735 24.4071 80.2156 24.2556 80.123 24.2219Z" fill="#F79E00"/>
<path d="M80.2376 23.9357C80.3217 23.9357 80.3638 23.8263 80.2376 23.7926C80.1019 23.7395 79.9697 23.6777 79.842 23.6075C79.8467 23.5968 79.8491 23.5854 79.8491 23.5738C79.8491 23.5622 79.8467 23.5508 79.842 23.5401C79.6817 22.5899 79.1713 21.7341 78.4113 21.1416C78.3355 21.0826 78.2346 21.1836 78.3103 21.2425C79.0635 21.8083 79.5747 22.6382 79.741 23.5654C78.6422 22.8248 77.8103 21.7509 77.3677 20.5019C77.3677 20.4178 77.191 20.4598 77.233 20.544C77.4775 21.2836 77.8699 21.9658 78.3865 22.5489C78.903 23.132 79.5328 23.6038 80.2376 23.9357Z" fill="#F79E00"/>
<path d="M77.8413 20.3417C77.8258 20.3393 77.8099 20.3418 77.7958 20.3488C77.7818 20.3558 77.7702 20.367 77.7628 20.3809C77.7554 20.3948 77.7525 20.4106 77.7545 20.4262C77.7565 20.4418 77.7634 20.4564 77.774 20.468C78.6432 20.7967 79.3892 21.3867 79.9092 22.1569C80.4292 22.9271 80.6976 23.8395 80.6776 24.7686C80.6602 25.7329 80.4459 26.6834 80.0479 27.5619C79.6499 28.4404 79.0766 29.2282 78.3631 29.8772C78.3565 29.8838 78.3513 29.8917 78.3477 29.9003C78.3441 29.909 78.3422 29.9183 78.3422 29.9277C78.3422 29.937 78.3441 29.9463 78.3477 29.955C78.3513 29.9637 78.3565 29.9715 78.3631 29.9782C78.3698 29.9848 78.3777 29.99 78.3863 29.9936C78.395 29.9972 78.4043 29.9991 78.4136 29.9991C78.423 29.9991 78.4323 29.9972 78.441 29.9936C78.4496 29.99 78.4575 29.9848 78.4641 29.9782C79.2344 29.2533 79.8409 28.3722 80.243 27.3939C80.645 26.4156 80.8334 25.3627 80.7954 24.3057C80.7954 22.3363 79.5246 21.1497 77.8413 20.3417Z" fill="#F79E00"/>
<path d="M70.2408 25.5852C70.2408 25.5852 69.9967 25.7198 69.8621 25.7703C69.7274 25.8208 69.8621 25.9386 69.9378 25.8966C72.2714 24.7589 74.1496 22.8629 75.2652 20.5187C75.2652 20.4345 75.181 20.3588 75.1389 20.4429C74.1102 22.5637 72.4644 24.3239 70.4175 25.4926C71.1966 23.5768 72.545 21.9464 74.2805 20.8217C74.3563 20.7712 74.2805 20.6449 74.2048 20.6954C72.401 21.8667 71.0136 23.5781 70.2408 25.5852Z" fill="#F79E00"/>
<path d="M69.8554 28.6151C69.8419 28.6241 69.8316 28.6372 69.8262 28.6525C69.8207 28.6678 69.8203 28.6845 69.825 28.7C69.8297 28.7156 69.8393 28.7292 69.8523 28.7389C69.8654 28.7486 69.8812 28.7538 69.8975 28.7538C69.9137 28.7538 69.9295 28.7486 69.9426 28.7389C69.9556 28.7292 69.9652 28.7156 69.97 28.7C69.9747 28.6845 69.9743 28.6678 69.9688 28.6525C69.9633 28.6372 69.9531 28.6241 69.9396 28.6151C69.8069 28.3987 69.6888 28.1738 69.5861 27.9418C69.6024 27.9397 69.6175 27.9317 69.6283 27.9193C69.6392 27.9069 69.6451 27.8909 69.645 27.8745C69.5521 26.3376 69.8695 24.8037 70.5646 23.4298C71.2596 22.056 72.3074 20.8916 73.6005 20.0559C73.6763 20.0054 73.6006 19.8792 73.5332 19.9297C72.2315 20.7637 71.1732 21.9268 70.4653 23.3012C69.7575 24.6756 69.4251 26.2126 69.5019 27.7566C69.0627 26.5822 68.9504 25.3106 69.1772 24.0774C69.404 22.8442 69.9613 21.6958 70.7896 20.7544C70.8485 20.6787 70.7896 20.5777 70.6886 20.645C69.7409 21.7234 69.1517 23.0695 69.0024 24.4973C68.8531 25.9251 69.1512 27.3641 69.8554 28.6151Z" fill="#F79E00"/>
<path d="M74.0624 31.1399C72.1352 30.879 70.2499 30.534 69.1306 28.7666C68.0113 26.9992 68.6425 24.2724 69.0296 22.2946C69.0296 22.2021 68.9118 22.16 68.8865 22.2525C68.4657 24.4407 67.9692 26.7467 69.0044 28.8423C69.9301 30.6939 72.2446 31.0389 74.054 31.283C74.1129 31.3251 74.1129 31.182 74.0624 31.1399Z" fill="#F79E00"/>
<path d="M77.3682 31.409C77.3682 31.409 77.5197 35.2299 79.3544 36.1389C81.1891 37.0478 87.8462 22.5805 87.4423 20.1483C87.0383 17.716 77.343 8.98855 76.8296 8.48358C76.8296 8.48358 75.6597 8.13853 75.6429 7.37266C75.6261 6.6068 76.1479 4.49436 75.9375 3.45918C75.7271 2.424 75.4662 0.58929 75.8701 0.000163971C76.0721 -0.277567 76.4172 1.96953 76.7117 2.87005C77.0063 3.77057 77.9489 7.69247 77.9489 7.69247C77.9489 7.69247 91.3726 16.0497 91.8102 17.7918C92.2479 19.5339 91.482 27.7733 89.0413 33.3363C86.6007 38.8993 82.8892 43.1495 82.6956 43.8059C82.502 44.4624 81.1218 52.8196 81.3743 54.4186C81.6267 56.0177 83.8991 61.2861 83.958 61.8332H67.1258C67.1258 61.2861 69.9031 56.4048 70.1556 54.8058C70.4081 53.2067 68.6155 44.4624 68.4219 43.8059C68.2283 43.1495 64.5084 38.8993 62.0762 33.3363C59.6439 27.7733 58.9117 19.4918 59.3157 17.7834C59.7197 16.0749 73.1686 7.68406 73.1686 7.68406C73.1686 7.68406 74.2458 3.78741 74.5656 2.8953C74.8855 2.00319 75.2894 -0.227071 75.483 0.0506605C75.8701 0.631371 75.5672 2.48291 75.3231 3.51809C75.079 4.55327 75.5503 6.67412 75.5082 7.43999C75.4662 8.20585 74.2879 8.51725 74.2879 8.51725C73.7829 9.02221 64.0792 17.775 63.6752 20.182C63.2713 22.589 69.9284 37.0141 71.7631 36.1725C73.5978 35.3309 73.7493 31.4427 73.7493 31.4427L77.3682 31.409Z" fill="#F5B182"/>
<path d="M73.7492 31.4092C73.7136 32.027 73.6263 32.6407 73.4883 33.2439C74.1958 33.2187 74.9012 33.1513 75.6007 33.0419C76.2498 32.9648 76.8898 32.8239 77.5112 32.6211C77.442 32.2199 77.3943 31.8154 77.3681 31.4092H73.7492Z" fill="#E28B5A"/>
<path d="M83.6635 37.1488C83.0496 38.0359 82.6941 39.0761 82.6367 40.1534C82.6367 40.4648 83.108 40.4648 83.1248 40.1534C83.1188 39.1439 83.3646 38.1488 83.8402 37.2582C83.8547 37.2348 83.8593 37.2066 83.853 37.1797C83.8467 37.1529 83.83 37.1297 83.8066 37.1152C83.7831 37.1007 83.7549 37.0961 83.728 37.1024C83.7012 37.1087 83.678 37.1254 83.6635 37.1488Z" fill="#E28B5A"/>
<path d="M67.5474 37.7801C67.9749 38.709 68.2967 39.683 68.5069 40.6837C68.5069 40.9951 69.0287 41.0035 69.0034 40.6837C68.9024 39.5728 68.2207 38.7143 67.8252 37.7044C67.7578 37.5361 67.4885 37.595 67.5474 37.7801Z" fill="#E28B5A"/>
<path d="M76.7899 57.8185C76.7899 55.9586 76.386 54.2249 76.731 52.3565C76.7338 52.3465 76.7346 52.3361 76.7333 52.3259C76.7321 52.3157 76.7288 52.3058 76.7237 52.2968C76.7186 52.2878 76.7118 52.2799 76.7037 52.2735C76.6956 52.2672 76.6863 52.2625 76.6763 52.2597C76.6664 52.2569 76.656 52.2562 76.6457 52.2574C76.6355 52.2587 76.6256 52.2619 76.6166 52.267C76.6076 52.2721 76.5997 52.2789 76.5934 52.287C76.587 52.2952 76.5823 52.3045 76.5795 52.3144C75.9393 54.1041 75.8745 56.0492 76.3944 57.8774C76.4083 57.924 76.4385 57.9641 76.4795 57.9902C76.5206 58.0163 76.5696 58.0267 76.6177 58.0195C76.6658 58.0124 76.7097 57.9881 76.7413 57.9512C76.773 57.9143 76.7902 57.8672 76.7899 57.8185Z" fill="#E28B5A"/>
<path d="M76.587 59.1906C76.5512 59.2461 76.5275 59.3085 76.5173 59.3737C76.5072 59.4389 76.5108 59.5056 76.5281 59.5693C76.5435 59.6313 76.5792 59.6864 76.6295 59.7258C76.6799 59.7652 76.7419 59.7866 76.8058 59.7866C76.8697 59.7866 76.9318 59.7652 76.9821 59.7258C77.0325 59.6864 77.0682 59.6313 77.0836 59.5693C77.1031 59.5059 77.108 59.4388 77.0978 59.3732C77.0876 59.3075 77.0626 59.2451 77.0246 59.1906C77.001 59.1541 76.9685 59.1242 76.9303 59.1034C76.8921 59.0826 76.8493 59.0718 76.8058 59.0718C76.7623 59.0718 76.7195 59.0826 76.6813 59.1034C76.6431 59.1242 76.6107 59.1541 76.587 59.1906Z" fill="#E28B5A"/>
<path opacity="0.5" d="M78.0352 45.9688C75.0474 46.1442 72.0783 46.5579 69.1562 47.2059C69.535 49.1416 69.9474 51.4813 70.1325 53.0972C72.2534 50.1179 74.7109 47.3574 78.0352 45.9688Z" fill="#E28B5A"/>
<path d="M79.802 24.8527C79.802 24.8527 80.0713 32.242 75.4509 32.5871C74.1043 32.6797 70.9735 31.4088 70.1992 27.3186C70.1992 27.3186 74.6934 25.972 76.0905 21.562C76.1326 21.562 77.6895 24.2888 79.802 24.8527Z" fill="#F5B182"/>
<path d="M75.499 27.3187C75.3306 27.4029 74.893 29.3302 75.3391 29.6163C75.7851 29.9025 76.7277 29.4564 76.5846 29.1619C76.4416 28.8673 75.9029 29.044 75.743 28.5643C75.5831 28.0846 75.6505 27.243 75.499 27.3187Z" fill="#F47F60"/>
<path opacity="0.5" d="M72.1169 28.0681C71.9949 28.137 71.8962 28.2407 71.8332 28.3659C71.7702 28.4911 71.7459 28.6322 71.7633 28.7713C71.7807 28.9103 71.839 29.0411 71.9309 29.1469C72.0228 29.2528 72.144 29.3289 72.2793 29.3657C72.4145 29.4025 72.5576 29.3982 72.6904 29.3535C72.8233 29.3087 72.9398 29.2255 73.0252 29.1144C73.1106 29.0033 73.1611 28.8693 73.1702 28.7295C73.1793 28.5896 73.1467 28.4502 73.0764 28.329C72.983 28.1679 72.8299 28.0502 72.6503 28.0013C72.4706 27.9525 72.279 27.9765 72.1169 28.0681Z" fill="#F47F60"/>
<path d="M73.5994 25.4167C73.4561 25.3447 73.2952 25.3152 73.1356 25.3316C72.9761 25.348 72.8246 25.4097 72.6989 25.5093C72.5895 25.5766 72.4885 25.3999 72.5979 25.3325C72.7549 25.2157 72.9418 25.1458 73.137 25.1309C73.3321 25.116 73.5275 25.1568 73.7004 25.2484C73.8182 25.3157 73.7004 25.484 73.5994 25.4251V25.4167Z" fill="#7B3221"/>
<path d="M77.3003 25.1561C77.435 25.0708 77.5911 25.0255 77.7505 25.0255C77.91 25.0255 78.0661 25.0708 78.2008 25.1561C78.2244 25.1621 78.2494 25.1594 78.2712 25.1484C78.2929 25.1375 78.31 25.119 78.3192 25.0965C78.3285 25.0739 78.3292 25.0488 78.3214 25.0257C78.3135 25.0026 78.2976 24.9832 78.2765 24.9709C78.1055 24.8759 77.9108 24.8318 77.7155 24.8437C77.5201 24.8556 77.3323 24.9231 77.174 25.0383C77.073 25.114 77.174 25.2739 77.3003 25.1897V25.1561Z" fill="#7B3221"/>
<path d="M76.3179 30.643C76.0745 30.84 75.7654 30.9374 75.4531 30.9156C75.1407 30.8937 74.8482 30.7542 74.6347 30.5252C74.6089 30.5094 74.5785 30.5027 74.5485 30.5063C74.5185 30.5099 74.4905 30.5234 74.4691 30.5448C74.4478 30.5662 74.4342 30.5941 74.4306 30.6242C74.4271 30.6542 74.4337 30.6846 74.4495 30.7103C74.7057 30.9898 75.0584 31.1617 75.4364 31.1913C75.8143 31.221 76.1895 31.1063 76.4862 30.8702C76.6209 30.7777 76.4862 30.5504 76.3515 30.643H76.3179Z" fill="#F47F60"/>
<path d="M74.0605 27.7735C74.0605 27.6388 73.8922 27.5547 73.8585 27.6977C73.7659 28.0344 73.6313 28.4383 73.1852 28.2784C72.8911 28.1179 72.6444 27.8828 72.4698 27.5967C72.4596 27.5858 72.4472 27.577 72.4335 27.5711C72.4197 27.5651 72.4049 27.562 72.3899 27.562C72.3749 27.562 72.3601 27.5651 72.3463 27.5711C72.3325 27.577 72.3202 27.5858 72.3099 27.5967H72.1248C71.9817 27.5967 71.9565 27.8156 72.1248 27.8156H72.3773L72.4698 27.925C72.4232 28.002 72.3521 28.0613 72.2679 28.0933C72.2546 28.0994 72.2427 28.108 72.2327 28.1187C72.2228 28.1294 72.2151 28.1419 72.21 28.1556C72.2049 28.1693 72.2026 28.1838 72.2031 28.1984C72.2037 28.213 72.2071 28.2273 72.2131 28.2406C72.2192 28.2538 72.2279 28.2658 72.2386 28.2757C72.2492 28.2856 72.2618 28.2933 72.2755 28.2984C72.2891 28.3035 72.3037 28.3058 72.3183 28.3053C72.3328 28.3048 72.3472 28.3013 72.3604 28.2953C72.4604 28.2504 72.5494 28.1843 72.6213 28.1017C72.7918 28.3252 73.0366 28.4805 73.3114 28.5393C73.7996 28.5478 73.9847 28.1354 74.0605 27.7735Z" fill="#222221"/>
<path opacity="0.5" d="M78.706 27.6133C78.8332 27.6655 78.9422 27.7541 79.0192 27.8679C79.0963 27.9818 79.138 28.1159 79.1392 28.2533C79.1404 28.3908 79.101 28.5256 79.026 28.6408C78.9509 28.756 78.8436 28.8464 78.7173 28.9009C78.5911 28.9553 78.4516 28.9713 78.3163 28.9468C78.181 28.9223 78.0559 28.8584 77.9568 28.7632C77.8576 28.6679 77.7888 28.5456 77.7589 28.4114C77.729 28.2772 77.7394 28.1371 77.7887 28.0088C77.858 27.8348 77.9935 27.6954 78.1655 27.6213C78.3375 27.5471 78.5319 27.5442 78.706 27.6133Z" fill="#F47F60"/>
<path d="M76.7024 27.5546C76.6435 27.4284 76.8371 27.319 76.896 27.4536C77.0307 27.7735 77.2242 28.1522 77.6366 27.9334C78.049 27.7145 78.0911 27.4284 78.2594 27.1675C78.2689 27.1567 78.2805 27.1481 78.2936 27.1422C78.3067 27.1363 78.3208 27.1333 78.3352 27.1333C78.3495 27.1333 78.3636 27.1363 78.3767 27.1422C78.3898 27.1481 78.4014 27.1567 78.4109 27.1675H78.6045C78.7391 27.1675 78.7896 27.3611 78.655 27.3863H78.4025L78.3267 27.5041C78.3834 27.573 78.4597 27.6229 78.5456 27.6472C78.562 27.6487 78.5779 27.6538 78.5921 27.6623C78.6062 27.6708 78.6183 27.6824 78.6274 27.6962C78.6364 27.71 78.6422 27.7257 78.6443 27.7421C78.6465 27.7585 78.6449 27.7751 78.6396 27.7908C78.6344 27.8065 78.6257 27.8207 78.6142 27.8326C78.6027 27.8444 78.5886 27.8534 78.5731 27.8591C78.5575 27.8647 78.5409 27.8667 78.5245 27.865C78.5081 27.8633 78.4923 27.8579 78.4782 27.8492C78.3752 27.8209 78.2801 27.769 78.2005 27.6977C78.0623 27.9427 77.8416 28.1306 77.5777 28.2279C77.1064 28.3205 76.8623 27.9418 76.7024 27.5546Z" fill="#222221"/>
<path d="M70.7391 30.054C70.4729 30.2063 70.1674 30.276 69.8614 30.2544C69.5555 30.2328 69.2628 30.1209 69.0206 29.9327C68.7783 29.7446 68.5974 29.4888 68.5008 29.1977C68.4041 28.9066 68.3961 28.5934 68.4777 28.2977C68.5593 28.002 68.7269 27.7373 68.9591 27.537C69.1914 27.3367 69.4779 27.2098 69.7824 27.1726C70.0868 27.1353 70.3955 27.1893 70.6692 27.3277C70.9429 27.4661 71.1694 27.6827 71.3198 27.95C71.4214 28.1259 71.487 28.3202 71.5128 28.5217C71.5386 28.7232 71.524 28.9278 71.47 29.1236C71.4159 29.3194 71.3235 29.5025 71.198 29.6622C71.0725 29.8219 70.9165 29.9551 70.7391 30.054Z" fill="#F5B182"/>
<path d="M70.5598 28.5477C70.3841 28.3711 70.1715 28.2358 69.9372 28.1514C69.7029 28.067 69.4527 28.0356 69.2048 28.0596C69.087 28.0596 69.0786 28.2447 69.2048 28.2447C69.5799 28.2337 69.9496 28.3364 70.2653 28.5393C70.0296 28.5982 69.7519 28.7244 69.7435 28.9769C69.7435 29.3556 70.0969 29.4987 70.4252 29.4482C70.4181 29.4587 70.4133 29.4706 70.4111 29.483C70.4088 29.4955 70.4091 29.5083 70.412 29.5206C70.4148 29.5329 70.4202 29.5446 70.4277 29.5547C70.4353 29.5649 70.4448 29.5734 70.4558 29.5798C70.4667 29.5861 70.4788 29.5901 70.4914 29.5916C70.504 29.5931 70.5167 29.5919 70.5288 29.5883C70.541 29.5846 70.5522 29.5785 70.5619 29.5704C70.5716 29.5622 70.5794 29.5521 70.5851 29.5408C70.6787 29.391 70.7263 29.217 70.7218 29.0404C70.7173 28.8639 70.661 28.6925 70.5598 28.5477ZM70.4252 29.2631C70.3039 29.3131 70.1677 29.3131 70.0464 29.2631C70.0178 29.2475 69.9927 29.2261 69.9727 29.2003C69.9528 29.1745 69.9384 29.1449 69.9304 29.1132C69.9225 29.0816 69.9213 29.0486 69.9268 29.0165C69.9322 28.9843 69.9443 28.9537 69.9623 28.9264C70.0834 28.8099 70.2409 28.7386 70.4083 28.7244C70.4657 28.8085 70.5024 28.9049 70.5155 29.0057C70.5287 29.1066 70.5179 29.2092 70.4841 29.3051C70.4793 29.2932 70.4712 29.283 70.4608 29.2755C70.4503 29.2681 70.438 29.2637 70.4252 29.2631Z" fill="#E28B5A"/>
<path d="M72.2858 35.2129C71.1665 36.1639 71.0486 38.0744 70.8635 39.4209C70.615 41.7011 70.5223 43.9956 70.5858 46.2885C70.5975 46.357 70.633 46.4192 70.6862 46.464C70.7393 46.5088 70.8066 46.5334 70.8761 46.5334C70.9456 46.5334 71.0129 46.5088 71.0661 46.464C71.1192 46.4192 71.1548 46.357 71.1665 46.2885C71.1665 44.5547 71.1665 42.8294 71.2675 41.1126C71.36 39.6061 71.4105 36.7025 72.6982 35.6169C72.9843 35.3728 72.572 34.9604 72.2858 35.2045V35.2129Z" fill="#2191C3"/>
<path d="M78.8159 35.9791C80.6001 38.4029 80.7937 42.0807 80.7937 45.0095C80.8054 45.0781 80.841 45.1402 80.8941 45.1851C80.9472 45.2299 81.0145 45.2545 81.084 45.2545C81.1536 45.2545 81.2208 45.2299 81.274 45.1851C81.3271 45.1402 81.3627 45.0781 81.3744 45.0095C81.3744 42.005 81.1556 38.1925 79.304 35.6845C79.0852 35.3899 78.5803 35.6845 78.8075 35.9791H78.8159Z" fill="#2191C3"/>
<path d="M68.6914 45.2452C68.6914 45.2452 71.2162 43.3348 73.0678 43.0402C74.9193 42.7456 80.3477 42.1313 82.7463 43.7051C82.7463 43.7051 82.9988 46.3057 81.9888 47.9131H69.2132C69.2132 47.9131 68.9607 46.5245 68.6914 45.2452Z" fill="#2191C3"/>
<path d="M68.2715 59.3926C68.2715 59.3926 77.9668 61.8164 83.21 59.3926L84.3714 61.9174C84.3714 61.9174 78.2193 66.218 76.0311 71.6296H74.7687C74.7687 71.6296 73.3632 62.8263 65.957 63.508C66.341 61.9517 67.141 60.5291 68.2715 59.3926Z" fill="#2191C3"/>
<path d="M69.2132 47.9131H76.4342C74.751 47.4586 73.0004 46.7012 72.2935 45.0348C72.0673 44.5034 71.961 43.9287 71.9821 43.3516C70.813 43.8481 69.7081 44.4839 68.6914 45.2452C68.9607 46.5244 69.2132 47.9131 69.2132 47.9131Z" fill="#1656A3"/>
<path d="M75.3915 60.4278C72.9934 60.2822 70.6117 59.9359 68.2715 59.3926C67.1462 60.5198 66.3466 61.9301 65.957 63.4744C67.5362 63.2856 69.1327 63.6387 70.4849 64.4759C71.9275 62.9084 73.5784 61.5463 75.3915 60.4278Z" fill="#1656A3"/>
<path d="M82.7715 44.3025V44.1594C80.7105 43.7768 78.611 43.644 76.5183 43.7639C73.8389 43.8162 71.1951 44.3878 68.7334 45.4471C68.7295 45.4975 68.7295 45.5481 68.7334 45.5986C71.193 44.57 73.8199 43.9995 76.4846 43.9153C78.5881 43.7609 80.7028 43.8912 82.7715 44.3025Z" fill="white"/>
<path d="M76.7146 45.0431C74.0603 45.0337 71.413 45.316 68.8203 45.8847C68.8251 45.9323 68.8251 45.9802 68.8203 46.0278C71.2298 45.5044 73.6854 45.2224 76.1507 45.1861C78.3347 45.0809 80.5234 45.14 82.6985 45.3629C82.6985 45.3208 82.6985 45.2703 82.6985 45.2282C80.7099 45.0382 78.7111 44.9763 76.7146 45.0431Z" fill="white"/>
<path d="M68.9102 46.3306C68.9142 46.3782 68.9142 46.426 68.9102 46.4736C71.6791 46.4231 74.4395 46.6504 77.2084 46.684C78.9674 46.684 80.7264 46.684 82.4769 46.684C82.4769 46.6335 82.4769 46.583 82.4769 46.5325C80.8863 46.5325 79.304 46.5746 77.7218 46.5325C74.8351 46.5325 71.8726 46.2885 68.9102 46.3306Z" fill="white"/>
<path d="M69.0859 47.2314C69.0859 47.2819 69.0859 47.3409 69.0859 47.3829C73.4576 47.6564 77.8415 47.6733 82.215 47.4334C82.241 47.3846 82.2635 47.3339 82.2824 47.2819C77.8864 47.525 73.4799 47.5082 69.0859 47.2314Z" fill="white"/>
<path d="M76.6548 61.3199C79.0105 61.3779 81.3549 60.9748 83.556 60.1332L83.4887 59.9986C81.1646 60.8613 78.695 61.2644 76.2172 61.1852C73.3809 61.2357 70.4605 61.0337 67.9526 59.7124L67.8516 59.8302C70.5279 61.2441 73.6334 61.3788 76.6548 61.3199Z" fill="white"/>
<path d="M84.161 61.4377L84.0937 61.2946C81.7299 62.0171 79.2767 62.4052 76.8054 62.4476C73.4986 62.4689 70.2102 61.9545 67.0679 60.9243L66.9922 61.0506C70.166 62.0597 73.475 62.579 76.8054 62.5907C79.3017 62.5836 81.7823 62.1948 84.161 61.4377Z" fill="white"/>
<path d="M66.3357 62.2794L66.2852 62.414C69.703 63.1927 73.1912 63.6213 76.6959 63.6933C79.0042 63.6994 81.2963 63.3065 83.4708 62.5318L83.8916 62.2036C81.4229 63.1198 78.8072 63.5762 76.1741 63.5502C72.8602 63.4589 69.564 63.0331 66.3357 62.2794Z" fill="white"/>
<path d="M70.4609 64.4589L70.7303 64.6356C71.4372 64.7198 72.161 64.7703 72.91 64.7871C76.0487 64.821 79.1773 64.4274 82.2098 63.6173L82.4623 63.3984C79.7111 64.1171 76.8882 64.5264 74.0462 64.6188C72.8487 64.6745 71.6487 64.6209 70.4609 64.4589Z" fill="white"/>
<path d="M72.5217 66.3696C74.9623 66.1087 77.4198 65.9572 79.8773 65.8815L80.012 65.73C77.4872 65.8057 74.9623 65.9656 72.4375 66.2349L72.5217 66.3696Z" fill="white"/>
<path d="M73.2711 67.5058C75.1105 67.2632 76.9622 67.1255 78.8173 67.0934L78.9351 66.9419C77.0152 66.9754 75.0988 67.1187 73.1953 67.3711L73.2711 67.5058Z" fill="white"/>
<path d="M73.875 68.7175C73.875 68.768 73.875 68.8185 73.9423 68.8606C75.2043 68.9329 76.4702 68.8309 77.7043 68.5576L77.8306 68.3809C76.5356 68.6861 75.2029 68.7995 73.875 68.7175Z" fill="white"/>
<path d="M74.3633 70.0138L74.4138 70.1569C75.1796 70.1569 75.9371 70.1569 76.703 70.1569L76.7871 70.0054C75.9792 70.0475 75.1712 70.039 74.3633 70.0138Z" fill="white"/>
</g>
<defs>
<clipPath id="clip0_629_2038">
<rect width="171.108" height="150" fill="white"/>
</clipPath>
</defs>
</svg>
