<svg width="171" height="150" viewBox="0 0 171 150" fill="none" xmlns="http://www.w3.org/2000/svg">
<g clip-path="url(#clip0_629_2114)">
<path d="M154.881 114.265C154.881 152.043 18.0977 152.043 18.0977 114.265C18.0977 76.4871 48.7115 0 86.4895 0C124.268 0 154.881 76.4958 154.881 114.265Z" fill="#DCF2F4"/>
<path d="M167.692 122.921C176.166 126.55 165.105 134.128 139.785 134.283C139.785 134.283 162.967 143.767 141.069 147.31C119.172 150.853 51.3488 150.896 29.4423 147.31C7.53589 143.724 30.7269 134.283 30.7269 134.283C5.3806 134.094 -5.66314 126.524 2.8201 122.921C13.7949 118.239 156.734 118.239 167.692 122.921Z" fill="#2191C3"/>
<path d="M99.3855 144.646C96.2129 145.379 93.0748 146.233 89.7987 146.284C86.5227 146.336 83.6691 144.56 80.5827 143.508C75.5565 141.784 70.2373 143.707 65.2542 144.543C62.2689 145.076 59.1961 144.82 56.3399 143.801C53.8398 142.939 51.4603 142.077 48.7791 142.077C45.5031 142.12 42.1667 143.129 38.882 143.396C35.3278 143.689 31.7509 143.535 28.2348 142.939C27.7089 142.853 27.4848 143.646 28.0107 143.741C34.3042 144.784 40.4942 144.25 46.7359 143.172C50.1326 142.577 52.9518 143.439 56.1157 144.586C58.8762 145.572 61.8359 145.868 64.7369 145.448C70.7718 144.689 76.16 142.439 82.1259 144.982C84.7122 146.069 86.9796 147.026 89.7987 147.103C93.1006 147.207 96.4198 146.181 99.601 145.448C100.118 145.327 99.9027 144.534 99.3855 144.646Z" fill="#1656A3"/>
<path d="M127.794 135.818C125.413 137.694 122.48 138.733 119.449 138.775C116.423 138.844 113.733 137.542 110.914 136.672C108.509 135.867 105.927 135.745 103.457 136.318C100.689 136.999 98.146 138.37 95.3958 139.111C89.2748 140.767 82.9468 137.62 77.0413 136.404C71.4548 135.249 65.5062 136.275 60.1093 137.853C60.0129 137.89 59.9338 137.961 59.8876 138.054C59.8413 138.146 59.8313 138.252 59.8593 138.352C59.8874 138.451 59.9516 138.536 60.0394 138.591C60.1271 138.645 60.232 138.665 60.3335 138.646C66.7821 136.758 73.1618 136.18 79.7139 137.887C85.1797 139.31 90.5852 141.267 96.258 139.741C98.7926 139.051 101.146 137.835 103.672 137.111C107.224 136.094 110.811 137.413 114.112 138.646C116.449 139.524 118.971 139.791 121.439 139.421C123.907 139.051 126.24 138.057 128.217 136.534C128.631 136.215 128.217 135.49 127.794 135.818Z" fill="#1656A3"/>
<path d="M44.5369 133.051C48.6923 133.163 52.5891 131.413 56.5376 130.387C61.3741 129.119 65.9605 130.714 70.6849 131.663C71.2022 131.766 71.4264 130.973 70.9005 130.869C66.8658 130.059 62.581 128.464 58.4084 129.145C53.6926 129.938 49.3906 132.137 44.5369 132.206C39.6832 132.275 35.0536 130.042 30.243 129.128C26.2696 128.481 22.1985 128.81 18.3802 130.085C17.8716 130.24 18.0871 131.033 18.5957 130.878C22.9608 129.469 27.6306 129.296 32.0879 130.378C36.2692 131.421 40.1746 132.938 44.5369 133.051Z" fill="#1656A3"/>
<path d="M157.063 127.128C153.312 128.801 149.597 127.99 145.717 127.335C142.673 126.843 139.568 126.878 136.536 127.439C128.578 128.671 120.681 130.025 112.629 128.792C112.112 128.706 111.888 129.508 112.414 129.585C120.354 130.801 128.139 129.585 135.993 128.352C138.079 127.94 140.202 127.732 142.329 127.732C144.261 127.886 146.179 128.174 148.071 128.594C151.33 129.171 154.416 129.215 157.477 127.844C157.968 127.594 157.545 126.913 157.063 127.128Z" fill="#1656A3"/>
<path d="M38.0109 16.2424C38.0126 18.2808 37.4096 20.2738 36.2782 21.9693C35.1468 23.6649 33.5379 24.9867 31.6551 25.7675C29.7722 26.5483 27.7001 26.7531 25.7008 26.3558C23.7015 25.9586 21.8651 24.9772 20.4237 23.5359C18.9824 22.0946 18.001 20.2581 17.6038 18.2588C17.2065 16.2596 17.4113 14.1874 18.1921 12.3045C18.9729 10.4217 20.2948 8.81277 21.9903 7.68139C23.6858 6.55002 25.6789 5.94703 27.7172 5.94873C29.069 5.94873 30.4075 6.21499 31.6564 6.73229C32.9053 7.2496 34.0401 8.00783 34.9959 8.96369C35.9518 9.91955 36.71 11.0543 37.2273 12.3032C37.7446 13.5521 38.0109 14.8906 38.0109 16.2424Z" fill="#ED5D3A"/>
<path d="M159.553 123.145C162.044 124.654 133.629 128.068 89.2555 128.068C62.2626 128.068 18.2342 130.042 10.8027 121.766C8.62153 119.326 147.897 116.102 159.553 123.145Z" fill="#FEB71F"/>
<path d="M73.2808 118.972C75.4103 121.946 77.3759 125.007 79.2726 128.145C74.8154 128.145 70.1169 128.24 65.3666 128.266C64.1941 125.197 62.9354 122.162 61.625 119.136C65.4442 119.05 69.341 118.972 73.2808 118.972Z" fill="#44BFC6"/>
<path d="M76.7297 118.92C79.6609 121.863 82.4686 124.915 85.1526 128.076L79.3161 128.128C77.3849 125.007 75.4193 121.929 73.2812 118.972L76.7297 118.92Z" fill="white"/>
<path d="M61.6351 119.119C62.9455 122.145 64.2214 125.154 65.3767 128.249H62.1696C61.4109 125.188 60.6005 122.154 59.6953 119.136L61.6351 119.119Z" fill="white"/>
<path d="M85.8866 125.8C123.035 125.8 152.192 124.223 159.555 123.145C162.046 124.654 133.631 128.068 89.2575 128.068C62.2645 128.068 18.2361 130.042 10.8047 121.766C23.6675 127.395 61.6438 125.8 85.8866 125.8Z" fill="#D98F00"/>
<path d="M137.828 121.731L119.723 121.61H101.196L79.9536 121.688L58.711 121.869L40.1841 122.11L27.0799 122.335L22.1055 122.447L27.0799 122.498L40.1841 122.567H58.7196L79.9622 122.49L101.196 122.309L119.723 122.067L137.828 121.731Z" fill="#D98F00"/>
<path d="M90.7061 33.6224C91.9484 34.8359 93.5112 35.6696 95.211 36.0254C96.9108 36.3813 98.6768 36.2445 100.301 35.6311C103.534 34.4242 107.431 31.0533 105.905 27.2513C105.273 25.848 104.16 24.7168 102.767 24.0615C101.836 23.458 100.543 23.1218 99.836 22.1907C98.3531 20.2509 100.405 17.5353 100.457 15.3369C100.508 13.1385 98.9566 11.4056 96.034 12.216C94.2149 10.6555 90.594 9.38823 88.8439 11.2935C87.5249 12.8022 87.2749 14.923 85.8955 16.3628C84.0592 18.475 81.9211 19.9406 80.9469 22.7166C80.3702 24.3779 80.2889 26.171 80.7129 27.8777C81.1369 29.5844 82.0479 31.131 83.335 32.3292C85.5765 34.3035 88.0939 34.9156 90.7061 33.6224Z" fill="#ED5D3A"/>
<path d="M96.3445 13.2335C95.241 15.1388 92.6115 16.1388 90.4993 16.2509C90.37 16.2509 90.37 16.4664 90.4993 16.4578C92.6805 16.3371 95.3789 15.3112 96.5342 13.3369C96.6031 13.2162 96.4221 13.1128 96.3617 13.2335H96.3445Z" fill="#B22D1F"/>
<path d="M91.5937 16.8028C90.3786 18.6043 89.5757 20.6516 89.2419 22.7988C88.9081 24.9461 89.0517 27.1405 89.6625 29.2259C89.6625 29.3466 89.9039 29.2949 89.8608 29.1655C89.2661 27.1067 89.1284 24.9428 89.4576 22.8252C89.7867 20.7076 90.5746 18.6874 91.7661 16.9062C91.8437 16.7941 91.6626 16.6993 91.5851 16.8028H91.5937Z" fill="#B22D1F"/>
<path d="M93.0566 11.7591C89.9443 13.7851 88.1942 16.8542 87.0218 20.3027C86.2935 22.3195 85.994 24.4661 86.1425 26.6052C86.2909 28.7443 86.884 30.8289 87.8839 32.7258C87.9442 32.8379 88.1166 32.7258 88.0563 32.6138C86.1988 29.0447 85.8269 24.8861 87.0218 21.0441C88.0218 17.406 89.9616 14.0265 93.1687 11.9402C93.2807 11.8626 93.1687 11.6901 93.0652 11.7591H93.0566Z" fill="#B22D1F"/>
<path d="M95.6452 12.613C94.3642 14.0246 92.6566 14.9783 90.7829 15.3286C90.6535 15.3286 90.7139 15.5528 90.8432 15.5269C92.7515 15.1718 94.4902 14.1995 95.7918 12.7595C95.878 12.6561 95.7314 12.5095 95.6452 12.613Z" fill="#B22D1F"/>
<path d="M94.4111 12.2422C93.0788 12.8627 91.8831 13.7419 90.8937 14.8286C89.8712 16.4299 89.174 18.2169 88.8418 20.0875C87.9797 23.8464 87.6952 27.3379 89.6436 30.7864C89.7126 30.8985 89.8936 30.7864 89.8247 30.683C87.8849 27.2345 88.1952 23.8722 89.0401 20.1392C89.3392 18.6947 89.802 17.289 90.4195 15.9493C91.2816 14.2251 92.9541 13.3026 94.5146 12.3974C94.5265 12.3906 94.5369 12.3816 94.5453 12.3707C94.5537 12.3599 94.5598 12.3475 94.5634 12.3343C94.567 12.3211 94.568 12.3073 94.5663 12.2937C94.5645 12.2802 94.5602 12.2671 94.5534 12.2552C94.5466 12.2433 94.5375 12.2328 94.5267 12.2245C94.5159 12.2161 94.5035 12.2099 94.4903 12.2063C94.4771 12.2027 94.4633 12.2017 94.4497 12.2035C94.4361 12.2052 94.423 12.2096 94.4111 12.2164V12.2422Z" fill="#B22D1F"/>
<path d="M92.327 11.2078C84.5679 15.1563 82.9127 25.8638 84.7404 33.6229C84.7404 33.7522 84.9645 33.6918 84.9386 33.5711C83.1368 25.9069 84.7404 15.2597 92.4305 11.363C92.5511 11.3026 92.4305 11.1302 92.327 11.1819V11.2078Z" fill="#B22D1F"/>
<path d="M85.4888 17.6475C83.4238 19.8125 82.0753 22.5606 81.6266 25.5187C81.1007 28.5878 82.1093 31.0362 84.0663 33.3381C84.1526 33.4329 84.2991 33.2864 84.2129 33.1915C81.8852 30.45 81.342 27.7429 82.0749 24.2514C82.6387 21.8099 83.8716 19.5739 85.6354 17.7941C85.6548 17.7747 85.6658 17.7483 85.6658 17.7208C85.6658 17.6933 85.6548 17.667 85.6354 17.6475C85.616 17.6281 85.5896 17.6172 85.5621 17.6172C85.5346 17.6172 85.5083 17.6281 85.4888 17.6475Z" fill="#B22D1F"/>
<path d="M97.7821 13.2247C99.0753 15.6387 98.239 17.9146 97.9028 20.4493C97.7735 21.3804 97.7045 22.9236 98.5839 23.5788C99.2252 23.9942 99.9069 24.3437 100.618 24.6219C101.906 25.3149 102.882 26.4702 103.351 27.8549C104.808 31.562 101.627 33.2517 98.5753 33.8897C98.5522 33.8993 98.5334 33.9169 98.5223 33.9392C98.5112 33.9616 98.5086 33.9872 98.5149 34.0113C98.5212 34.0355 98.536 34.0566 98.5566 34.0706C98.5772 34.0847 98.6022 34.0909 98.627 34.088C100.662 33.6311 102.67 33.131 103.601 31.0878C104.308 29.536 103.601 27.6393 102.8 26.2686C101.369 23.9926 98.1442 24.2771 98.058 21.1562C97.9718 18.0353 99.4977 15.9835 97.9632 13.0782C97.8942 12.9661 97.7218 13.0782 97.7821 13.1902V13.2247Z" fill="#B22D1F"/>
<path d="M96.9364 14.1732C97.5204 16.4621 97.4727 18.8666 96.7984 21.1305C96.3441 22.3209 96.3227 23.6331 96.7381 24.8376C97.1864 25.9067 98.8072 26.6998 99.6434 27.424C100.781 28.3551 101.902 30.0966 100.704 31.5794C100.04 32.4415 98.5054 32.4846 97.5571 32.5795C97.4278 32.5795 97.4278 32.795 97.5571 32.7864C100.376 32.5191 102.73 30.9501 100.557 28.0533C100.085 27.4906 99.5332 26.9998 98.9192 26.5964C97.0657 25.1911 96.3329 24.1048 96.8588 21.7685C97.445 19.1218 97.8674 16.8372 97.1346 14.156C97.1307 14.143 97.1242 14.1308 97.1155 14.1203C97.1069 14.1098 97.0963 14.1011 97.0843 14.0947C97.0723 14.0883 97.0591 14.0843 97.0456 14.083C97.032 14.0817 97.0183 14.083 97.0053 14.087C96.9923 14.091 96.9802 14.0975 96.9697 14.1061C96.9592 14.1147 96.9505 14.1254 96.9441 14.1374C96.9377 14.1494 96.9337 14.1625 96.9324 14.1761C96.931 14.1896 96.9324 14.2033 96.9364 14.2163V14.1732Z" fill="#B22D1F"/>
<path d="M95.6169 22.3547C95.3686 23.451 95.348 24.5866 95.5566 25.6911C95.9014 27.5015 97.5136 29.1396 95.7118 30.7517C95.6083 30.8466 95.7118 30.9931 95.8583 30.8983C96.2156 30.6147 96.486 30.2364 96.6384 29.8065C96.7909 29.3765 96.8193 28.9124 96.7204 28.4671C96.5029 27.6782 96.2144 26.9107 95.8583 26.1739C95.4767 24.951 95.4469 23.6455 95.7721 22.4064C95.7721 22.2771 95.5997 22.2254 95.5738 22.3547H95.6169Z" fill="#B22D1F"/>
<path d="M100.635 23.6909C102.557 24.7168 104.35 25.9151 104.945 28.1566C105.721 31.0879 103.307 32.9845 100.936 33.8897C100.816 33.9415 100.867 34.1398 100.988 34.088C103.29 33.2259 105.023 31.881 105.238 29.3033C105.471 26.4497 102.936 24.6909 100.738 23.5098C100.714 23.4961 100.686 23.4925 100.659 23.4998C100.632 23.507 100.609 23.5246 100.596 23.5486C100.582 23.5726 100.578 23.6011 100.586 23.6278C100.593 23.6545 100.611 23.6772 100.635 23.6909Z" fill="#B22D1F"/>
<path d="M98.755 12.8371C99.9275 15.0269 99.143 17.3201 98.2895 19.4668C98.2378 19.5961 98.4447 19.6478 98.4878 19.5271C99.3499 17.3115 100.134 14.9752 98.9275 12.7337C98.8671 12.6216 98.6861 12.7337 98.755 12.8371Z" fill="#B22D1F"/>
<path d="M84.4108 50.1151C82.0055 52.6584 75.7897 65.5816 73.1429 80.7721C70.4962 95.9626 70.2549 119.059 70.2549 119.059C70.2549 119.059 65.3063 122.507 65.4442 122.706C65.5822 122.904 73.074 122.706 73.074 122.706L72.6602 119.197C72.6602 119.197 77.6087 105.403 78.4277 97.7558C79.2468 90.1088 79.5313 84.6258 80.152 83.7981C87.2494 76.4677 91.2029 66.655 91.1698 56.4517C91.1526 44.132 84.4108 50.1151 84.4108 50.1151Z" fill="#E28B5A"/>
<path d="M84.4099 50.1147C84.1695 50.3869 83.9478 50.6749 83.7461 50.9768C86.0221 56.2961 88.0567 61.624 87.9274 67.5295C87.8756 69.2537 87.7981 70.978 87.6946 72.7022C90.0032 67.5945 91.1796 62.0478 91.1431 56.4427C91.1517 44.1316 84.4099 50.1147 84.4099 50.1147Z" fill="#AD553A"/>
<path d="M89.4297 57.5378C89.4818 62.6923 90.3191 67.8088 91.9126 72.7111C94.4989 80.3495 96.9387 83.2721 97.3612 87.6516C97.7836 92.0312 96.1628 97.3849 101.732 117.826C101.314 119.518 100.79 121.182 100.163 122.809C99.7751 123.3 107.448 123.421 107.06 122.809C106.672 122.197 104.318 118.369 104.318 118.369C104.318 118.369 106.103 102.471 103.637 87.2637C103.637 87.2637 105.87 62.9433 97.7319 51.5806C95.8783 48.658 89.7659 54.529 89.4297 57.5378Z" fill="#E28B5A"/>
<path d="M100.291 86.6776C100.291 86.1517 99.5147 86.1517 99.4284 86.6776C99.3952 87.2159 99.4886 87.7544 99.7012 88.25C99.9138 88.7456 100.24 89.1844 100.653 89.5312C101.049 89.8847 101.635 89.2985 101.23 88.945C100.898 88.6744 100.638 88.3256 100.474 87.9299C100.31 87.5341 100.247 87.1038 100.291 86.6776Z" fill="#AD553A"/>
<path d="M102.439 87.2466C102.325 87.2466 102.215 87.292 102.134 87.3728C102.053 87.4537 102.008 87.5633 102.008 87.6776C102.008 87.792 102.053 87.9016 102.134 87.9824C102.215 88.0633 102.325 88.1087 102.439 88.1087C102.553 88.1087 102.663 88.0633 102.744 87.9824C102.825 87.9016 102.87 87.792 102.87 87.6776C102.87 87.5633 102.825 87.4537 102.744 87.3728C102.663 87.292 102.553 87.2466 102.439 87.2466Z" fill="#AD553A"/>
<path d="M98.5404 56.7877C99.6124 57.5502 100.573 58.4584 101.394 59.4862C100.532 56.5377 99.6698 52.5892 98.0317 50.365C96.3075 47.6148 90.3934 53.9427 89.5312 57.0464C92.4711 55.6239 95.5057 54.6324 98.5404 56.7877Z" fill="#AD553A"/>
<path d="M75.5576 82.2893C75.4407 82.9211 75.1681 83.5137 74.7644 84.0135C74.7159 84.108 74.7056 84.2175 74.7356 84.3193C74.7655 84.4212 74.8335 84.5076 74.9254 84.5608C75.0173 84.6139 75.1261 84.6297 75.2294 84.6049C75.3326 84.5801 75.4223 84.5165 75.48 84.4274C75.9485 83.7953 76.2455 83.0528 76.3421 82.2721C76.4025 81.7548 75.5835 81.7548 75.5576 82.2893Z" fill="#AD553A"/>
<path d="M90.9643 20.9062C90.9643 20.9062 90.3609 25.0617 90.1022 25.8203C89.8436 26.579 85.1364 25.8203 83.9984 26.8118C82.8604 27.8032 74.9289 37.7089 74.9289 37.7089L66.9543 25.8634L66.8164 29.0188C66.8164 29.0188 71.696 43.1489 74.5755 43.4593C77.4549 43.7696 84.7485 34.4156 84.7485 34.4156C84.7485 34.4156 86.7745 43.2868 84.3691 50.1234C84.3691 50.1234 89.4901 54.1151 96.7233 50.3648C96.7233 50.3648 96.8354 35.2778 97.663 34.9674C98.4906 34.657 105.715 42.3902 105.715 42.3902L100.137 52.7357C100.137 52.7357 99.5079 51.0804 98.5596 50.9425C97.6113 50.8045 94.6973 53.3736 95.2836 53.9081C95.8698 54.4427 98.732 54.3651 98.732 54.3651C98.732 54.3651 99.7838 55.71 100.456 55.71C101.129 55.71 102.017 53.615 102.017 53.615C102.017 53.615 110.914 43.9679 110.707 41.6316C110.5 39.2952 100.663 28.9412 98.9303 27.9153C97.651 27.2866 96.2084 27.0697 94.8008 27.2945C94.8008 27.2945 94.1456 25.9583 94.8008 23.0702L90.9643 20.9062Z" fill="#E28B5A"/>
<path d="M74.9104 42.054C74.838 42.014 74.7559 41.9952 74.6734 41.9997C74.5908 42.0042 74.5113 42.0319 74.4437 42.0796C74.3762 42.1273 74.3236 42.1931 74.2917 42.2694C74.2599 42.3457 74.2502 42.4294 74.2638 42.5109C74.3586 43.1058 74.9707 42.942 75.3501 42.7523C75.7294 42.5626 75.3845 41.8126 74.9104 42.054Z" fill="#AD553A"/>
<path d="M109.259 41.7095C109.208 41.5839 109.187 41.448 109.198 41.3129C109.198 41.1986 109.153 41.0889 109.072 41.0081C108.991 40.9273 108.882 40.8818 108.767 40.8818C108.653 40.8818 108.543 40.9273 108.462 41.0081C108.382 41.0889 108.336 41.1986 108.336 41.3129C108.331 41.5936 108.393 41.8714 108.517 42.1233C108.767 42.6147 109.491 42.1923 109.259 41.7095Z" fill="#AD553A"/>
<path d="M95.6375 54.1152C95.6243 54.1115 95.612 54.1049 95.6016 54.096C95.5912 54.0871 95.5828 54.076 95.5771 54.0635C95.5602 54.0445 95.5508 54.02 95.5508 53.9945C95.5508 53.9691 95.5602 53.9445 95.5771 53.9256C96.5278 53.4339 97.5239 53.0354 98.5514 52.7358C98.733 52.7396 98.9117 52.7823 99.0753 52.8612C99.2389 52.94 99.3837 53.0531 99.4998 53.1928C99.5108 53.2031 99.5195 53.2158 99.5251 53.2299C99.5307 53.244 99.5332 53.2592 99.5323 53.2743C99.5314 53.2895 99.5272 53.3043 99.5199 53.3176C99.5127 53.3309 99.5026 53.3425 99.4904 53.3515C99.4782 53.3605 99.4641 53.3667 99.4492 53.3697C99.4343 53.3727 99.419 53.3723 99.4042 53.3687C99.3895 53.3651 99.3758 53.3582 99.364 53.3487C99.3522 53.3391 99.3426 53.3271 99.336 53.3135C99.2374 53.2015 99.1169 53.1108 98.982 53.0471C98.8471 52.9833 98.7006 52.9478 98.5514 52.9427C97.563 53.2359 96.6069 53.6288 95.6978 54.1152H95.6375Z" fill="#AD553A"/>
<path d="M95.3517 53.4511H95.3C95.2903 53.4415 95.2827 53.4301 95.2774 53.4175C95.2722 53.4049 95.2695 53.3914 95.2695 53.3778C95.2695 53.3642 95.2722 53.3507 95.2774 53.3381C95.2827 53.3256 95.2903 53.3142 95.3 53.3045C96.0178 52.7666 96.7726 52.2798 97.5587 51.8476C97.7793 51.7607 98.0188 51.7333 98.2534 51.7681C98.4879 51.8029 98.7091 51.8987 98.895 52.0459C98.9167 52.0641 98.9303 52.0903 98.9327 52.1186C98.9351 52.1469 98.9262 52.175 98.9079 52.1967C98.8896 52.2184 98.8635 52.232 98.8352 52.2344C98.8069 52.2369 98.7788 52.2279 98.7571 52.2097C98.6038 52.0846 98.4199 52.0027 98.2244 51.9724C98.0289 51.9421 97.8289 51.9645 97.6449 52.0372C96.8784 52.4539 96.1436 52.9264 95.4465 53.4511C95.4315 53.4575 95.4154 53.4608 95.3991 53.4608C95.3828 53.4608 95.3667 53.4575 95.3517 53.4511Z" fill="#AD553A"/>
<path d="M94.5154 25.3893C94.5224 24.608 94.6178 23.83 94.7999 23.0702L90.9635 20.9062C90.9635 20.9062 90.8256 21.8718 90.6445 22.9495C91.6959 24.0913 93.0318 24.9333 94.5154 25.3893Z" fill="#AD553A"/>
<path d="M96.8599 14.1816C96.8599 14.1816 99.0928 19.863 96.2909 23.5356C96.2909 23.5356 93.058 24.4581 90.0664 20.6303C90.648 20.1497 91.127 19.557 91.4751 18.8876C91.8231 18.2182 92.033 17.4857 92.0924 16.7335C92.0924 16.7335 95.5581 16.7421 96.8599 14.1816Z" fill="#E28B5A"/>
<path d="M97.0429 21.9495C96.8734 22.0334 96.685 22.0719 96.4961 22.0613C96.3073 22.0507 96.1244 21.9914 95.9653 21.8891C95.6949 21.6905 95.4589 21.4488 95.267 21.1736C95.1807 21.0701 95.0342 21.1736 95.1118 21.3029C95.3499 21.6565 95.6653 21.9513 96.0342 22.165C96.2065 22.2418 96.3931 22.2815 96.5817 22.2815C96.7703 22.2815 96.9568 22.2418 97.1291 22.165C97.2412 22.0788 97.155 21.9064 97.0429 21.9495Z" fill="#E05A48"/>
<path d="M97.6891 18.475C97.5167 18.5698 97.1028 20.6217 97.5856 20.9062C98.0684 21.1907 99.0512 20.682 98.9219 20.3889C98.7926 20.0958 98.1891 20.2854 98.0598 19.7854C97.9305 19.2854 97.8529 18.3974 97.6891 18.475Z" fill="#AD553A"/>
<path d="M93.885 18.7595C93.7308 18.8339 93.6124 18.9665 93.5558 19.1281C93.4993 19.2897 93.5091 19.4672 93.5832 19.6216C93.6391 19.734 93.7268 19.8274 93.8355 19.8901C93.9442 19.9529 94.069 19.9822 94.1942 19.9744C94.3195 19.9666 94.4397 19.922 94.5397 19.8462C94.6398 19.7705 94.7152 19.6669 94.7567 19.5484C94.7982 19.43 94.8038 19.3019 94.7728 19.1803C94.7418 19.0587 94.6757 18.9489 94.5826 18.8647C94.4896 18.7805 94.3738 18.7256 94.2497 18.7068C94.1256 18.6881 93.9987 18.7064 93.885 18.7595Z" fill="#E05A48"/>
<path d="M95.9562 16.7941C95.8113 16.7939 95.6693 16.8351 95.547 16.913C95.4248 16.991 95.3275 17.1023 95.2665 17.2338C95.2062 17.3286 95.051 17.2338 95.1113 17.1303C95.1913 16.9713 95.3148 16.8383 95.4674 16.7467C95.62 16.6551 95.7955 16.6088 95.9735 16.6131C95.9928 16.6191 96.0096 16.6311 96.0216 16.6474C96.0336 16.6637 96.04 16.6834 96.04 16.7036C96.04 16.7238 96.0336 16.7435 96.0216 16.7598C96.0096 16.7761 95.9928 16.7881 95.9735 16.7941H95.9562Z" fill="#7B3221"/>
<path d="M96.3338 18.5526C96.3338 18.8285 96.2131 19.0612 96.0493 19.0612C95.8855 19.0612 95.7734 18.8285 95.7734 18.5526C95.7734 18.2767 95.8941 18.0439 96.0493 18.0439C96.2045 18.0439 96.3338 18.2681 96.3338 18.5526Z" fill="#222221"/>
<path d="M91.1194 21.4927C90.869 21.614 90.5882 21.6582 90.3127 21.6198C90.0371 21.5813 89.7791 21.462 89.5715 21.2768C89.3638 21.0916 89.2158 20.8489 89.1462 20.5795C89.0766 20.3101 89.0886 20.0261 89.1806 19.7635C89.2725 19.5009 89.4404 19.2715 89.6628 19.1044C89.8853 18.9373 90.1524 18.84 90.4302 18.8248C90.708 18.8097 90.9841 18.8773 91.2235 19.0192C91.4628 19.1611 91.6546 19.3709 91.7746 19.6219C91.8551 19.7876 91.902 19.9677 91.9126 20.1516C91.9233 20.3356 91.8974 20.5198 91.8365 20.6937C91.7756 20.8676 91.6808 21.0277 91.5578 21.1648C91.4347 21.302 91.2857 21.4134 91.1194 21.4927Z" fill="#E28B5A"/>
<path d="M91.0498 20.1132C90.9021 19.9444 90.7187 19.8105 90.513 19.721C90.3073 19.6316 90.0843 19.5889 89.8601 19.596C89.8428 19.6016 89.8278 19.6126 89.8172 19.6273C89.8065 19.642 89.8008 19.6597 89.8008 19.6779C89.8008 19.696 89.8065 19.7137 89.8172 19.7284C89.8278 19.7431 89.8428 19.7541 89.8601 19.7598C90.1964 19.7723 90.5211 19.8865 90.7912 20.0874C90.5843 20.1305 90.317 20.2253 90.2998 20.4495C90.2825 20.6736 90.5843 20.9409 90.8774 20.9236C90.8774 20.9236 90.955 21.1133 91.0153 21.0185C91.1045 20.8856 91.1549 20.7306 91.161 20.5708C91.1671 20.4109 91.1286 20.2525 91.0498 20.1132ZM90.886 20.7512C90.8247 20.7667 90.7609 20.7694 90.6986 20.759C90.6363 20.7486 90.5768 20.7254 90.5239 20.6909C90.4749 20.6576 90.441 20.6063 90.4297 20.5481C90.4184 20.49 90.4306 20.4297 90.4636 20.3805C90.583 20.2889 90.7271 20.2348 90.8774 20.2253C90.9212 20.3076 90.944 20.3994 90.944 20.4926C90.944 20.5858 90.9212 20.6776 90.8774 20.7598L90.886 20.7512Z" fill="#AD553A"/>
<path d="M85.8599 32.1741C85.3737 32.9075 84.9498 33.6804 84.5925 34.4846C84.3167 35.3467 85.3426 38.7176 85.3426 38.7176C85.3426 38.7176 85.2822 47.3905 84.4805 49.9251C84.4805 49.9251 86.6185 55.1495 89.4377 57.5548C89.4377 57.5548 93.6189 51.5976 98.352 50.7958C98.352 50.7958 98.352 49.6147 96.8174 47.1749C95.0932 45.4507 95.688 40.8556 97.1019 39.14L97.4898 35.4243C97.1112 34.3998 96.4508 33.5032 95.5846 32.8379C94.3862 32.1482 89.7739 34.4846 89.7739 34.4846C89.7739 34.4846 87.2996 32.0361 85.8599 32.1741Z" fill="#44BFC6"/>
<path d="M86.4703 46.5542C87.9275 44.9163 89.197 43.1205 90.255 41.2004C90.6343 40.5021 91.643 39.0796 90.9878 38.2778C90.3326 37.4761 88.798 37.2605 87.9359 36.8036C86.7187 36.1571 85.5913 35.3543 84.5823 34.4155C84.3064 35.2776 85.3323 38.6485 85.3323 38.6485C85.3323 38.6485 85.3323 44.5713 84.8237 48.0629C85.4041 47.5955 85.9541 47.0916 86.4703 46.5542Z" fill="#63D6D6"/>
<path d="M66.7134 104.221C66.6108 104.221 66.5092 104.201 66.4145 104.161C66.3198 104.122 66.2339 104.064 66.1617 103.991C66.0896 103.918 66.0326 103.831 65.9941 103.736C65.9556 103.641 65.9364 103.539 65.9375 103.437V6.89674C65.9578 6.70395 66.0488 6.5255 66.1929 6.39581C66.3369 6.26611 66.5239 6.19434 66.7178 6.19434C66.9116 6.19434 67.0986 6.26611 67.2427 6.39581C67.3867 6.5255 67.4777 6.70395 67.498 6.89674V103.454C67.4935 103.659 67.4088 103.854 67.2622 103.998C67.1155 104.141 66.9186 104.221 66.7134 104.221Z" fill="#7B3221"/>
<path d="M68.6091 7.09542H64.8158C64.6077 7.09542 64.4082 7.01277 64.261 6.86564C64.1139 6.71851 64.0312 6.51897 64.0312 6.3109C64.0312 6.10283 64.1139 5.90328 64.261 5.75615C64.4082 5.60902 64.6077 5.52637 64.8158 5.52637H68.6091C68.8172 5.52637 69.0167 5.60902 69.1638 5.75615C69.311 5.90328 69.3936 6.10283 69.3936 6.3109C69.3936 6.51897 69.311 6.71851 69.1638 6.86564C69.0167 7.01277 68.8172 7.09542 68.6091 7.09542Z" fill="#7B3221"/>
<path d="M66.7121 122.705C63.2637 122.705 59.5824 119.972 59.8152 114.946C60.048 109.92 63.2637 94.5225 66.7121 94.5225C70.1606 94.5225 73.3935 109.937 73.6091 114.946C73.8246 119.955 70.1865 122.705 66.7121 122.705Z" fill="#44BFC6"/>
<path d="M66.7123 115.817C66.6606 115.817 66.6094 115.807 66.5618 115.787C66.5141 115.767 66.471 115.737 66.4348 115.701C66.3987 115.664 66.3703 115.62 66.3513 115.572C66.3324 115.524 66.3232 115.472 66.3243 115.421V96.6609C66.3243 96.558 66.3652 96.4593 66.4379 96.3866C66.5107 96.3138 66.6094 96.2729 66.7123 96.2729C66.816 96.2729 66.9156 96.3135 66.9897 96.386C67.0638 96.4586 67.1066 96.5572 67.1088 96.6609V115.421C67.1088 115.526 67.0671 115.627 66.9927 115.701C66.9183 115.775 66.8174 115.817 66.7123 115.817Z" fill="#63D6D6"/>
<path d="M64.9257 24.2685C64.5118 24.7858 65.167 26.9928 65.874 27.7946C65.9825 27.5162 66.1152 27.2479 66.2706 26.9928C66.3999 26.8376 67.7879 26.691 67.8913 26.5445C68.1758 26.1479 67.7275 25.7427 66.7706 25.8117C66.7706 25.8117 67.9862 25.553 68.0207 25.1996C68.0551 24.8461 67.5034 24.5616 66.2964 24.7513C66.2964 24.7513 66.1499 24.3806 66.3568 24.2254C66.5637 24.0702 67.5293 23.7598 67.4344 23.3115C67.3396 22.8632 65.7188 23.2771 64.9257 24.2685Z" fill="#E28B5A"/>
<path d="M66.9118 24.6911C66.9118 24.6394 66.9118 24.6049 66.8084 24.5963C66.499 24.594 66.1923 24.6538 65.9064 24.7723C65.6206 24.8908 65.3615 25.0654 65.1445 25.2859C65.1269 25.3063 65.1172 25.3323 65.1172 25.3592C65.1172 25.3861 65.1269 25.4121 65.1445 25.4325H65.2134C65.2383 25.4426 65.2661 25.4426 65.291 25.4325C65.4886 25.2346 65.724 25.0784 65.9832 24.9732C66.2424 24.8681 66.5201 24.8161 66.7997 24.8204C66.8165 24.8224 66.8335 24.8202 66.8492 24.8141C66.8649 24.808 66.879 24.7982 66.89 24.7854C66.9011 24.7727 66.9088 24.7574 66.9126 24.741C66.9164 24.7245 66.9161 24.7074 66.9118 24.6911Z" fill="#AD553A"/>
<path d="M67.0464 25.6998C66.7445 25.6799 66.4422 25.7339 66.1658 25.8571C65.8894 25.9802 65.6472 26.1689 65.4601 26.4068C65.4505 26.4164 65.4428 26.4278 65.4376 26.4404C65.4324 26.453 65.4297 26.4664 65.4297 26.4801C65.4297 26.4937 65.4324 26.5072 65.4376 26.5197C65.4428 26.5323 65.4505 26.5437 65.4601 26.5533H65.5205C65.5373 26.5537 65.5539 26.5499 65.5689 26.5424C65.5839 26.5349 65.5969 26.5239 65.6067 26.5102C65.777 26.3052 65.9925 26.1424 66.2364 26.0347C66.4802 25.927 66.7457 25.8773 67.0119 25.8895C67.025 25.892 67.0385 25.8916 67.0515 25.8885C67.0645 25.8854 67.0767 25.8796 67.0872 25.8715C67.0978 25.8633 67.1066 25.8531 67.1129 25.8413C67.1192 25.8296 67.123 25.8166 67.124 25.8033C67.1247 25.7798 67.1175 25.7568 67.1034 25.738C67.0893 25.7191 67.0692 25.7057 67.0464 25.6998Z" fill="#AD553A"/>
</g>
<defs>
<clipPath id="clip0_629_2114">
<rect width="170.51" height="150" fill="white"/>
</clipPath>
</defs>
</svg>
