<svg width="170" height="150" viewBox="0 0 170 150" fill="none" xmlns="http://www.w3.org/2000/svg">
<path d="M15.582 114.259C15.582 152.034 151.957 152.034 151.957 114.259C151.957 76.4827 121.426 0 83.7694 0C46.1129 0 15.582 76.4914 15.582 114.259Z" fill="#DCF2F4"/>
<path d="M2.80876 122.914C-5.64912 126.543 5.38738 134.12 30.6235 134.276C30.6235 134.276 7.51045 143.758 29.3514 147.31C51.1923 150.862 118.804 150.896 140.645 147.31C162.486 143.724 139.364 134.276 139.364 134.276C164.635 134.086 175.637 126.517 167.187 122.914C156.263 118.233 13.7507 118.233 2.80876 122.914Z" fill="#F29316"/>
<path d="M135.738 138.578C135.852 138.578 135.962 138.623 136.042 138.704C136.123 138.785 136.168 138.894 136.168 139.009C136.168 139.123 136.123 139.233 136.042 139.313C135.962 139.394 135.852 139.44 135.738 139.44C135.624 139.44 135.515 139.394 135.434 139.313C135.354 139.233 135.309 139.123 135.309 139.009C135.309 138.894 135.354 138.785 135.434 138.704C135.515 138.623 135.624 138.578 135.738 138.578Z" fill="#DD8317"/>
<path d="M130.236 140.621C130.313 140.543 130.419 140.5 130.528 140.5C130.638 140.5 130.743 140.543 130.82 140.621C130.898 140.699 130.941 140.804 130.941 140.914C130.941 141.024 130.898 141.129 130.82 141.207C130.726 141.302 130.631 141.388 130.545 141.483C130.468 141.561 130.363 141.604 130.253 141.604C130.144 141.604 130.038 141.561 129.961 141.483C129.883 141.405 129.84 141.3 129.84 141.19C129.84 141.08 129.883 140.975 129.961 140.897C130.055 140.811 130.141 140.716 130.236 140.621Z" fill="#DD8317"/>
<path d="M140.961 141.328C141.075 141.328 141.184 141.373 141.265 141.454C141.346 141.535 141.391 141.644 141.391 141.759C141.391 141.873 141.346 141.983 141.265 142.063C141.184 142.144 141.075 142.19 140.961 142.19C140.847 142.19 140.738 142.144 140.657 142.063C140.577 141.983 140.531 141.873 140.531 141.759C140.531 141.644 140.577 141.535 140.657 141.454C140.738 141.373 140.847 141.328 140.961 141.328Z" fill="#DD8317"/>
<path d="M135.188 140.776H135.463C135.577 140.776 135.686 140.821 135.767 140.902C135.847 140.983 135.892 141.093 135.892 141.207C135.892 141.321 135.847 141.431 135.767 141.512C135.686 141.593 135.577 141.638 135.463 141.638H135.188C135.074 141.638 134.964 141.593 134.884 141.512C134.803 141.431 134.758 141.321 134.758 141.207C134.758 141.093 134.803 140.983 134.884 140.902C134.964 140.821 135.074 140.776 135.188 140.776Z" fill="#DD8317"/>
<path d="M140.961 144.354C141.075 144.354 141.184 144.399 141.265 144.48C141.346 144.561 141.391 144.67 141.391 144.785C141.391 144.899 141.346 145.009 141.265 145.089C141.184 145.17 141.075 145.216 140.961 145.216C140.847 145.216 140.738 145.17 140.657 145.089C140.577 145.009 140.531 144.899 140.531 144.785C140.531 144.67 140.577 144.561 140.657 144.48C140.738 144.399 140.847 144.354 140.961 144.354Z" fill="#DD8317"/>
<path d="M128.602 143.802C128.716 143.802 128.825 143.847 128.906 143.928C128.986 144.009 129.031 144.118 129.031 144.233C129.031 144.347 128.986 144.457 128.906 144.538C128.825 144.618 128.716 144.664 128.602 144.664C128.488 144.664 128.378 144.618 128.298 144.538C128.217 144.457 128.172 144.347 128.172 144.233C128.172 144.118 128.217 144.009 128.298 143.928C128.378 143.847 128.488 143.802 128.602 143.802Z" fill="#DD8317"/>
<path d="M117.645 143.526H117.92C118.034 143.526 118.143 143.571 118.224 143.652C118.304 143.733 118.349 143.843 118.349 143.957C118.349 144.071 118.304 144.181 118.224 144.262C118.143 144.343 118.034 144.388 117.92 144.388H117.645C117.531 144.388 117.421 144.343 117.341 144.262C117.26 144.181 117.215 144.071 117.215 143.957C117.215 143.843 117.26 143.733 117.341 143.652C117.421 143.571 117.531 143.526 117.645 143.526Z" fill="#DD8317"/>
<path d="M133.227 144.629H133.502C133.616 144.629 133.725 144.675 133.806 144.756C133.886 144.836 133.931 144.946 133.931 145.06C133.931 145.175 133.886 145.284 133.806 145.365C133.725 145.446 133.616 145.491 133.502 145.491H133.227C133.113 145.491 133.003 145.446 132.923 145.365C132.842 145.284 132.797 145.175 132.797 145.06C132.797 144.946 132.842 144.836 132.923 144.756C133.003 144.675 133.113 144.629 133.227 144.629Z" fill="#DD8317"/>
<path d="M124.836 143.802H125.042C125.156 143.802 125.266 143.847 125.346 143.928C125.427 144.009 125.472 144.118 125.472 144.233C125.472 144.347 125.427 144.457 125.346 144.538C125.266 144.618 125.156 144.664 125.042 144.664H124.836C124.722 144.664 124.613 144.618 124.532 144.538C124.452 144.457 124.406 144.347 124.406 144.233C124.406 144.118 124.452 144.009 124.532 143.928C124.613 143.847 124.722 143.802 124.836 143.802Z" fill="#DD8317"/>
<path d="M128.328 136.931C128.442 136.931 128.551 136.977 128.632 137.057C128.713 137.138 128.758 137.248 128.758 137.362C128.758 137.477 128.713 137.586 128.632 137.667C128.551 137.748 128.442 137.793 128.328 137.793C128.214 137.793 128.105 137.748 128.024 137.667C127.944 137.586 127.898 137.477 127.898 137.362C127.898 137.248 127.944 137.138 128.024 137.057C128.105 136.977 128.214 136.931 128.328 136.931Z" fill="#DD8317"/>
<path d="M138.61 138.716V138.991C138.595 139.09 138.546 139.18 138.471 139.245C138.396 139.31 138.3 139.346 138.201 139.346C138.102 139.346 138.006 139.31 137.931 139.245C137.856 139.18 137.807 139.09 137.793 138.991V138.716C137.807 138.617 137.856 138.527 137.931 138.462C138.006 138.397 138.102 138.361 138.201 138.361C138.3 138.361 138.396 138.397 138.471 138.462C138.546 138.527 138.595 138.617 138.61 138.716Z" fill="#DD8317"/>
<path d="M146.422 140.233C146.536 140.233 146.645 140.278 146.726 140.359C146.806 140.44 146.852 140.55 146.852 140.664C146.852 140.778 146.806 140.888 146.726 140.969C146.645 141.05 146.536 141.095 146.422 141.095C146.308 141.095 146.199 141.05 146.118 140.969C146.037 140.888 145.992 140.778 145.992 140.664C145.992 140.55 146.037 140.44 146.118 140.359C146.199 140.278 146.308 140.233 146.422 140.233Z" fill="#DD8317"/>
<path d="M138.317 141.914C138.405 141.88 138.501 141.877 138.591 141.905C138.681 141.933 138.758 141.992 138.81 142.07C138.862 142.148 138.886 142.242 138.878 142.336C138.869 142.43 138.829 142.518 138.764 142.586C138.601 142.75 138.395 142.966 138.128 142.897C137.862 142.828 137.793 142.543 137.793 142.293C137.792 142.23 137.807 142.167 137.835 142.11C137.864 142.053 137.906 142.004 137.957 141.967C138.008 141.93 138.068 141.906 138.131 141.896C138.193 141.887 138.257 141.893 138.317 141.914Z" fill="#DD8317"/>
<path d="M143.137 138.302C143.251 138.302 143.36 138.347 143.441 138.428C143.521 138.509 143.567 138.618 143.567 138.733C143.567 138.847 143.521 138.957 143.441 139.038C143.36 139.118 143.251 139.164 143.137 139.164C143.023 139.164 142.914 139.118 142.833 139.038C142.752 138.957 142.707 138.847 142.707 138.733C142.707 138.618 142.752 138.509 142.833 138.428C142.914 138.347 143.023 138.302 143.137 138.302Z" fill="#DD8317"/>
<path d="M137.652 133.621C137.766 133.621 137.876 133.666 137.956 133.747C138.037 133.828 138.082 133.937 138.082 134.052C138.082 134.166 138.037 134.276 137.956 134.356C137.876 134.437 137.766 134.483 137.652 134.483C137.538 134.483 137.429 134.437 137.349 134.356C137.268 134.276 137.223 134.166 137.223 134.052C137.223 133.937 137.268 133.828 137.349 133.747C137.429 133.666 137.538 133.621 137.652 133.621Z" fill="#DD8317"/>
<path d="M129.977 134.483C130.091 134.483 130.2 134.528 130.281 134.609C130.361 134.69 130.406 134.8 130.406 134.914C130.406 135.028 130.361 135.138 130.281 135.219C130.2 135.3 130.091 135.345 129.977 135.345C129.863 135.345 129.753 135.3 129.673 135.219C129.592 135.138 129.547 135.028 129.547 134.914C129.547 134.8 129.592 134.69 129.673 134.609C129.753 134.528 129.863 134.483 129.977 134.483Z" fill="#DD8317"/>
<path d="M132.994 132.535C133.092 132.549 133.182 132.598 133.246 132.673C133.311 132.749 133.347 132.845 133.347 132.944C133.347 133.044 133.311 133.14 133.246 133.215C133.182 133.29 133.092 133.339 132.994 133.354C132.896 133.339 132.806 133.29 132.741 133.215C132.676 133.14 132.641 133.044 132.641 132.944C132.641 132.845 132.676 132.749 132.741 132.673C132.806 132.598 132.896 132.549 132.994 132.535Z" fill="#DD8317"/>
<path d="M141.762 127.854C141.876 127.854 141.985 127.899 142.066 127.98C142.146 128.061 142.192 128.17 142.192 128.285C142.192 128.399 142.146 128.509 142.066 128.589C141.985 128.67 141.876 128.716 141.762 128.716C141.648 128.716 141.539 128.67 141.458 128.589C141.377 128.509 141.332 128.399 141.332 128.285C141.332 128.17 141.377 128.061 141.458 127.98C141.539 127.899 141.648 127.854 141.762 127.854Z" fill="#DD8317"/>
<path d="M162.873 127.035C162.971 127.049 163.06 127.098 163.125 127.173C163.19 127.249 163.226 127.345 163.226 127.444C163.226 127.544 163.19 127.64 163.125 127.715C163.06 127.79 162.971 127.839 162.873 127.854C162.775 127.839 162.685 127.79 162.62 127.715C162.555 127.64 162.52 127.544 162.52 127.444C162.52 127.345 162.555 127.249 162.62 127.173C162.685 127.098 162.775 127.049 162.873 127.035Z" fill="#DD8317"/>
<path d="M158.903 126.069V126.345C158.903 126.459 158.857 126.569 158.777 126.649C158.696 126.73 158.587 126.776 158.473 126.776C158.359 126.776 158.249 126.73 158.169 126.649C158.088 126.569 158.043 126.459 158.043 126.345V126.069C158.043 125.954 158.088 125.845 158.169 125.764C158.249 125.683 158.359 125.638 158.473 125.638C158.587 125.638 158.696 125.683 158.777 125.764C158.857 125.845 158.903 125.954 158.903 126.069Z" fill="#DD8317"/>
<path d="M151.09 128.957H151.356C151.47 128.957 151.58 129.002 151.66 129.083C151.741 129.164 151.786 129.274 151.786 129.388C151.786 129.502 151.741 129.612 151.66 129.693C151.58 129.774 151.47 129.819 151.356 129.819H151.09C150.976 129.819 150.867 129.774 150.786 129.693C150.705 129.612 150.66 129.502 150.66 129.388C150.66 129.274 150.705 129.164 150.786 129.083C150.867 129.002 150.976 128.957 151.09 128.957Z" fill="#DD8317"/>
<path d="M159.012 128.129H159.278C159.392 128.129 159.502 128.175 159.582 128.256C159.663 128.336 159.708 128.446 159.708 128.56C159.708 128.675 159.663 128.784 159.582 128.865C159.502 128.946 159.392 128.991 159.278 128.991H159.012C158.898 128.991 158.789 128.946 158.708 128.865C158.627 128.784 158.582 128.675 158.582 128.56C158.582 128.446 158.627 128.336 158.708 128.256C158.789 128.175 158.898 128.129 159.012 128.129Z" fill="#DD8317"/>
<path d="M144.231 126.724H144.506C144.62 126.724 144.729 126.77 144.809 126.85C144.89 126.931 144.935 127.041 144.935 127.155C144.935 127.269 144.89 127.379 144.809 127.46C144.729 127.541 144.62 127.586 144.506 127.586H144.231C144.117 127.586 144.007 127.541 143.927 127.46C143.846 127.379 143.801 127.269 143.801 127.155C143.801 127.041 143.846 126.931 143.927 126.85C144.007 126.77 144.117 126.724 144.231 126.724Z" fill="#DD8317"/>
<path d="M122.301 131.431H122.576C122.69 131.431 122.799 131.477 122.88 131.557C122.96 131.638 123.006 131.748 123.006 131.862C123.006 131.977 122.96 132.086 122.88 132.167C122.799 132.248 122.69 132.293 122.576 132.293H122.301C122.187 132.293 122.078 132.248 121.997 132.167C121.916 132.086 121.871 131.977 121.871 131.862C121.871 131.748 121.916 131.638 121.997 131.557C122.078 131.477 122.187 131.431 122.301 131.431Z" fill="#DD8317"/>
<path d="M120.926 140.776C121.04 140.776 121.149 140.821 121.23 140.902C121.31 140.983 121.356 141.093 121.356 141.207C121.356 141.321 121.31 141.431 121.23 141.512C121.149 141.593 121.04 141.638 120.926 141.638C120.812 141.638 120.703 141.593 120.622 141.512C120.541 141.431 120.496 141.321 120.496 141.207C120.496 141.093 120.541 140.983 120.622 140.902C120.703 140.821 120.812 140.776 120.926 140.776Z" fill="#DD8317"/>
<path d="M112.434 144.078C112.548 144.078 112.657 144.123 112.738 144.204C112.818 144.285 112.863 144.394 112.863 144.509C112.863 144.623 112.818 144.733 112.738 144.813C112.657 144.894 112.548 144.94 112.434 144.94C112.32 144.94 112.21 144.894 112.13 144.813C112.049 144.733 112.004 144.623 112.004 144.509C112.004 144.394 112.049 144.285 112.13 144.204C112.21 144.123 112.32 144.078 112.434 144.078Z" fill="#DD8317"/>
<path d="M98.7266 145.689C98.8406 145.689 98.9499 145.735 99.0305 145.816C99.1111 145.897 99.1564 146.006 99.1564 146.12C99.1564 146.235 99.1111 146.344 99.0305 146.425C98.9499 146.506 98.8406 146.552 98.7266 146.552C98.6127 146.552 98.5033 146.506 98.4228 146.425C98.3422 146.344 98.2969 146.235 98.2969 146.12C98.2969 146.006 98.3422 145.897 98.4228 145.816C98.5033 145.735 98.6127 145.689 98.7266 145.689Z" fill="#DD8317"/>
<path d="M82.5157 145.181C82.6297 145.181 82.739 145.227 82.8196 145.307C82.9002 145.388 82.9455 145.498 82.9455 145.612C82.9455 145.727 82.9002 145.836 82.8196 145.917C82.739 145.998 82.6297 146.043 82.5157 146.043C82.4017 146.043 82.2924 145.998 82.2118 145.917C82.1312 145.836 82.0859 145.727 82.0859 145.612C82.0859 145.498 82.1312 145.388 82.2118 145.307C82.2924 145.227 82.4017 145.181 82.5157 145.181Z" fill="#DD8317"/>
<path d="M68.5704 145.181C68.6844 145.181 68.7937 145.227 68.8743 145.307C68.9549 145.388 69.0002 145.498 69.0002 145.612C69.0002 145.727 68.9549 145.836 68.8743 145.917C68.7937 145.998 68.6844 146.043 68.5704 146.043C68.4564 146.043 68.3471 145.998 68.2665 145.917C68.1859 145.836 68.1406 145.727 68.1406 145.612C68.1406 145.498 68.1859 145.388 68.2665 145.307C68.3471 145.227 68.4564 145.181 68.5704 145.181Z" fill="#DD8317"/>
<path d="M32.9352 139.655H33.2103C33.3084 139.67 33.398 139.719 33.4629 139.794C33.5278 139.869 33.5635 139.965 33.5635 140.065C33.5635 140.164 33.5278 140.26 33.4629 140.335C33.398 140.411 33.3084 140.46 33.2103 140.474H32.9352C32.8371 140.46 32.7474 140.411 32.6826 140.335C32.6177 140.26 32.582 140.164 32.582 140.065C32.582 139.965 32.6177 139.869 32.6826 139.794C32.7474 139.719 32.8371 139.67 32.9352 139.655Z" fill="#DD8317"/>
<path d="M43.0782 139.957C43.1922 139.957 43.3015 140.002 43.3821 140.083C43.4627 140.164 43.508 140.274 43.508 140.388C43.508 140.502 43.4627 140.612 43.3821 140.693C43.3015 140.774 43.1922 140.819 43.0782 140.819C42.9642 140.819 42.8549 140.774 42.7743 140.693C42.6937 140.612 42.6484 140.502 42.6484 140.388C42.6484 140.274 42.6937 140.164 42.7743 140.083C42.8549 140.002 42.9642 139.957 43.0782 139.957Z" fill="#DD8317"/>
<path d="M41.9766 145.181H42.2517C42.3657 145.181 42.475 145.227 42.5556 145.307C42.6362 145.388 42.6815 145.498 42.6815 145.612C42.6815 145.727 42.6362 145.836 42.5556 145.917C42.475 145.998 42.3657 146.043 42.2517 146.043H41.9766C41.8627 146.043 41.7533 145.998 41.6728 145.917C41.5922 145.836 41.5469 145.727 41.5469 145.612C41.5469 145.498 41.5922 145.388 41.6728 145.307C41.7533 145.227 41.8627 145.181 41.9766 145.181Z" fill="#DD8317"/>
<path d="M34.8359 141.724L35.1109 141.448C35.1885 141.37 35.2936 141.327 35.4032 141.327C35.5128 141.327 35.6179 141.37 35.6954 141.448C35.7729 141.526 35.8165 141.631 35.8165 141.741C35.8165 141.851 35.7729 141.957 35.6954 142.034L35.4204 142.31C35.3429 142.388 35.2378 142.432 35.1281 142.432C35.0185 142.432 34.9134 142.388 34.8359 142.31C34.7584 142.232 34.7148 142.127 34.7148 142.017C34.7148 141.907 34.7584 141.802 34.8359 141.724Z" fill="#DD8317"/>
<path d="M45.8204 143.802C45.9344 143.802 46.0437 143.847 46.1243 143.928C46.2049 144.009 46.2502 144.118 46.2502 144.233C46.2502 144.347 46.2049 144.457 46.1243 144.538C46.0437 144.618 45.9344 144.664 45.8204 144.664C45.7064 144.664 45.5971 144.618 45.5165 144.538C45.4359 144.457 45.3906 144.347 45.3906 144.233C45.3906 144.118 45.4359 144.009 45.5165 143.928C45.5971 143.847 45.7064 143.802 45.8204 143.802Z" fill="#DD8317"/>
<path d="M50.2032 145.457H50.4783C50.5922 145.457 50.7016 145.502 50.7822 145.583C50.8628 145.664 50.908 145.774 50.908 145.888C50.908 146.002 50.8628 146.112 50.7822 146.193C50.7016 146.274 50.5922 146.319 50.4783 146.319H50.2032C50.0892 146.319 49.9799 146.274 49.8993 146.193C49.8187 146.112 49.7734 146.002 49.7734 145.888C49.7734 145.774 49.8187 145.664 49.8993 145.583C49.9799 145.502 50.0892 145.457 50.2032 145.457Z" fill="#DD8317"/>
<path d="M32.9352 144.905C33.0333 144.92 33.123 144.969 33.1879 145.044C33.2527 145.119 33.2884 145.215 33.2884 145.315C33.2884 145.414 33.2527 145.51 33.1879 145.585C33.123 145.661 33.0333 145.71 32.9352 145.724C32.8371 145.71 32.7474 145.661 32.6826 145.585C32.6177 145.51 32.582 145.414 32.582 145.315C32.582 145.215 32.6177 145.119 32.6826 145.044C32.7474 144.969 32.8371 144.92 32.9352 144.905Z" fill="#DD8317"/>
<path d="M42.8048 143.526C42.9188 143.526 43.0281 143.571 43.1087 143.652C43.1893 143.733 43.2345 143.843 43.2345 143.957C43.2345 144.071 43.1893 144.181 43.1087 144.262C43.0281 144.343 42.9188 144.388 42.8048 144.388C42.6908 144.388 42.5815 144.343 42.5009 144.262C42.4203 144.181 42.375 144.071 42.375 143.957C42.375 143.843 42.4203 143.733 42.5009 143.652C42.5815 143.571 42.6908 143.526 42.8048 143.526Z" fill="#DD8317"/>
<path d="M37.1575 139.974C37.2464 140.007 37.3215 140.069 37.3702 140.15C37.419 140.231 37.4385 140.327 37.4254 140.421C37.4123 140.514 37.3674 140.601 37.2983 140.666C37.2293 140.73 37.1401 140.769 37.0458 140.776C36.9533 140.791 36.8586 140.783 36.7695 140.754C36.6803 140.725 36.5993 140.676 36.5331 140.609C36.4668 140.543 36.4172 140.462 36.3883 140.372C36.3594 140.283 36.352 140.188 36.3668 140.095C36.3659 139.997 36.4001 139.903 36.4631 139.829C36.5261 139.754 36.6138 139.705 36.71 139.691C36.8061 139.676 36.9043 139.697 36.9865 139.749C37.0688 139.801 37.1295 139.881 37.1575 139.974Z" fill="#DD8317"/>
<path d="M42.3908 136.793V137.069C42.3908 137.184 42.3455 137.293 42.2649 137.374C42.1843 137.455 42.075 137.5 41.961 137.5C41.847 137.5 41.7377 137.455 41.6571 137.374C41.5765 137.293 41.5312 137.184 41.5312 137.069V136.793C41.5312 136.679 41.5765 136.569 41.6571 136.489C41.7377 136.408 41.847 136.362 41.961 136.362C42.075 136.362 42.1843 136.408 42.2649 136.489C42.3455 136.569 42.3908 136.679 42.3908 136.793Z" fill="#DD8317"/>
<path d="M33.211 131.707C33.097 131.707 32.9877 131.661 32.9071 131.581C32.8265 131.5 32.7812 131.39 32.7812 131.276C32.7812 131.161 32.8265 131.052 32.9071 130.971C32.9877 130.89 33.097 130.845 33.211 130.845C33.325 130.845 33.4343 130.89 33.5149 130.971C33.5955 131.052 33.6408 131.161 33.6408 131.276C33.6408 131.39 33.5955 131.5 33.5149 131.581C33.4343 131.661 33.325 131.707 33.211 131.707Z" fill="#DD8317"/>
<path d="M29.2244 130.672C29.4823 130.56 29.8175 130.672 29.7745 131.017C29.6714 131.802 28.7775 131.802 28.6743 131.017C28.6399 130.672 28.9752 130.56 29.2244 130.672Z" fill="#DD8317"/>
<path d="M18.6837 129.233H18.9501C19.0641 129.233 19.1734 129.278 19.254 129.359C19.3346 129.44 19.3799 129.55 19.3799 129.664C19.3799 129.778 19.3346 129.888 19.254 129.969C19.1734 130.05 19.0641 130.095 18.9501 130.095H18.6837C18.5697 130.095 18.4604 130.05 18.3798 129.969C18.2992 129.888 18.2539 129.778 18.2539 129.664C18.2539 129.55 18.2992 129.44 18.3798 129.359C18.4604 129.278 18.5697 129.233 18.6837 129.233Z" fill="#DD8317"/>
<path d="M9.91024 126.483C10.0242 126.483 10.1335 126.528 10.2141 126.609C10.2947 126.69 10.34 126.8 10.34 126.914C10.34 127.028 10.2947 127.138 10.2141 127.219C10.1335 127.3 10.0242 127.345 9.91024 127.345C9.79626 127.345 9.68694 127.3 9.60635 127.219C9.52575 127.138 9.48047 127.028 9.48047 126.914C9.48047 126.8 9.52575 126.69 9.60635 126.609C9.68694 126.528 9.79626 126.483 9.91024 126.483Z" fill="#DD8317"/>
<path d="M24.4352 127.035C24.5333 127.049 24.623 127.098 24.6879 127.173C24.7527 127.249 24.7884 127.345 24.7884 127.444C24.7884 127.544 24.7527 127.64 24.6879 127.715C24.623 127.79 24.5333 127.839 24.4352 127.854C24.3371 127.839 24.2474 127.79 24.1826 127.715C24.1177 127.64 24.082 127.544 24.082 127.444C24.082 127.345 24.1177 127.249 24.1826 127.173C24.2474 127.098 24.3371 127.049 24.4352 127.035Z" fill="#DD8317"/>
<path d="M25.5352 130.604C25.6492 130.604 25.7585 130.649 25.8391 130.73C25.9197 130.811 25.965 130.92 25.965 131.035C25.965 131.149 25.9197 131.258 25.8391 131.339C25.7585 131.42 25.6492 131.466 25.5352 131.466C25.4213 131.466 25.3119 131.42 25.2313 131.339C25.1507 131.258 25.1055 131.149 25.1055 131.035C25.1055 130.92 25.1507 130.811 25.2313 130.73C25.3119 130.649 25.4213 130.604 25.5352 130.604Z" fill="#DD8317"/>
<path d="M33.7594 129.785C33.8575 129.799 33.9472 129.848 34.0121 129.923C34.0769 129.999 34.1126 130.095 34.1126 130.194C34.1126 130.294 34.0769 130.39 34.0121 130.465C33.9472 130.54 33.8575 130.589 33.7594 130.604C33.6613 130.589 33.5717 130.54 33.5068 130.465C33.4419 130.39 33.4063 130.294 33.4062 130.194C33.4063 130.095 33.4419 129.999 33.5068 129.923C33.5717 129.848 33.6613 129.799 33.7594 129.785Z" fill="#DD8317"/>
<path d="M42.254 132.534C42.14 132.534 42.0307 132.489 41.9501 132.408C41.8695 132.327 41.8242 132.218 41.8242 132.103C41.8242 131.989 41.8695 131.879 41.9501 131.799C42.0307 131.718 42.14 131.672 42.254 131.672C42.368 131.672 42.4773 131.718 42.5579 131.799C42.6385 131.879 42.6838 131.989 42.6838 132.103C42.6838 132.218 42.6385 132.327 42.5579 132.408C42.4773 132.489 42.368 132.534 42.254 132.534Z" fill="#DD8317"/>
<path d="M42.8048 136.379C42.6908 136.379 42.5815 136.334 42.5009 136.253C42.4203 136.172 42.375 136.062 42.375 135.948C42.375 135.834 42.4203 135.724 42.5009 135.643C42.5815 135.563 42.6908 135.517 42.8048 135.517C42.9188 135.517 43.0281 135.563 43.1087 135.643C43.1893 135.724 43.2345 135.834 43.2345 135.948C43.2345 136.062 43.1893 136.172 43.1087 136.253C43.0281 136.334 42.9188 136.379 42.8048 136.379Z" fill="#DD8317"/>
<path d="M49.379 137.207C49.493 137.207 49.6023 137.252 49.6829 137.333C49.7635 137.414 49.8088 137.524 49.8088 137.638C49.8088 137.752 49.7635 137.862 49.6829 137.943C49.6023 138.024 49.493 138.069 49.379 138.069C49.265 138.069 49.1557 138.024 49.0751 137.943C48.9945 137.862 48.9492 137.752 48.9492 137.638C48.9492 137.524 48.9945 137.414 49.0751 137.333C49.1557 137.252 49.265 137.207 49.379 137.207Z" fill="#DD8317"/>
<path d="M54.4572 140.37V140.638C54.4572 140.752 54.4119 140.862 54.3313 140.943C54.2507 141.023 54.1414 141.069 54.0274 141.069C53.9134 141.069 53.8041 141.023 53.7235 140.943C53.6429 140.862 53.5977 140.752 53.5977 140.638V140.37C53.5977 140.256 53.6429 140.147 53.7235 140.066C53.8041 139.985 53.9134 139.939 54.0274 139.939C54.1414 139.939 54.2507 139.985 54.3313 140.066C54.4119 140.147 54.4572 140.256 54.4572 140.37Z" fill="#DD8317"/>
<path d="M58.1563 141.879C58.2703 141.879 58.3796 141.925 58.4602 142.006C58.5408 142.086 58.5861 142.196 58.5861 142.31C58.5861 142.425 58.5408 142.534 58.4602 142.615C58.3796 142.696 58.2703 142.741 58.1563 142.741C58.0424 142.741 57.933 142.696 57.8524 142.615C57.7718 142.534 57.7266 142.425 57.7266 142.31C57.7266 142.196 57.7718 142.086 57.8524 142.006C57.933 141.925 58.0424 141.879 58.1563 141.879Z" fill="#DD8317"/>
<path d="M63.6056 140.776C63.7195 140.776 63.8288 140.821 63.9094 140.902C63.99 140.983 64.0353 141.093 64.0353 141.207C64.0353 141.321 63.99 141.431 63.9094 141.512C63.8288 141.593 63.7195 141.638 63.6056 141.638C63.4916 141.638 63.3823 141.593 63.3017 141.512C63.2211 141.431 63.1758 141.321 63.1758 141.207C63.1758 141.093 63.2211 140.983 63.3017 140.902C63.3823 140.821 63.4916 140.776 63.6056 140.776Z" fill="#DD8317"/>
<path d="M68.8477 142.707H69.1228C69.2368 142.707 69.3461 142.752 69.4267 142.833C69.5073 142.914 69.5526 143.024 69.5526 143.138C69.5526 143.252 69.5073 143.362 69.4267 143.443C69.3461 143.524 69.2368 143.569 69.1228 143.569H68.8477C68.7338 143.569 68.6244 143.524 68.5438 143.443C68.4632 143.362 68.418 143.252 68.418 143.138C68.418 143.024 68.4632 142.914 68.5438 142.833C68.6244 142.752 68.7338 142.707 68.8477 142.707Z" fill="#DD8317"/>
<path d="M38.4181 131.431C38.532 131.431 38.6413 131.477 38.7219 131.557C38.8025 131.638 38.8478 131.748 38.8478 131.862C38.8478 131.977 38.8025 132.086 38.7219 132.167C38.6413 132.248 38.532 132.293 38.4181 132.293C38.3041 132.293 38.1948 132.248 38.1142 132.167C38.0336 132.086 37.9883 131.977 37.9883 131.862C37.9883 131.748 38.0336 131.638 38.1142 131.557C38.1948 131.477 38.3041 131.431 38.4181 131.431Z" fill="#DD8317"/>
<path d="M50.0664 131.569V131.293C50.0664 131.179 50.1117 131.069 50.1923 130.989C50.2729 130.908 50.3822 130.862 50.4962 130.862C50.6102 130.862 50.7195 130.908 50.8001 130.989C50.8807 131.069 50.9259 131.179 50.9259 131.293V131.569C50.9259 131.684 50.8807 131.793 50.8001 131.874C50.7195 131.955 50.6102 132 50.4962 132C50.3822 132 50.2729 131.955 50.1923 131.874C50.1117 131.793 50.0664 131.684 50.0664 131.569Z" fill="#DD8317"/>
<path d="M63.3476 133.198L63.6227 132.931C63.9923 132.552 64.5768 133.138 64.2072 133.509L63.9321 133.784C63.8546 133.862 63.7495 133.906 63.6399 133.906C63.5302 133.906 63.4251 133.862 63.3476 133.784C63.2701 133.707 63.2266 133.601 63.2266 133.491C63.2266 133.381 63.2701 133.276 63.3476 133.198Z" fill="#DD8317"/>
<path d="M72.9571 131.707C73.0711 131.707 73.1804 131.752 73.261 131.833C73.3416 131.914 73.3869 132.024 73.3869 132.138C73.3869 132.252 73.3416 132.362 73.261 132.443C73.1804 132.524 73.0711 132.569 72.9571 132.569C72.8431 132.569 72.7338 132.524 72.6532 132.443C72.5726 132.362 72.5273 132.252 72.5273 132.138C72.5273 132.024 72.5726 131.914 72.6532 131.833C72.7338 131.752 72.8431 131.707 72.9571 131.707Z" fill="#DD8317"/>
<path d="M36.4923 130.06C36.3783 130.06 36.269 130.015 36.1884 129.934C36.1078 129.853 36.0625 129.744 36.0625 129.629C36.0625 129.515 36.1078 129.405 36.1884 129.324C36.269 129.244 36.3783 129.198 36.4923 129.198C36.6063 129.198 36.7156 129.244 36.7962 129.324C36.8768 129.405 36.922 129.515 36.922 129.629C36.922 129.744 36.8768 129.853 36.7962 129.934C36.7156 130.015 36.6063 130.06 36.4923 130.06Z" fill="#DD8317"/>
<path d="M25.7852 128.957C25.6713 128.957 25.5619 128.911 25.4813 128.831C25.4007 128.75 25.3555 128.64 25.3555 128.526C25.3555 128.411 25.4007 128.302 25.4813 128.221C25.5619 128.14 25.6713 128.095 25.7852 128.095C25.8992 128.095 26.0085 128.14 26.0891 128.221C26.1697 128.302 26.215 128.411 26.215 128.526C26.215 128.64 26.1697 128.75 26.0891 128.831C26.0085 128.911 25.8992 128.957 25.7852 128.957Z" fill="#DD8317"/>
<path d="M35.9532 136.931H36.2283C36.3422 136.931 36.4516 136.977 36.5322 137.057C36.6128 137.138 36.658 137.248 36.658 137.362C36.658 137.477 36.6128 137.586 36.5322 137.667C36.4516 137.748 36.3422 137.793 36.2283 137.793H35.9532C35.8392 137.793 35.7299 137.748 35.6493 137.667C35.5687 137.586 35.5234 137.477 35.5234 137.362C35.5234 137.248 35.5687 137.138 35.6493 137.057C35.7299 136.977 35.8392 136.931 35.9532 136.931Z" fill="#DD8317"/>
<path d="M29.0938 140.517H29.3689C29.4829 140.517 29.5922 140.563 29.6728 140.643C29.7534 140.724 29.7987 140.834 29.7987 140.948C29.7987 141.062 29.7534 141.172 29.6728 141.253C29.5922 141.334 29.4829 141.379 29.3689 141.379H29.0938C28.9799 141.379 28.8705 141.334 28.7899 141.253C28.7093 141.172 28.6641 141.062 28.6641 140.948C28.6641 140.834 28.7093 140.724 28.7899 140.643C28.8705 140.563 28.9799 140.517 29.0938 140.517Z" fill="#DD8317"/>
<path d="M26.086 143.25C26.2 143.25 26.3093 143.295 26.3899 143.376C26.4705 143.457 26.5158 143.567 26.5158 143.681C26.5158 143.795 26.4705 143.905 26.3899 143.986C26.3093 144.067 26.2 144.112 26.086 144.112C25.972 144.112 25.8627 144.067 25.7821 143.986C25.7015 143.905 25.6562 143.795 25.6562 143.681C25.6562 143.567 25.7015 143.457 25.7821 143.376C25.8627 143.295 25.972 143.25 26.086 143.25Z" fill="#DD8317"/>
<path d="M34.8516 144.078C34.9656 144.078 35.0749 144.123 35.1555 144.204C35.2361 144.285 35.2814 144.394 35.2814 144.509C35.2814 144.623 35.2361 144.733 35.1555 144.813C35.0749 144.894 34.9656 144.94 34.8516 144.94C34.7377 144.94 34.6283 144.894 34.5478 144.813C34.4672 144.733 34.4219 144.623 34.4219 144.509C34.4219 144.394 34.4672 144.285 34.5478 144.204C34.6283 144.123 34.7377 144.078 34.8516 144.078Z" fill="#DD8317"/>
<path d="M44.1514 144.75C44.2289 144.672 44.334 144.628 44.4436 144.628C44.5532 144.628 44.6583 144.672 44.7358 144.75C44.8133 144.828 44.8569 144.933 44.8569 145.043C44.8569 145.153 44.8133 145.258 44.7358 145.336L44.4608 145.603C44.3844 145.68 44.2808 145.723 44.1728 145.723C44.0648 145.723 43.9613 145.68 43.8849 145.603C43.8085 145.527 43.7656 145.423 43.7656 145.314C43.7656 145.206 43.8085 145.102 43.8849 145.026L44.1514 144.75Z" fill="#DD8317"/>
<path d="M55.1383 144.905C55.2364 144.92 55.3261 144.969 55.391 145.044C55.4558 145.119 55.4915 145.215 55.4915 145.315C55.4915 145.414 55.4558 145.51 55.391 145.585C55.3261 145.661 55.2364 145.71 55.1383 145.724C55.0402 145.71 54.9506 145.661 54.8857 145.585C54.8208 145.51 54.7852 145.414 54.7852 145.315C54.7852 145.215 54.8208 145.119 54.8857 145.044C54.9506 144.969 55.0402 144.92 55.1383 144.905Z" fill="#DD8317"/>
<path d="M63.0899 144.629C63.2039 144.629 63.3132 144.675 63.3938 144.756C63.4744 144.836 63.5197 144.946 63.5197 145.06C63.5197 145.175 63.4744 145.284 63.3938 145.365C63.3132 145.446 63.2039 145.491 63.0899 145.491C62.9759 145.491 62.8666 145.446 62.786 145.365C62.7054 145.284 62.6602 145.175 62.6602 145.06C62.6602 144.946 62.7054 144.836 62.786 144.756C62.8666 144.675 62.9759 144.629 63.0899 144.629Z" fill="#DD8317"/>
<path d="M45.9923 140.233C45.8783 140.233 45.769 140.187 45.6884 140.106C45.6078 140.026 45.5625 139.916 45.5625 139.802C45.5625 139.687 45.6078 139.578 45.6884 139.497C45.769 139.416 45.8783 139.371 45.9923 139.371H46.0954C46.2094 139.371 46.3187 139.416 46.3993 139.497C46.4799 139.578 46.5252 139.687 46.5252 139.802C46.5252 139.916 46.4799 140.026 46.3993 140.106C46.3187 140.187 46.2094 140.233 46.0954 140.233H45.9923Z" fill="#DD8317"/>
<path d="M56.7774 141.328C56.8914 141.328 57.0007 141.373 57.0813 141.454C57.1619 141.535 57.2072 141.644 57.2072 141.759C57.2072 141.873 57.1619 141.983 57.0813 142.063C57.0007 142.144 56.8914 142.19 56.7774 142.19C56.6634 142.19 56.5541 142.144 56.4735 142.063C56.3929 141.983 56.3477 141.873 56.3477 141.759C56.3477 141.644 56.3929 141.535 56.4735 141.454C56.5541 141.373 56.6634 141.328 56.7774 141.328Z" fill="#DD8317"/>
<path d="M52.9454 143.802H53.2204C53.3344 143.802 53.4437 143.847 53.5243 143.928C53.6049 144.009 53.6502 144.118 53.6502 144.233C53.6502 144.347 53.6049 144.457 53.5243 144.538C53.4437 144.618 53.3344 144.664 53.2204 144.664H52.9454C52.8314 144.664 52.7221 144.618 52.6415 144.538C52.5609 144.457 52.5156 144.347 52.5156 144.233C52.5156 144.118 52.5609 144.009 52.6415 143.928C52.7221 143.847 52.8314 143.802 52.9454 143.802Z" fill="#DD8317"/>
<path d="M50.0666 141.466V141.742C50.0666 141.856 50.0213 141.966 49.9407 142.046C49.8601 142.127 49.7508 142.173 49.6368 142.173C49.5228 142.173 49.4135 142.127 49.3329 142.046C49.2523 141.966 49.207 141.856 49.207 141.742V141.466C49.207 141.351 49.2523 141.242 49.3329 141.161C49.4135 141.08 49.5228 141.035 49.6368 141.035C49.7508 141.035 49.8601 141.08 49.9407 141.161C50.0213 141.242 50.0666 141.351 50.0666 141.466Z" fill="#DD8317"/>
<path d="M55.4141 138.026C55.5281 138.026 55.6374 138.071 55.718 138.152C55.7986 138.233 55.8439 138.343 55.8439 138.457C55.8439 138.571 55.7986 138.681 55.718 138.762C55.6374 138.843 55.5281 138.888 55.4141 138.888C55.3002 138.888 55.1908 138.843 55.1103 138.762C55.0297 138.681 54.9844 138.571 54.9844 138.457C54.9844 138.343 55.0297 138.233 55.1103 138.152C55.1908 138.071 55.3002 138.026 55.4141 138.026Z" fill="#DD8317"/>
<path d="M60.0704 137.483C60.1844 137.483 60.2937 137.528 60.3743 137.609C60.4549 137.69 60.5002 137.8 60.5002 137.914C60.5002 138.028 60.4549 138.138 60.3743 138.219C60.2937 138.3 60.1844 138.345 60.0704 138.345C59.9564 138.345 59.8471 138.3 59.7665 138.219C59.6859 138.138 59.6406 138.028 59.6406 137.914C59.6406 137.8 59.6859 137.69 59.7665 137.609C59.8471 137.528 59.9564 137.483 60.0704 137.483Z" fill="#DD8317"/>
<path d="M44.1798 133.077C44.0658 133.077 43.9565 133.032 43.8759 132.951C43.7953 132.87 43.75 132.761 43.75 132.646C43.75 132.532 43.7953 132.422 43.8759 132.342C43.9565 132.261 44.0658 132.215 44.1798 132.215C44.2938 132.215 44.4031 132.261 44.4837 132.342C44.5643 132.422 44.6095 132.532 44.6095 132.646C44.6095 132.761 44.5643 132.87 44.4837 132.951C44.4031 133.032 44.2938 133.077 44.1798 133.077Z" fill="#DD8317"/>
<path d="M35.4024 132.534C35.2884 132.534 35.1791 132.489 35.0985 132.408C35.0179 132.327 34.9727 132.218 34.9727 132.103C34.9727 131.989 35.0179 131.879 35.0985 131.799C35.1791 131.718 35.2884 131.672 35.4024 131.672C35.5164 131.672 35.6257 131.718 35.7063 131.799C35.7869 131.879 35.8322 131.989 35.8322 132.103C35.8322 132.218 35.7869 132.327 35.7063 132.408C35.6257 132.489 35.5164 132.534 35.4024 132.534Z" fill="#DD8317"/>
<path d="M37.0431 138.578C36.9291 138.578 36.8198 138.623 36.7392 138.704C36.6586 138.785 36.6133 138.894 36.6133 139.009C36.6133 139.123 36.6586 139.233 36.7392 139.313C36.8198 139.394 36.9291 139.44 37.0431 139.44C37.157 139.44 37.2663 139.394 37.3469 139.313C37.4275 139.233 37.4728 139.123 37.4728 139.009C37.4728 138.894 37.4275 138.785 37.3469 138.704C37.2663 138.623 37.157 138.578 37.0431 138.578Z" fill="#FCBB3D"/>
<path d="M42.5454 140.621C42.4679 140.543 42.3628 140.5 42.2531 140.5C42.1435 140.5 42.0384 140.543 41.9609 140.621C41.8834 140.699 41.8398 140.804 41.8398 140.914C41.8398 141.024 41.8834 141.129 41.9609 141.207L42.2359 141.483C42.2743 141.521 42.3199 141.552 42.37 141.573C42.4202 141.594 42.4739 141.604 42.5282 141.604C42.5825 141.604 42.6362 141.594 42.6864 141.573C42.7365 141.552 42.7821 141.521 42.8204 141.483C42.8588 141.444 42.8893 141.399 42.91 141.349C42.9308 141.298 42.9415 141.244 42.9415 141.19C42.9415 141.135 42.9308 141.082 42.91 141.031C42.8893 140.981 42.8588 140.935 42.8204 140.897L42.5454 140.621Z" fill="#FCBB3D"/>
<path d="M31.8009 141.328C31.6869 141.328 31.5776 141.373 31.497 141.454C31.4164 141.535 31.3711 141.644 31.3711 141.759C31.3711 141.873 31.4164 141.983 31.497 142.063C31.5776 142.144 31.6869 142.19 31.8009 142.19C31.9148 142.19 32.0242 142.144 32.1048 142.063C32.1854 141.983 32.2306 141.873 32.2306 141.759C32.2306 141.644 32.1854 141.535 32.1048 141.454C32.0242 141.373 31.9148 141.328 31.8009 141.328Z" fill="#FCBB3D"/>
<path d="M37.5955 140.776H37.3204C37.2064 140.776 37.0971 140.821 37.0165 140.902C36.9359 140.983 36.8906 141.093 36.8906 141.207C36.8906 141.321 36.9359 141.431 37.0165 141.512C37.0971 141.593 37.2064 141.638 37.3204 141.638H37.5955C37.7094 141.638 37.8187 141.593 37.8993 141.512C37.9799 141.431 38.0252 141.321 38.0252 141.207C38.0252 141.093 37.9799 140.983 37.8993 140.902C37.8187 140.821 37.7094 140.776 37.5955 140.776Z" fill="#FCBB3D"/>
<path d="M31.8009 144.354C31.6869 144.354 31.5776 144.399 31.497 144.48C31.4164 144.561 31.3711 144.67 31.3711 144.785C31.3711 144.899 31.4164 145.009 31.497 145.089C31.5776 145.17 31.6869 145.216 31.8009 145.216C31.9148 145.216 32.0242 145.17 32.1048 145.089C32.1854 145.009 32.2306 144.899 32.2306 144.785C32.2306 144.67 32.1854 144.561 32.1048 144.48C32.0242 144.399 31.9148 144.354 31.8009 144.354Z" fill="#FCBB3D"/>
<path d="M44.1681 143.802C44.0541 143.802 43.9448 143.847 43.8642 143.928C43.7836 144.009 43.7383 144.118 43.7383 144.233C43.7383 144.347 43.7836 144.457 43.8642 144.538C43.9448 144.618 44.0541 144.664 44.1681 144.664C44.282 144.664 44.3913 144.618 44.4719 144.538C44.5525 144.457 44.5978 144.347 44.5978 144.233C44.5978 144.118 44.5525 144.009 44.4719 143.928C44.3913 143.847 44.282 143.802 44.1681 143.802Z" fill="#FCBB3D"/>
<path d="M55.1384 143.526H54.8634C54.7494 143.526 54.6401 143.571 54.5595 143.652C54.4789 143.733 54.4336 143.843 54.4336 143.957C54.4336 144.071 54.4789 144.181 54.5595 144.262C54.6401 144.343 54.7494 144.388 54.8634 144.388H55.1384C55.2524 144.388 55.3617 144.343 55.4423 144.262C55.5229 144.181 55.5682 144.071 55.5682 143.957C55.5682 143.843 55.5229 143.733 55.4423 143.652C55.3617 143.571 55.2524 143.526 55.1384 143.526Z" fill="#FCBB3D"/>
<path d="M39.5369 144.629H39.2618C39.1478 144.629 39.0385 144.675 38.9579 144.756C38.8773 144.836 38.832 144.946 38.832 145.06C38.832 145.175 38.8773 145.284 38.9579 145.365C39.0385 145.446 39.1478 145.491 39.2618 145.491H39.5369C39.6508 145.491 39.7602 145.446 39.8407 145.365C39.9213 145.284 39.9666 145.175 39.9666 145.06C39.9666 144.946 39.9213 144.836 39.8407 144.756C39.7602 144.675 39.6508 144.629 39.5369 144.629Z" fill="#FCBB3D"/>
<path d="M47.9447 143.802H47.7384C47.6244 143.802 47.5151 143.847 47.4345 143.928C47.3539 144.009 47.3086 144.118 47.3086 144.233C47.3086 144.347 47.3539 144.457 47.4345 144.538C47.5151 144.618 47.6244 144.664 47.7384 144.664H47.9447C48.0586 144.664 48.1679 144.618 48.2485 144.538C48.3291 144.457 48.3744 144.347 48.3744 144.233C48.3744 144.118 48.3291 144.009 48.2485 143.928C48.1679 143.847 48.0586 143.802 47.9447 143.802Z" fill="#FCBB3D"/>
<path d="M44.4454 136.931C44.3314 136.931 44.2221 136.977 44.1415 137.057C44.0609 137.138 44.0156 137.248 44.0156 137.362C44.0156 137.477 44.0609 137.586 44.1415 137.667C44.2221 137.748 44.3314 137.793 44.4454 137.793C44.5594 137.793 44.6687 137.748 44.7493 137.667C44.8299 137.586 44.8752 137.477 44.8752 137.362C44.8752 137.248 44.8299 137.138 44.7493 137.057C44.6687 136.977 44.5594 136.931 44.4454 136.931Z" fill="#FCBB3D"/>
<path d="M34.1641 138.716V138.992C34.1641 139.106 34.2093 139.216 34.2899 139.296C34.3705 139.377 34.4799 139.423 34.5938 139.423C34.7078 139.423 34.8171 139.377 34.8977 139.296C34.9783 139.216 35.0236 139.106 35.0236 138.992V138.716C35.0236 138.601 34.9783 138.492 34.8977 138.411C34.8171 138.33 34.7078 138.285 34.5938 138.285C34.4799 138.285 34.3705 138.33 34.2899 138.411C34.2093 138.492 34.1641 138.601 34.1641 138.716Z" fill="#FCBB3D"/>
<path d="M26.3516 140.233C26.2377 140.233 26.1283 140.278 26.0478 140.359C25.9672 140.44 25.9219 140.55 25.9219 140.664C25.9219 140.778 25.9672 140.888 26.0478 140.969C26.1283 141.05 26.2377 141.095 26.3516 141.095C26.4656 141.095 26.5749 141.05 26.6555 140.969C26.7361 140.888 26.7814 140.778 26.7814 140.664C26.7814 140.55 26.7361 140.44 26.6555 140.359C26.5749 140.278 26.4656 140.233 26.3516 140.233Z" fill="#FCBB3D"/>
<path d="M34.4643 141.914C34.3773 141.885 34.2832 141.885 34.1963 141.914C34.1094 141.944 34.0345 142.001 33.983 142.077C33.9314 142.153 33.906 142.244 33.9107 142.336C33.9154 142.428 33.9498 142.516 34.0088 142.586C34.1807 142.75 34.387 142.965 34.6534 142.897C34.9199 142.828 34.9886 142.543 34.9886 142.293C34.9894 142.23 34.9748 142.167 34.9463 142.11C34.9177 142.053 34.876 142.004 34.8246 141.967C34.7732 141.93 34.7136 141.906 34.6509 141.896C34.5882 141.887 34.5242 141.893 34.4643 141.914Z" fill="#FCBB3D"/>
<path d="M29.6446 138.302C29.5306 138.302 29.4213 138.347 29.3407 138.428C29.2601 138.509 29.2148 138.618 29.2148 138.733C29.2148 138.847 29.2601 138.957 29.3407 139.038C29.4213 139.118 29.5306 139.164 29.6446 139.164C29.7586 139.164 29.8679 139.118 29.9485 139.038C30.0291 138.957 30.0744 138.847 30.0744 138.733C30.0744 138.618 30.0291 138.509 29.9485 138.428C29.8679 138.347 29.7586 138.302 29.6446 138.302Z" fill="#FCBB3D"/>
<path d="M35.129 133.621C35.015 133.621 34.9057 133.666 34.8251 133.747C34.7445 133.828 34.6992 133.937 34.6992 134.052C34.6992 134.166 34.7445 134.276 34.8251 134.356C34.9057 134.437 35.015 134.483 35.129 134.483C35.243 134.483 35.3523 134.437 35.4329 134.356C35.5135 134.276 35.5588 134.166 35.5588 134.052C35.5588 133.937 35.5135 133.828 35.4329 133.747C35.3523 133.666 35.243 133.621 35.129 133.621Z" fill="#FCBB3D"/>
<path d="M42.8048 134.483C42.6908 134.483 42.5815 134.528 42.5009 134.609C42.4203 134.69 42.375 134.8 42.375 134.914C42.375 135.028 42.4203 135.138 42.5009 135.219C42.5815 135.3 42.6908 135.345 42.8048 135.345C42.9188 135.345 43.0281 135.3 43.1087 135.219C43.1893 135.138 43.2345 135.028 43.2345 134.914C43.2345 134.8 43.1893 134.69 43.1087 134.609C43.0281 134.528 42.9188 134.483 42.8048 134.483Z" fill="#FCBB3D"/>
<path d="M39.7868 132.535C39.6887 132.549 39.599 132.598 39.5341 132.673C39.4693 132.749 39.4336 132.845 39.4336 132.944C39.4336 133.044 39.4693 133.14 39.5341 133.215C39.599 133.29 39.6887 133.339 39.7868 133.354C39.8849 133.339 39.9746 133.29 40.0394 133.215C40.1043 133.14 40.14 133.044 40.14 132.944C40.14 132.845 40.1043 132.749 40.0394 132.673C39.9746 132.598 39.8849 132.549 39.7868 132.535Z" fill="#FCBB3D"/>
<path d="M31.0118 127.854C30.8978 127.854 30.7885 127.899 30.7079 127.98C30.6273 128.061 30.582 128.17 30.582 128.285C30.582 128.399 30.6273 128.509 30.7079 128.589C30.7885 128.67 30.8978 128.716 31.0118 128.716C31.1258 128.716 31.2351 128.67 31.3157 128.589C31.3963 128.509 31.4416 128.399 31.4416 128.285C31.4416 128.17 31.3963 128.061 31.3157 127.98C31.2351 127.899 31.1258 127.854 31.0118 127.854Z" fill="#FCBB3D"/>
<path d="M9.90787 127.035C9.80977 127.049 9.72009 127.098 9.65524 127.173C9.59038 127.249 9.55469 127.345 9.55469 127.444C9.55469 127.544 9.59038 127.64 9.65524 127.715C9.72009 127.79 9.80977 127.839 9.90787 127.854C10.006 127.839 10.0957 127.79 10.1605 127.715C10.2254 127.64 10.2611 127.544 10.2611 127.444C10.2611 127.345 10.2254 127.249 10.1605 127.173C10.0957 127.098 10.006 127.049 9.90787 127.035Z" fill="#FCBB3D"/>
<path d="M13.8789 126.069V126.345C13.8789 126.459 13.9242 126.569 14.0048 126.649C14.0854 126.73 14.1947 126.776 14.3087 126.776C14.4227 126.776 14.532 126.73 14.6126 126.649C14.6932 126.569 14.7384 126.459 14.7384 126.345V126.069C14.7384 125.954 14.6932 125.845 14.6126 125.764C14.532 125.683 14.4227 125.638 14.3087 125.638C14.1947 125.638 14.0854 125.683 14.0048 125.764C13.9242 125.845 13.8789 125.954 13.8789 126.069Z" fill="#FCBB3D"/>
<path d="M21.6931 128.957H21.4181C21.3041 128.957 21.1948 129.002 21.1142 129.083C21.0336 129.164 20.9883 129.274 20.9883 129.388C20.9883 129.502 21.0336 129.612 21.1142 129.693C21.1948 129.774 21.3041 129.819 21.4181 129.819H21.6931C21.8071 129.819 21.9164 129.774 21.997 129.693C22.0776 129.612 22.1229 129.502 22.1229 129.388C22.1229 129.274 22.0776 129.164 21.997 129.083C21.9164 129.002 21.8071 128.957 21.6931 128.957Z" fill="#FCBB3D"/>
<path d="M13.7517 128.129H13.4766C13.3627 128.129 13.2533 128.175 13.1728 128.256C13.0922 128.336 13.0469 128.446 13.0469 128.56C13.0469 128.675 13.0922 128.784 13.1728 128.865C13.2533 128.946 13.3627 128.991 13.4766 128.991H13.7517C13.8657 128.991 13.975 128.946 14.0556 128.865C14.1362 128.784 14.1815 128.675 14.1815 128.56C14.1815 128.446 14.1362 128.336 14.0556 128.256C13.975 128.175 13.8657 128.129 13.7517 128.129Z" fill="#FCBB3D"/>
<path d="M28.5439 126.724H28.2774C28.1634 126.724 28.0541 126.77 27.9735 126.85C27.8929 126.931 27.8477 127.041 27.8477 127.155C27.8477 127.269 27.8929 127.379 27.9735 127.46C28.0541 127.541 28.1634 127.586 28.2774 127.586H28.5439C28.6579 127.586 28.7672 127.541 28.8478 127.46C28.9284 127.379 28.9737 127.269 28.9737 127.155C28.9737 127.041 28.9284 126.931 28.8478 126.85C28.7672 126.77 28.6579 126.724 28.5439 126.724Z" fill="#FCBB3D"/>
<path d="M50.4783 131.431H50.2032C50.0892 131.431 49.9799 131.477 49.8993 131.557C49.8187 131.638 49.7734 131.748 49.7734 131.862C49.7734 131.977 49.8187 132.086 49.8993 132.167C49.9799 132.248 50.0892 132.293 50.2032 132.293H50.4783C50.5922 132.293 50.7016 132.248 50.7822 132.167C50.8628 132.086 50.908 131.977 50.908 131.862C50.908 131.748 50.8628 131.638 50.7822 131.557C50.7016 131.477 50.5922 131.431 50.4783 131.431Z" fill="#FCBB3D"/>
<path d="M51.8438 140.776C51.7299 140.776 51.6205 140.821 51.5399 140.902C51.4593 140.983 51.4141 141.093 51.4141 141.207C51.4141 141.321 51.4593 141.431 51.5399 141.512C51.6205 141.593 51.7299 141.638 51.8438 141.638C51.9578 141.638 52.0671 141.593 52.1477 141.512C52.2283 141.431 52.2736 141.321 52.2736 141.207C52.2736 141.093 52.2283 140.983 52.1477 140.902C52.0671 140.821 51.9578 140.776 51.8438 140.776Z" fill="#FCBB3D"/>
<path d="M60.3477 144.078C60.2338 144.078 60.1244 144.123 60.0438 144.204C59.9632 144.285 59.918 144.394 59.918 144.509C59.918 144.623 59.9632 144.733 60.0438 144.813C60.1244 144.894 60.2338 144.94 60.3477 144.94C60.4617 144.94 60.571 144.894 60.6516 144.813C60.7322 144.733 60.7775 144.623 60.7775 144.509C60.7775 144.394 60.7322 144.285 60.6516 144.204C60.571 144.123 60.4617 144.078 60.3477 144.078Z" fill="#FCBB3D"/>
<path d="M74.0548 145.689C73.9408 145.689 73.8315 145.735 73.7509 145.816C73.6703 145.897 73.625 146.006 73.625 146.12C73.625 146.235 73.6703 146.344 73.7509 146.425C73.8315 146.506 73.9408 146.552 74.0548 146.552C74.1688 146.552 74.2781 146.506 74.3587 146.425C74.4393 146.344 74.4845 146.235 74.4845 146.12C74.4845 146.006 74.4393 145.897 74.3587 145.816C74.2781 145.735 74.1688 145.689 74.0548 145.689Z" fill="#FCBB3D"/>
<path d="M90.2501 145.181C90.1361 145.181 90.0268 145.227 89.9462 145.307C89.8656 145.388 89.8203 145.498 89.8203 145.612C89.8203 145.727 89.8656 145.836 89.9462 145.917C90.0268 145.998 90.1361 146.043 90.2501 146.043C90.3641 146.043 90.4734 145.998 90.554 145.917C90.6346 145.836 90.6799 145.727 90.6799 145.612C90.6799 145.498 90.6346 145.388 90.554 145.307C90.4734 145.227 90.3641 145.181 90.2501 145.181Z" fill="#FCBB3D"/>
<path d="M104.207 145.181C104.093 145.181 103.984 145.227 103.903 145.307C103.823 145.388 103.777 145.498 103.777 145.612C103.777 145.727 103.823 145.836 103.903 145.917C103.984 145.998 104.093 146.043 104.207 146.043C104.321 146.043 104.43 145.998 104.511 145.917C104.592 145.836 104.637 145.727 104.637 145.612C104.637 145.498 104.592 145.388 104.511 145.307C104.43 145.227 104.321 145.181 104.207 145.181Z" fill="#FCBB3D"/>
<path d="M139.847 139.655H139.572C139.474 139.67 139.384 139.719 139.319 139.794C139.254 139.869 139.219 139.965 139.219 140.065C139.219 140.164 139.254 140.26 139.319 140.335C139.384 140.411 139.474 140.46 139.572 140.474H139.847C139.945 140.46 140.035 140.411 140.1 140.335C140.164 140.26 140.2 140.164 140.2 140.065C140.2 139.965 140.164 139.869 140.1 139.794C140.035 139.719 139.945 139.67 139.847 139.655Z" fill="#FCBB3D"/>
<path d="M129.703 139.957C129.589 139.957 129.48 140.002 129.399 140.083C129.319 140.164 129.273 140.274 129.273 140.388C129.273 140.502 129.319 140.612 129.399 140.693C129.48 140.774 129.589 140.819 129.703 140.819C129.817 140.819 129.927 140.774 130.007 140.693C130.088 140.612 130.133 140.502 130.133 140.388C130.133 140.274 130.088 140.164 130.007 140.083C129.927 140.002 129.817 139.957 129.703 139.957Z" fill="#FCBB3D"/>
<path d="M130.794 145.181H130.527C130.413 145.181 130.304 145.227 130.224 145.307C130.143 145.388 130.098 145.498 130.098 145.612C130.098 145.727 130.143 145.836 130.224 145.917C130.304 145.998 130.413 146.043 130.527 146.043H130.794C130.908 146.043 131.017 145.998 131.098 145.917C131.178 145.836 131.224 145.727 131.224 145.612C131.224 145.498 131.178 145.388 131.098 145.307C131.017 145.227 130.908 145.181 130.794 145.181Z" fill="#FCBB3D"/>
<path d="M137.945 141.724L137.67 141.448C137.593 141.37 137.488 141.327 137.378 141.327C137.269 141.327 137.163 141.37 137.086 141.448C137.008 141.526 136.965 141.631 136.965 141.741C136.965 141.851 137.008 141.957 137.086 142.034L137.361 142.31C137.438 142.388 137.544 142.432 137.653 142.432C137.763 142.432 137.868 142.388 137.945 142.31C138.023 142.232 138.066 142.127 138.066 142.017C138.066 141.907 138.023 141.802 137.945 141.724Z" fill="#FCBB3D"/>
<path d="M126.961 143.802C126.847 143.802 126.738 143.847 126.657 143.928C126.577 144.009 126.531 144.118 126.531 144.233C126.531 144.347 126.577 144.457 126.657 144.538C126.738 144.618 126.847 144.664 126.961 144.664C127.075 144.664 127.184 144.618 127.265 144.538C127.346 144.457 127.391 144.347 127.391 144.233C127.391 144.118 127.346 144.009 127.265 143.928C127.184 143.847 127.075 143.802 126.961 143.802Z" fill="#FCBB3D"/>
<path d="M122.576 145.457H122.301C122.187 145.457 122.078 145.502 121.997 145.583C121.916 145.664 121.871 145.774 121.871 145.888C121.871 146.002 121.916 146.112 121.997 146.193C122.078 146.274 122.187 146.319 122.301 146.319H122.576C122.69 146.319 122.799 146.274 122.88 146.193C122.96 146.112 123.006 146.002 123.006 145.888C123.006 145.774 122.96 145.664 122.88 145.583C122.799 145.502 122.69 145.457 122.576 145.457Z" fill="#FCBB3D"/>
<path d="M139.845 144.905C139.747 144.92 139.658 144.969 139.593 145.044C139.528 145.119 139.492 145.215 139.492 145.315C139.492 145.414 139.528 145.51 139.593 145.585C139.658 145.661 139.747 145.71 139.845 145.724C139.943 145.71 140.033 145.661 140.098 145.585C140.163 145.51 140.199 145.414 140.199 145.315C140.199 145.215 140.163 145.119 140.098 145.044C140.033 144.969 139.943 144.92 139.845 144.905Z" fill="#FCBB3D"/>
<path d="M129.977 143.526C129.863 143.526 129.753 143.571 129.673 143.652C129.592 143.733 129.547 143.843 129.547 143.957C129.547 144.071 129.592 144.181 129.673 144.262C129.753 144.343 129.863 144.388 129.977 144.388C130.091 144.388 130.2 144.343 130.281 144.262C130.361 144.181 130.406 144.071 130.406 143.957C130.406 143.843 130.361 143.733 130.281 143.652C130.2 143.571 130.091 143.526 129.977 143.526Z" fill="#FCBB3D"/>
<path d="M135.618 139.974C135.529 140.007 135.454 140.07 135.405 140.152C135.357 140.234 135.338 140.33 135.352 140.424C135.366 140.518 135.413 140.605 135.483 140.669C135.553 140.733 135.644 140.771 135.739 140.776C135.831 140.789 135.925 140.78 136.013 140.75C136.101 140.721 136.181 140.671 136.247 140.605C136.313 140.539 136.363 140.458 136.392 140.37C136.422 140.281 136.43 140.187 136.418 140.095C136.413 139.999 136.375 139.909 136.311 139.838C136.247 139.768 136.161 139.721 136.067 139.707C135.973 139.693 135.877 139.712 135.795 139.76C135.713 139.809 135.651 139.884 135.618 139.974Z" fill="#FCBB3D"/>
<path d="M130.391 136.793V137.069C130.391 137.184 130.436 137.293 130.517 137.374C130.597 137.455 130.706 137.5 130.82 137.5C130.934 137.5 131.044 137.455 131.124 137.374C131.205 137.293 131.25 137.184 131.25 137.069V136.793C131.25 136.679 131.205 136.569 131.124 136.489C131.044 136.408 130.934 136.362 130.82 136.362C130.706 136.362 130.597 136.408 130.517 136.489C130.436 136.569 130.391 136.679 130.391 136.793Z" fill="#FCBB3D"/>
<path d="M139.57 131.707C139.684 131.707 139.794 131.661 139.874 131.581C139.955 131.5 140 131.39 140 131.276C140 131.161 139.955 131.052 139.874 130.971C139.794 130.89 139.684 130.845 139.57 130.845C139.456 130.845 139.347 130.89 139.266 130.971C139.186 131.052 139.141 131.161 139.141 131.276C139.141 131.39 139.186 131.5 139.266 131.581C139.347 131.661 139.456 131.707 139.57 131.707Z" fill="#FCBB3D"/>
<path d="M143.541 130.672C143.292 130.56 142.957 130.672 143 131.017C143.103 131.802 143.988 131.802 144.091 131.017C144.134 130.672 143.799 130.56 143.541 130.672Z" fill="#FCBB3D"/>
<path d="M154.096 129.233H153.856C153.742 129.233 153.632 129.278 153.552 129.359C153.471 129.44 153.426 129.549 153.426 129.664C153.426 129.778 153.471 129.888 153.552 129.969C153.632 130.049 153.742 130.095 153.856 130.095H154.131C154.245 130.09 154.352 130.04 154.429 129.956C154.507 129.872 154.548 129.761 154.543 129.647C154.539 129.532 154.489 129.424 154.405 129.347C154.321 129.269 154.21 129.228 154.096 129.233Z" fill="#FCBB3D"/>
<path d="M162.871 126.483C162.757 126.483 162.648 126.528 162.567 126.609C162.487 126.69 162.441 126.8 162.441 126.914C162.441 127.028 162.487 127.138 162.567 127.219C162.648 127.3 162.757 127.345 162.871 127.345C162.985 127.345 163.094 127.3 163.175 127.219C163.256 127.138 163.301 127.028 163.301 126.914C163.301 126.8 163.256 126.69 163.175 126.609C163.094 126.528 162.985 126.483 162.871 126.483Z" fill="#FCBB3D"/>
<path d="M148.345 127.035C148.247 127.049 148.158 127.098 148.093 127.173C148.028 127.249 147.992 127.345 147.992 127.444C147.992 127.544 148.028 127.64 148.093 127.715C148.158 127.79 148.247 127.839 148.345 127.854C148.443 127.839 148.533 127.79 148.598 127.715C148.663 127.64 148.699 127.544 148.699 127.444C148.699 127.345 148.663 127.249 148.598 127.173C148.533 127.098 148.443 127.049 148.345 127.035Z" fill="#FCBB3D"/>
<path d="M147.246 130.604C147.132 130.604 147.023 130.649 146.942 130.73C146.862 130.811 146.816 130.92 146.816 131.035C146.816 131.149 146.862 131.258 146.942 131.339C147.023 131.42 147.132 131.466 147.246 131.466C147.36 131.466 147.469 131.42 147.55 131.339C147.631 131.258 147.676 131.149 147.676 131.035C147.676 130.92 147.631 130.811 147.55 130.73C147.469 130.649 147.36 130.604 147.246 130.604Z" fill="#FCBB3D"/>
<path d="M139.021 129.785C138.923 129.799 138.833 129.848 138.769 129.923C138.704 129.999 138.668 130.095 138.668 130.194C138.668 130.294 138.704 130.39 138.769 130.465C138.833 130.54 138.923 130.589 139.021 130.604C139.119 130.589 139.209 130.54 139.274 130.465C139.339 130.39 139.374 130.294 139.374 130.194C139.374 130.095 139.339 129.999 139.274 129.923C139.209 129.848 139.119 129.799 139.021 129.785Z" fill="#FCBB3D"/>
<path d="M130.527 132.534C130.641 132.534 130.751 132.489 130.831 132.408C130.912 132.327 130.957 132.218 130.957 132.103C130.957 131.989 130.912 131.879 130.831 131.799C130.751 131.718 130.641 131.672 130.527 131.672C130.413 131.672 130.304 131.718 130.224 131.799C130.143 131.879 130.098 131.989 130.098 132.103C130.098 132.218 130.143 132.327 130.224 132.408C130.304 132.489 130.413 132.534 130.527 132.534Z" fill="#FCBB3D"/>
<path d="M129.977 136.379C130.091 136.379 130.2 136.334 130.281 136.253C130.361 136.172 130.406 136.062 130.406 135.948C130.406 135.834 130.361 135.724 130.281 135.643C130.2 135.563 130.091 135.517 129.977 135.517C129.863 135.517 129.753 135.563 129.673 135.643C129.592 135.724 129.547 135.834 129.547 135.948C129.547 136.062 129.592 136.172 129.673 136.253C129.753 136.334 129.863 136.379 129.977 136.379Z" fill="#FCBB3D"/>
<path d="M123.395 137.207C123.281 137.207 123.171 137.252 123.091 137.333C123.01 137.414 122.965 137.524 122.965 137.638C122.965 137.752 123.01 137.862 123.091 137.943C123.171 138.024 123.281 138.069 123.395 138.069C123.509 138.069 123.618 138.024 123.699 137.943C123.779 137.862 123.824 137.752 123.824 137.638C123.824 137.524 123.779 137.414 123.699 137.333C123.618 137.252 123.509 137.207 123.395 137.207Z" fill="#FCBB3D"/>
<path d="M118.324 140.37V140.638C118.324 140.752 118.369 140.862 118.45 140.943C118.531 141.023 118.64 141.069 118.754 141.069C118.868 141.069 118.977 141.023 119.058 140.943C119.138 140.862 119.184 140.752 119.184 140.638V140.37C119.184 140.256 119.138 140.147 119.058 140.066C118.977 139.985 118.868 139.939 118.754 139.939C118.64 139.939 118.531 139.985 118.45 140.066C118.369 140.147 118.324 140.256 118.324 140.37Z" fill="#FCBB3D"/>
<path d="M114.625 141.879C114.511 141.879 114.402 141.925 114.321 142.006C114.241 142.086 114.195 142.196 114.195 142.31C114.195 142.425 114.241 142.534 114.321 142.615C114.402 142.696 114.511 142.741 114.625 142.741C114.739 142.741 114.848 142.696 114.929 142.615C115.01 142.534 115.055 142.425 115.055 142.31C115.055 142.196 115.01 142.086 114.929 142.006C114.848 141.925 114.739 141.879 114.625 141.879Z" fill="#FCBB3D"/>
<path d="M109.16 140.776C109.046 140.776 108.937 140.821 108.856 140.902C108.776 140.983 108.73 141.093 108.73 141.207C108.73 141.321 108.776 141.431 108.856 141.512C108.937 141.593 109.046 141.638 109.16 141.638C109.274 141.638 109.384 141.593 109.464 141.512C109.545 141.431 109.59 141.321 109.59 141.207C109.59 141.093 109.545 140.983 109.464 140.902C109.384 140.821 109.274 140.776 109.16 140.776Z" fill="#FCBB3D"/>
<path d="M103.935 142.707H103.66C103.546 142.707 103.437 142.752 103.356 142.833C103.276 142.914 103.23 143.024 103.23 143.138C103.23 143.252 103.276 143.362 103.356 143.443C103.437 143.524 103.546 143.569 103.66 143.569H103.935C104.049 143.569 104.159 143.524 104.239 143.443C104.32 143.362 104.365 143.252 104.365 143.138C104.365 143.024 104.32 142.914 104.239 142.833C104.159 142.752 104.049 142.707 103.935 142.707Z" fill="#FCBB3D"/>
<path d="M134.363 131.431C134.249 131.431 134.14 131.477 134.059 131.557C133.979 131.638 133.934 131.748 133.934 131.862C133.934 131.977 133.979 132.086 134.059 132.167C134.14 132.248 134.249 132.293 134.363 132.293C134.477 132.293 134.587 132.248 134.667 132.167C134.748 132.086 134.793 131.977 134.793 131.862C134.793 131.748 134.748 131.638 134.667 131.557C134.587 131.477 134.477 131.431 134.363 131.431Z" fill="#FCBB3D"/>
<path d="M122.715 131.569V131.293C122.715 131.179 122.67 131.069 122.589 130.989C122.509 130.908 122.399 130.862 122.285 130.862C122.171 130.862 122.062 130.908 121.981 130.989C121.901 131.069 121.855 131.179 121.855 131.293V131.569C121.855 131.684 121.901 131.793 121.981 131.874C122.062 131.955 122.171 132 122.285 132C122.399 132 122.509 131.955 122.589 131.874C122.67 131.793 122.715 131.684 122.715 131.569Z" fill="#FCBB3D"/>
<path d="M109.434 133.198L109.159 132.931C109.08 132.866 108.98 132.833 108.878 132.838C108.776 132.842 108.68 132.885 108.607 132.956C108.535 133.028 108.491 133.124 108.485 133.226C108.479 133.328 108.511 133.429 108.574 133.509L108.849 133.785C109.227 134.164 109.803 133.621 109.434 133.198Z" fill="#FCBB3D"/>
<path d="M99.8243 131.707C99.7103 131.707 99.601 131.752 99.5204 131.833C99.4398 131.914 99.3945 132.024 99.3945 132.138C99.3945 132.252 99.4398 132.362 99.5204 132.443C99.601 132.524 99.7103 132.569 99.8243 132.569C99.9383 132.569 100.048 132.524 100.128 132.443C100.209 132.362 100.254 132.252 100.254 132.138C100.254 132.024 100.209 131.914 100.128 131.833C100.048 131.752 99.9383 131.707 99.8243 131.707Z" fill="#FCBB3D"/>
<path d="M136.277 130.06C136.391 130.06 136.501 130.015 136.581 129.934C136.662 129.853 136.707 129.744 136.707 129.629C136.707 129.515 136.662 129.405 136.581 129.324C136.501 129.244 136.391 129.198 136.277 129.198C136.163 129.198 136.054 129.244 135.974 129.324C135.893 129.405 135.848 129.515 135.848 129.629C135.848 129.744 135.893 129.853 135.974 129.934C136.054 130.015 136.163 130.06 136.277 130.06Z" fill="#FCBB3D"/>
<path d="M146.981 128.957C147.095 128.957 147.204 128.911 147.284 128.831C147.365 128.75 147.41 128.64 147.41 128.526C147.41 128.411 147.365 128.302 147.284 128.221C147.204 128.14 147.095 128.095 146.981 128.095C146.867 128.095 146.757 128.14 146.677 128.221C146.596 128.302 146.551 128.411 146.551 128.526C146.551 128.64 146.596 128.75 146.677 128.831C146.757 128.911 146.867 128.957 146.981 128.957Z" fill="#FCBB3D"/>
<path d="M136.83 136.931H136.555C136.441 136.931 136.331 136.977 136.251 137.057C136.17 137.138 136.125 137.248 136.125 137.362C136.125 137.477 136.17 137.586 136.251 137.667C136.331 137.748 136.441 137.793 136.555 137.793H136.83C136.944 137.793 137.053 137.748 137.134 137.667C137.214 137.586 137.26 137.477 137.26 137.362C137.26 137.248 137.214 137.138 137.134 137.057C137.053 136.977 136.944 136.931 136.83 136.931Z" fill="#FCBB3D"/>
<path d="M143.681 140.517H143.414C143.3 140.517 143.191 140.563 143.11 140.643C143.03 140.724 142.984 140.834 142.984 140.948C142.984 141.062 143.03 141.172 143.11 141.253C143.191 141.334 143.3 141.379 143.414 141.379H143.681C143.795 141.379 143.904 141.334 143.984 141.253C144.065 141.172 144.11 141.062 144.11 140.948C144.11 140.834 144.065 140.724 143.984 140.643C143.904 140.563 143.795 140.517 143.681 140.517Z" fill="#FCBB3D"/>
<path d="M146.695 143.25C146.581 143.25 146.472 143.295 146.392 143.376C146.311 143.457 146.266 143.567 146.266 143.681C146.266 143.795 146.311 143.905 146.392 143.986C146.472 144.067 146.581 144.112 146.695 144.112C146.809 144.112 146.919 144.067 146.999 143.986C147.08 143.905 147.125 143.795 147.125 143.681C147.125 143.567 147.08 143.457 146.999 143.376C146.919 143.295 146.809 143.25 146.695 143.25Z" fill="#FCBB3D"/>
<path d="M137.93 144.078C137.816 144.078 137.706 144.123 137.626 144.204C137.545 144.285 137.5 144.394 137.5 144.509C137.5 144.623 137.545 144.733 137.626 144.813C137.706 144.894 137.816 144.94 137.93 144.94C138.044 144.94 138.153 144.894 138.234 144.813C138.314 144.733 138.36 144.623 138.36 144.509C138.36 144.394 138.314 144.285 138.234 144.204C138.153 144.123 138.044 144.078 137.93 144.078Z" fill="#FCBB3D"/>
<path d="M128.62 144.75C128.251 144.371 127.666 144.957 128.044 145.336L128.319 145.604C128.396 145.68 128.499 145.723 128.607 145.723C128.715 145.723 128.819 145.68 128.895 145.604C128.972 145.527 129.015 145.423 129.015 145.315C129.015 145.207 128.972 145.103 128.895 145.026L128.62 144.75Z" fill="#FCBB3D"/>
<path d="M117.642 144.905C117.544 144.92 117.454 144.969 117.39 145.044C117.325 145.119 117.289 145.215 117.289 145.315C117.289 145.414 117.325 145.51 117.39 145.585C117.454 145.661 117.544 145.71 117.642 145.724C117.74 145.71 117.83 145.661 117.895 145.585C117.96 145.51 117.995 145.414 117.995 145.315C117.995 145.215 117.96 145.119 117.895 145.044C117.83 144.969 117.74 144.92 117.642 144.905Z" fill="#FCBB3D"/>
<path d="M109.691 144.629C109.578 144.629 109.468 144.675 109.388 144.756C109.307 144.836 109.262 144.946 109.262 145.06C109.262 145.175 109.307 145.284 109.388 145.365C109.468 145.446 109.578 145.491 109.691 145.491C109.805 145.491 109.915 145.446 109.995 145.365C110.076 145.284 110.121 145.175 110.121 145.06C110.121 144.946 110.076 144.836 109.995 144.756C109.915 144.675 109.805 144.629 109.691 144.629Z" fill="#FCBB3D"/>
<path d="M126.791 140.233C126.905 140.233 127.014 140.187 127.095 140.106C127.175 140.026 127.22 139.916 127.22 139.802C127.22 139.687 127.175 139.578 127.095 139.497C127.014 139.416 126.905 139.371 126.791 139.371H126.688C126.574 139.371 126.464 139.416 126.384 139.497C126.303 139.578 126.258 139.687 126.258 139.802C126.258 139.916 126.303 140.026 126.384 140.106C126.464 140.187 126.574 140.233 126.688 140.233H126.791Z" fill="#FCBB3D"/>
<path d="M116.035 141.328C115.921 141.328 115.812 141.373 115.731 141.454C115.651 141.535 115.605 141.644 115.605 141.759C115.605 141.873 115.651 141.983 115.731 142.063C115.812 142.144 115.921 142.19 116.035 142.19C116.149 142.19 116.259 142.144 116.339 142.063C116.42 141.983 116.465 141.873 116.465 141.759C116.465 141.644 116.42 141.535 116.339 141.454C116.259 141.373 116.149 141.328 116.035 141.328Z" fill="#FCBB3D"/>
<path d="M119.834 143.802H119.559C119.445 143.802 119.335 143.847 119.255 143.928C119.174 144.009 119.129 144.118 119.129 144.233C119.129 144.347 119.174 144.457 119.255 144.538C119.335 144.618 119.445 144.664 119.559 144.664H119.834C119.948 144.664 120.057 144.618 120.138 144.538C120.218 144.457 120.263 144.347 120.263 144.233C120.263 144.118 120.218 144.009 120.138 143.928C120.057 143.847 119.948 143.802 119.834 143.802Z" fill="#FCBB3D"/>
<path d="M122.715 141.466V141.741C122.729 141.84 122.778 141.93 122.853 141.995C122.928 142.06 123.024 142.096 123.123 142.096C123.222 142.096 123.318 142.06 123.393 141.995C123.468 141.93 123.517 141.84 123.531 141.741V141.466C123.517 141.367 123.468 141.277 123.393 141.212C123.318 141.147 123.222 141.111 123.123 141.111C123.024 141.111 122.928 141.147 122.853 141.212C122.778 141.277 122.729 141.367 122.715 141.466Z" fill="#FCBB3D"/>
<path d="M117.367 138.026C117.253 138.026 117.144 138.071 117.063 138.152C116.983 138.233 116.938 138.343 116.938 138.457C116.938 138.571 116.983 138.681 117.063 138.762C117.144 138.843 117.253 138.888 117.367 138.888C117.481 138.888 117.591 138.843 117.671 138.762C117.752 138.681 117.797 138.571 117.797 138.457C117.797 138.343 117.752 138.233 117.671 138.152C117.591 138.071 117.481 138.026 117.367 138.026Z" fill="#FCBB3D"/>
<path d="M112.711 137.483C112.597 137.483 112.488 137.528 112.407 137.609C112.327 137.69 112.281 137.8 112.281 137.914C112.281 138.028 112.327 138.138 112.407 138.219C112.488 138.3 112.597 138.345 112.711 138.345C112.825 138.345 112.934 138.3 113.015 138.219C113.096 138.138 113.141 138.028 113.141 137.914C113.141 137.8 113.096 137.69 113.015 137.609C112.934 137.528 112.825 137.483 112.711 137.483Z" fill="#FCBB3D"/>
<path d="M128.602 133.077C128.716 133.077 128.825 133.032 128.906 132.951C128.986 132.87 129.031 132.761 129.031 132.646C129.031 132.532 128.986 132.422 128.906 132.342C128.825 132.261 128.716 132.215 128.602 132.215C128.488 132.215 128.378 132.261 128.298 132.342C128.217 132.422 128.172 132.532 128.172 132.646C128.172 132.761 128.217 132.87 128.298 132.951C128.378 133.032 128.488 133.077 128.602 133.077Z" fill="#FCBB3D"/>
<path d="M137.379 132.534C137.493 132.534 137.602 132.489 137.683 132.408C137.763 132.327 137.809 132.218 137.809 132.103C137.809 131.989 137.763 131.879 137.683 131.799C137.602 131.718 137.493 131.672 137.379 131.672C137.265 131.672 137.156 131.718 137.075 131.799C136.994 131.879 136.949 131.989 136.949 132.103C136.949 132.218 136.994 132.327 137.075 132.408C137.156 132.489 137.265 132.534 137.379 132.534Z" fill="#FCBB3D"/>
<path d="M128.715 16.612C128.715 18.6477 129.317 20.6378 130.444 22.3305C131.572 24.0232 133.175 25.3425 135.05 26.1215C136.926 26.9006 138.989 27.1044 140.98 26.7073C142.971 26.3101 144.799 25.3298 146.235 23.8903C147.67 22.4508 148.647 20.6167 149.043 18.62C149.439 16.6234 149.236 14.5538 148.459 12.673C147.683 10.7921 146.367 9.18457 144.68 8.05355C142.992 6.92253 141.008 6.31885 138.978 6.31885C136.256 6.31885 133.645 7.4033 131.721 9.33363C129.796 11.264 128.715 13.8821 128.715 16.612Z" fill="#ED5D3A"/>
<path d="M124.441 136.931C124.441 138.293 108.11 139.405 87.9453 139.405C67.7805 139.405 51.4492 138.293 51.4492 136.931C51.4492 135.569 67.7805 134.457 87.9453 134.457C108.11 134.457 124.441 135.56 124.441 136.931Z" fill="#DD8317"/>
<path d="M77.5794 30.2242C77.2009 29.1185 76.4443 28.1829 75.4436 27.5833C74.443 26.9837 73.263 26.7587 72.1127 26.9484C67.901 27.5863 69.2333 36.0949 67.901 36.6466C66.1819 37.3363 64.7207 35.1294 63.4572 37.4311C62.2882 39.5604 65.0989 41.4484 65.0989 41.4484C65.0989 41.4484 62.8899 41.8363 62.8985 43.2415C62.9071 44.6466 65.3224 47.0173 69.3278 44.2242C69.3278 44.2242 72.087 46.3104 74.339 44.6122C77.0551 42.5777 76.2385 39.4397 75.7572 36.5949C75.1813 33.1466 75.5509 31.0259 77.0809 31.9397L77.5794 30.2242Z" fill="#FEB71F"/>
<path d="M73.2744 32.4913C72.9337 33.8184 72.8771 35.2028 73.1082 36.5535C73.3393 37.9041 73.8529 39.1903 74.6153 40.3276C75.0458 40.9481 75.5352 41.5255 76.0765 42.0517C76.5063 40.3276 76.0765 38.4138 75.7585 36.5948C75.1826 33.1465 75.5522 31.0258 77.0822 31.9396L77.5807 30.2155C77.3336 29.5634 76.9662 28.9638 76.4977 28.4482C75.7095 28.8601 75.0157 29.4325 74.4607 30.1287C73.9056 30.8249 73.5016 31.6296 73.2744 32.4913Z" fill="#D98F00"/>
<path d="M83.9575 36.8103C83.9575 36.8103 86.9401 33.9655 86.3642 31.5517C86.2958 31.2337 86.1618 30.9336 85.9706 30.6707C85.7795 30.4079 85.5355 30.1881 85.2545 30.0257C84.9734 29.8632 84.6616 29.7616 84.339 29.7275C84.0164 29.6934 83.6903 29.7275 83.3816 29.8276C83.3816 29.8276 79.2558 27.2414 76.5053 29.1465C73.7547 31.0517 71.5973 37.3534 78.2931 40.8965L83.9575 36.8103Z" fill="#FEB71F"/>
<path d="M79.988 71.8622C77.1945 75.7674 82.197 89.1036 91.9528 108.19C91.9528 108.19 90.6635 112.328 93.9039 121.121C95.7302 126.178 98.1911 130.981 101.227 135.414C101.106 136.037 101.106 136.678 101.227 137.302C101.459 137.879 109.694 135.483 109.634 135.06C109.573 134.638 103.35 134.017 103.35 134.017C103.35 134.017 99.7058 118.879 99.2503 107.931C99.13 105.017 94.1532 81.0864 91.5144 75.4829C88.8756 69.8795 82.515 68.2933 79.988 71.8622Z" fill="#F5B182"/>
<path d="M95.8789 106.948C96.2938 107.449 96.588 108.039 96.7384 108.672C96.833 109.198 97.6496 109.146 97.598 108.621C97.4458 107.84 97.1164 107.106 96.6353 106.474C96.5701 106.393 96.4769 106.34 96.3743 106.325C96.2717 106.31 96.1672 106.334 96.0816 106.392C95.996 106.451 95.9355 106.54 95.9123 106.641C95.8891 106.743 95.9048 106.849 95.9563 106.94L95.8789 106.948Z" fill="#E28B5A"/>
<path d="M98.8434 104.802C97.5455 97.3966 93.7464 80.1293 91.5975 75.4914C89.0189 69.8793 82.5723 68.3018 80.0281 71.8707C79.3319 72.8362 79.1686 74.388 79.3405 76.4569C80.4697 78.1943 80.9366 80.2816 80.6556 82.3362C82.3746 88.0949 85.7612 95.7759 90.3254 104.914C92.0445 104.914 93.6862 104.862 95.3623 104.853C96.4883 104.845 97.6401 104.828 98.8434 104.802Z" fill="#E28B5A"/>
<path d="M78.3965 39.5947C78.3965 39.5947 77.9839 44.1292 77.8206 44.7671C77.6573 45.4051 73.3338 47.3533 73.4112 49.6809C73.4885 52.0085 77.6573 64.6551 77.0041 67.4827C76.4196 70.0689 73.4112 74.6464 73.4112 74.6464C75.7346 76.0782 78.3215 77.0266 81.0178 77.4353C83.7141 77.8441 86.4648 77.7048 89.1064 77.0258C89.1064 77.0258 90.0605 64.1465 89.2439 58.7844C88.2857 53.2719 85.8593 48.1218 82.2215 43.8792C81.7137 42.6498 81.3055 41.3813 81.0009 40.0861L78.3965 39.5947Z" fill="#F5B182"/>
<path d="M81.0021 40.0861L78.4235 39.5947L78.3203 40.6723C79.3435 41.5191 80.5073 42.1785 81.7585 42.6206C81.3373 41.4568 81.0021 40.0861 81.0021 40.0861Z" fill="#E28B5A"/>
<path d="M77.1835 52.3533C77.046 49.7671 75.559 48.9568 73.5821 48.8188C73.4709 49.0927 73.4125 49.3852 73.4102 49.6809C73.4102 50.9654 74.6909 55.2326 75.7223 59.3361C76.7575 57.1586 77.2585 54.7645 77.1835 52.3533Z" fill="#E28B5A"/>
<path d="M83.9685 31.957C83.9685 31.957 86.1947 37.6381 83.4012 41.3105C83.4012 41.3105 80.1779 42.2329 77.1953 38.4053C77.7782 37.9217 78.2575 37.325 78.6047 36.651C78.9518 35.9769 79.1595 35.2395 79.2152 34.4829C79.2152 34.4829 82.6706 34.526 83.9685 31.957Z" fill="#F5B182"/>
<path d="M84.1465 39.7243C83.9768 39.8069 83.7885 39.844 83.6002 39.8319C83.4119 39.8198 83.23 39.759 83.0721 39.6553C82.8018 39.4546 82.5641 39.2133 82.3673 38.9398C82.2899 38.845 82.1438 38.9398 82.2212 39.0691C82.4592 39.4221 82.7736 39.7168 83.1409 39.9312C83.3117 40.0057 83.4961 40.0442 83.6824 40.0442C83.8687 40.0442 84.053 40.0057 84.2239 39.9312C84.3442 39.8536 84.2325 39.6553 84.1465 39.7243Z" fill="#E05A48"/>
<path d="M84.7936 36.2586C84.6217 36.3448 84.2091 38.3965 84.6904 38.681C85.1718 38.9655 86.1516 38.4569 86.0227 38.1638C85.8938 37.8707 85.2921 38.0603 85.1632 37.5603C85.0342 37.0603 84.9569 36.2069 84.7936 36.2586Z" fill="#AD553A"/>
<path d="M81.0001 36.5431C80.9232 36.5791 80.8542 36.6301 80.7973 36.6932C80.7403 36.7564 80.6966 36.8302 80.6685 36.9106C80.6405 36.9909 80.6288 37.0761 80.634 37.161C80.6393 37.246 80.6615 37.329 80.6993 37.4052C80.7313 37.4869 80.7797 37.561 80.8416 37.623C80.9035 37.685 80.9775 37.7336 81.0589 37.7656C81.1404 37.7976 81.2275 37.8125 81.3149 37.8092C81.4024 37.8059 81.4882 37.7846 81.567 37.7466C81.6458 37.7085 81.716 37.6546 81.7731 37.5881C81.8302 37.5216 81.873 37.4441 81.8988 37.3602C81.9247 37.2764 81.933 37.1882 81.9233 37.101C81.9136 37.0138 81.8861 36.9295 81.8425 36.8535C81.8082 36.777 81.7591 36.7081 81.6979 36.651C81.6368 36.5938 81.5649 36.5494 81.4864 36.5205C81.4079 36.4916 81.3245 36.4787 81.241 36.4826C81.1575 36.4865 81.0756 36.5071 81.0001 36.5431Z" fill="#E05A48"/>
<path d="M83.063 34.5775C82.9188 34.5732 82.7765 34.6119 82.6541 34.6886C82.5317 34.7653 82.4347 34.8766 82.3754 35.0085C82.3152 35.112 82.1605 35.0085 82.2207 34.9051C82.3012 34.7467 82.4245 34.6143 82.5765 34.5228C82.7285 34.4314 82.903 34.3846 83.0802 34.3879C83.2006 34.3879 83.1834 34.5775 83.0802 34.5775H83.063Z" fill="#7B3221"/>
<path d="M83.3753 35.8619C83.2709 35.8449 83.1639 35.8617 83.0697 35.9097C82.9754 35.9578 82.8988 36.0346 82.851 36.1292L82.7736 36.0429C82.6877 35.9395 82.5501 36.0429 82.6275 36.1895L82.7478 36.3188C82.7478 36.3188 82.7478 36.3188 82.7478 36.3705L82.6877 36.3188C82.6103 36.2067 82.4298 36.3188 82.5072 36.4223C82.5525 36.4966 82.6181 36.5565 82.6963 36.5947C82.7043 36.6131 82.7175 36.6288 82.7343 36.6399C82.7511 36.6509 82.7707 36.6568 82.7908 36.6568C82.8109 36.6568 82.8305 36.6509 82.8473 36.6399C82.8641 36.6288 82.8773 36.6131 82.8854 36.5947C82.9541 36.3361 83.0401 36.0257 83.4269 36.0947C83.6847 36.0947 83.7277 36.4912 83.7535 36.6895C83.7793 36.8878 83.9684 36.7585 83.9512 36.6292C83.8824 36.2498 83.7621 35.9223 83.3753 35.8619Z" fill="#222221"/>
<path d="M78.215 39.2674C77.9653 39.3887 77.6854 39.433 77.4106 39.3945C77.1359 39.3561 76.8787 39.2367 76.6716 39.0515C76.4646 38.8663 76.317 38.6237 76.2477 38.3543C76.1783 38.0849 76.1902 37.8009 76.2819 37.5384C76.3736 37.2758 76.5409 37.0464 76.7627 36.8793C76.9845 36.7122 77.2508 36.6149 77.5278 36.5997C77.8048 36.5846 78.0801 36.6522 78.3187 36.7941C78.5573 36.936 78.7486 37.1457 78.8682 37.3968C78.9485 37.5625 78.9952 37.7425 79.0058 37.9264C79.0164 38.1104 78.9906 38.2946 78.9298 38.4685C78.8691 38.6424 78.7747 38.8025 78.652 38.9396C78.5293 39.0767 78.3808 39.1881 78.215 39.2674Z" fill="#F5B182"/>
<path d="M78.2179 37.9311C78.0727 37.7593 77.8905 37.6227 77.685 37.5316C77.4796 37.4405 77.2563 37.3973 77.0318 37.4052C77.0146 37.4109 76.9996 37.4218 76.989 37.4366C76.9784 37.4513 76.9727 37.469 76.9727 37.4871C76.9727 37.5053 76.9784 37.523 76.989 37.5377C76.9996 37.5524 77.0146 37.5633 77.0318 37.569C77.3688 37.5801 77.6937 37.6978 77.9601 37.9052C77.7538 37.9052 77.4873 38.0345 77.4701 38.2587C77.4529 38.4828 77.7538 38.7587 78.046 38.7328C77.9945 38.8276 78.132 38.9225 78.1922 38.8276C78.2781 38.6949 78.3259 38.5411 78.3305 38.383C78.335 38.2248 78.2961 38.0685 78.2179 37.9311ZM78.0546 38.5604C77.9982 38.5755 77.9393 38.5788 77.8816 38.5699C77.8239 38.561 77.7687 38.5401 77.7194 38.5087C77.6705 38.4754 77.6367 38.4241 77.6255 38.3659C77.6142 38.3078 77.6263 38.2475 77.6592 38.1983C77.7772 38.1057 77.922 38.0542 78.0718 38.0518C78.1155 38.1325 78.1383 38.2229 78.1383 38.3147C78.1383 38.4065 78.1155 38.4969 78.0718 38.5776L78.0546 38.5604Z" fill="#AD553A"/>
<path d="M74.8469 74.1896C70.0765 74.6896 63.4064 87.3189 55.6705 107.267C55.6705 107.267 51.7253 108.991 47.333 117.284C44.7106 122.181 42.7288 127.397 41.4366 132.802C40.968 133.234 40.5858 133.752 40.3106 134.328C40.1644 134.931 48.2355 137.776 48.4418 137.431C48.6481 137.086 43.955 132.905 43.955 132.905C43.955 132.905 52.8255 120.164 60.6989 112.56C62.7961 110.534 77.3482 90.931 79.8151 85.2672C82.2819 79.6034 79.1962 73.7327 74.8469 74.1896Z" fill="#F5B182"/>
<path d="M59.6951 108.621C59.3705 109.163 58.9964 109.674 58.5777 110.147C58.2253 110.543 58.8097 111.121 59.1708 110.724C59.6358 110.187 60.0528 109.61 60.4171 109C60.7007 108.552 59.9787 108.138 59.6951 108.595V108.621Z" fill="#E28B5A"/>
<path d="M80.6155 82.3276C79.9931 80.4138 79.5528 78.4452 79.3004 76.4482C78.837 75.6976 78.1763 75.0897 77.3908 74.6912C76.6053 74.2928 75.7254 74.1192 74.848 74.1896C70.344 74.6638 64.1553 85.9396 56.9609 103.974C60.2272 104.405 63.502 104.681 66.7941 104.836C71.8224 98.0689 78.2518 88.862 79.8161 85.2672C80.2235 84.3314 80.4927 83.3412 80.6155 82.3276Z" fill="#E28B5A"/>
<path d="M83.7929 45.7674C83.7929 45.7674 87.0334 49.6812 85.2542 50.6036C84.0594 51.2329 82.5724 50.7933 80.9565 50.2071C79.0053 49.4743 77.1229 45.0347 77.1229 45.0347L76.0313 45.8967C76.0313 45.8967 80.7158 54.7674 75.8594 60.0605L76.8478 68.1036L90.463 67.5864C90.463 67.5864 90.6005 51.4312 83.7929 45.7674Z" fill="#57C4C1"/>
<path d="M87.1283 50.2759C84.1256 51.1037 81.0778 51.7571 78 52.2328C78 52.5 78.0602 52.7759 78.0774 53.0517C81.2475 52.563 84.3871 51.8923 87.4807 51.0431C87.369 50.7845 87.2487 50.5259 87.1283 50.2759Z" fill="#26A9B3"/>
<path d="M88.8475 54.9743C88.7701 54.707 88.7013 54.4398 88.624 54.1812C86.3634 54.7932 84.0254 55.1381 81.7477 55.5432L77.9227 56.1812C77.8625 56.4743 77.7852 56.7587 77.6992 57.0432L81.189 56.4656C83.7246 56.0346 86.329 55.6639 88.8475 54.9743Z" fill="#26A9B3"/>
<path d="M89.8121 59.5774C89.8121 59.3015 89.7261 59.0257 89.6745 58.7153C87.6632 59.0688 85.6175 59.2757 83.6577 59.5774C81.0963 59.9682 78.5177 60.3102 75.9219 60.6033L76.0164 61.405C78.3716 61.1377 80.7095 60.836 83.0561 60.4912C85.2737 60.1895 87.5687 59.974 89.8121 59.5774Z" fill="#26A9B3"/>
<path d="M83.4599 64.224C81.165 64.6809 78.8528 65.086 76.5234 65.3705L76.6266 66.1809C78.7497 65.9136 80.8641 65.5602 82.9614 65.1636C85.4197 64.6981 87.8608 64.1895 90.2847 63.6033C90.2847 63.3274 90.2331 63.0516 90.2073 62.7412C87.9811 63.3016 85.7291 63.7929 83.4599 64.224Z" fill="#26A9B3"/>
<path d="M78.8714 48.1636L77.1523 48.4825L77.4016 49.2756L79.4301 48.8877C79.2296 48.6521 79.0433 48.4107 78.8714 48.1636Z" fill="#26A9B3"/>
<path d="M85.4033 47.4567C85.2142 47.2154 85.0251 46.9826 84.8188 46.7671L84.5781 46.8361C84.7328 47.0602 84.8876 47.3016 85.0337 47.5602L85.4033 47.4567Z" fill="#26A9B3"/>
<path d="M166.553 83.0777C166.553 80.8794 160.244 75.9225 143.25 70.1467C126.257 64.3708 86.091 59.9743 54.2965 64.1122C22.5021 68.2501 3.4375 79.0863 3.4375 83.0777C3.4375 87.0691 22.4849 97.9225 54.2879 102.043C86.091 106.164 126.249 101.767 143.242 96.0088C160.235 90.2501 166.553 85.276 166.553 83.0777Z" fill="#FEB71F"/>
<path d="M30.9942 72.4916C36.478 70.0175 96.2333 64.6554 112.651 67.6813C129.068 70.7071 129.79 80.4658 129.79 83.0778C129.79 85.6899 129.111 95.4485 112.659 98.4744C96.2076 101.5 36.4523 96.1382 31.0028 93.664C25.5533 91.1899 25.5103 75.0002 30.9942 72.4916Z" fill="#D98F00"/>
<path d="M145.122 82.5602C145.067 78.9278 144.506 75.321 143.454 71.8446C143.439 71.8047 143.419 71.767 143.394 71.7326L143.342 71.6808H143.291L143.205 71.6377H143.127H143.084C142.989 71.6327 142.896 71.66 142.818 71.7153L142.766 71.7671C142.717 71.8222 142.687 71.8917 142.68 71.9653C141.821 74.6636 140.961 77.4481 139.99 80.1722C139.921 80.0602 139.861 79.9395 139.801 79.8188C137.901 76.2498 135.581 72.8102 132.134 70.5946C132.104 70.5536 132.065 70.5199 132.021 70.496C131.976 70.4721 131.927 70.4587 131.876 70.4567C131.783 70.4417 131.688 70.4604 131.608 70.5093C131.527 70.5583 131.467 70.6344 131.438 70.7239C131.411 70.8052 131.411 70.8927 131.438 70.974C133.074 79.835 133.326 88.8972 132.185 97.836C132.178 97.8822 132.181 97.9294 132.193 97.9746C132.205 98.0198 132.226 98.062 132.255 98.0985C132.284 98.135 132.32 98.165 132.362 98.1866C132.403 98.2082 132.448 98.2209 132.495 98.224C132.58 98.2568 132.674 98.2564 132.758 98.2228C132.842 98.1893 132.911 98.125 132.95 98.0429C135.718 92.9498 138.108 87.6597 140.102 82.2153C141.744 85.3446 143.282 88.724 143.54 92.1895C143.537 92.2418 143.546 92.2941 143.565 92.343C143.584 92.3918 143.613 92.436 143.651 92.4726C143.688 92.5093 143.733 92.5376 143.782 92.5556C143.831 92.5737 143.883 92.5811 143.935 92.5774C144.028 92.5927 144.122 92.5716 144.199 92.5185C144.276 92.4655 144.329 92.3846 144.348 92.2929C145.448 89.1808 145.208 85.8015 145.122 82.5602ZM133.174 95.836C134.017 87.8203 133.748 79.7259 132.375 71.7843C135.34 73.9308 137.351 77.0515 139.088 80.2498L139.621 81.2326C137.799 86.2393 135.646 91.1181 133.174 95.836ZM140.514 81.1808C141.443 78.5946 142.285 76.0084 143.041 73.4222C143.804 76.4223 144.225 79.4994 144.296 82.5946C144.493 85.109 144.426 87.6371 144.099 90.1377C143.32 87.0012 142.114 83.9873 140.514 81.1808Z" fill="#09243F"/>
<path d="M118.047 69.0688C117.248 68.793 116.388 68.5257 115.469 68.293C101.2 68.543 86.9405 68.8447 72.6893 69.5602L35.6517 71.405C34.0958 71.6147 32.5622 71.9668 31.0703 72.4568L72.6893 70.3878C87.8 69.6292 102.919 69.3361 118.047 69.0688Z" fill="#F79E00"/>
<path d="M125.286 73.1468C124.977 72.8709 124.65 72.6037 124.306 72.3364C107.975 72.6037 91.6436 72.8968 75.3123 73.6726C59.5942 74.4312 43.8731 75.1813 28.1493 75.9226C28.0375 76.1899 27.9344 76.4744 27.8398 76.7847L75.2951 74.5002C91.9702 73.7071 108.611 73.4226 125.286 73.1468Z" fill="#F79E00"/>
<path d="M128.432 77.2154C128.295 76.9482 128.14 76.6723 127.977 76.3965C110.408 76.6896 92.8471 76.9568 75.2953 77.793L27.075 80.0861C27.075 80.362 27.0063 80.6379 26.9805 80.9482L75.2953 78.6206C93.0018 77.7758 110.708 77.5086 128.432 77.2154Z" fill="#F79E00"/>
<path d="M26.9102 84.2157L26.9617 85.0778L75.2937 82.7588C93.4214 81.8967 111.558 81.6295 129.694 81.3278C129.694 81.0691 129.617 80.8019 129.565 80.5088C111.463 80.8105 93.3785 81.0691 75.2937 81.9312C59.1687 82.6956 43.0409 83.4571 26.9102 84.2157Z" fill="#F79E00"/>
<path d="M27.5039 88.3104C27.5727 88.5863 27.65 88.8621 27.736 89.1207L75.2944 86.8621C93.3877 86.0001 111.49 85.7328 129.6 85.4397C129.652 85.1466 129.695 84.8592 129.729 84.5776C111.576 84.8707 93.4307 85.1294 75.2944 86.0001L27.5039 88.3104Z" fill="#F79E00"/>
<path d="M29.3594 92.336C29.5913 92.6275 29.8535 92.8933 30.1416 93.1291L75.2932 90.9826C92.8794 90.1205 110.474 89.8705 128.078 89.5774C128.241 89.3015 128.387 89.0257 128.525 88.7153C110.775 89.0084 93.0256 89.2671 75.2932 90.1205L29.3594 92.336Z" fill="#F79E00"/>
<path d="M43.1367 95.8017C44.7183 95.9999 46.4116 96.1982 48.1994 96.3879L75.2921 95.0948C91.6234 94.3189 107.998 94.0258 124.363 93.7586C124.724 93.4827 125.06 93.2068 125.369 92.8965C108.677 93.1637 91.9758 93.4482 75.2921 94.2499L43.1367 95.8017Z" fill="#F79E00"/>
<path d="M73.1797 98.4914C75.956 98.6638 78.7323 98.8189 81.4571 98.9483C92.5279 98.5 103.607 98.25 114.678 98.0862C115.727 97.8524 116.762 97.5646 117.781 97.2241C103.616 97.4741 89.4164 97.7758 75.2942 98.4569L73.1797 98.4914Z" fill="#F79E00"/>
<path d="M68.9867 87.2929C72.6741 87.8964 76.6366 88.0774 80.1607 86.7498C81.6392 86.1895 81.0203 83.8015 79.5075 84.3619C76.3616 85.5343 72.8718 85.4395 69.6056 84.9136C68.0498 84.655 67.3794 87.0429 68.9523 87.2929H68.9867Z" fill="#09243F"/>
<path d="M73.6606 82.8709C73.0794 83.1715 72.4319 83.3198 71.7782 83.3019C71.6711 83.2962 71.5661 83.3334 71.4863 83.4054C71.4065 83.4773 71.3585 83.5781 71.3528 83.6855C71.3471 83.793 71.3841 83.8983 71.4559 83.9784C71.5276 84.0584 71.6281 84.1066 71.7352 84.1123C69.0449 92.0778 65.5723 99.233 58.9969 104.724C53.4786 109.319 45.3387 112.302 38.4194 109.25C33.3138 107 30.1421 101.819 27.8901 96.9485C25.5005 91.7761 24.0307 86.2157 22.475 80.7416C22.4372 80.6476 22.3664 80.5708 22.2759 80.5257C22.1854 80.4806 22.0816 80.4703 21.9841 80.4969C21.8866 80.5235 21.8022 80.585 21.7469 80.6698C21.6916 80.7547 21.6693 80.8569 21.6842 80.9571C24.6238 91.3019 27.8729 106.25 39.2704 110.483C45.992 112.974 53.6505 109.871 59.0398 105.759C66.1826 100.267 69.87 92.3881 72.655 84.0519C73.1485 83.9894 73.628 83.8436 74.0732 83.6209C74.1724 83.566 74.2457 83.4739 74.2772 83.3648C74.3086 83.2556 74.2955 83.1384 74.2408 83.039C74.1861 82.9395 74.0942 82.866 73.9854 82.8344C73.8766 82.8029 73.7598 82.816 73.6606 82.8709Z" fill="#09243F"/>
<path d="M128.335 69.1208C128.371 69.3264 128.323 69.5376 128.204 69.7087C128.085 69.8797 127.904 69.9968 127.699 70.0346L32.9436 86.8881C32.8426 86.9068 32.7389 86.9053 32.6384 86.8838C32.538 86.8623 32.4427 86.8211 32.3581 86.7627C32.2735 86.7042 32.2012 86.6297 32.1453 86.5432C32.0895 86.4567 32.0511 86.3601 32.0325 86.2588C32.0139 86.1574 32.0153 86.0534 32.0368 85.9527C32.0582 85.8519 32.0993 85.7564 32.1575 85.6715C32.2158 85.5867 32.2902 85.5142 32.3764 85.4581C32.4626 85.4021 32.5589 85.3637 32.66 85.345L127.424 68.4915C127.525 68.4728 127.629 68.4743 127.73 68.4958C127.83 68.5173 127.925 68.5585 128.01 68.6169C128.094 68.6753 128.167 68.7499 128.223 68.8364C128.279 68.9229 128.317 69.0195 128.335 69.1208Z" fill="white"/>
<path d="M32.6609 84.2156L33.3228 87.957C33.3473 88.0611 33.3504 88.1692 33.3317 88.2746C33.3131 88.38 33.2731 88.4804 33.2143 88.5698C33.1555 88.6591 33.0791 88.7354 32.9898 88.794C32.9005 88.8526 32.8002 88.8922 32.6951 88.9105C32.5899 88.9288 32.4822 88.9252 32.3784 88.9002C32.2747 88.8751 32.1771 88.829 32.0918 88.7647C32.0065 88.7004 31.9352 88.6193 31.8823 88.5264C31.8294 88.4334 31.796 88.3306 31.7842 88.2242L31.1138 84.4828C31.0929 84.2854 31.1467 84.0873 31.2645 83.9276C31.3823 83.768 31.5554 83.6585 31.7498 83.6208C31.9492 83.5798 32.1566 83.6193 32.3271 83.7306C32.4977 83.8419 32.6176 84.0162 32.6609 84.2156Z" fill="white"/>
<path d="M146.48 65.8964C147.09 69.3447 145.036 73.3964 140.085 74.0429C135.134 74.6895 119.456 74.2326 118.828 70.8188C118.201 67.405 132.796 61.5429 137.678 60.474C142.56 59.405 145.878 62.4826 146.48 65.8964Z" fill="#ED5D3A"/>
<path d="M139.718 67.095C139.728 67.146 139.727 67.1985 139.717 67.2493C139.706 67.3002 139.685 67.3483 139.655 67.391C139.626 67.4336 139.588 67.4698 139.544 67.4974C139.5 67.5251 139.451 67.5436 139.4 67.5519L120.98 70.8277C120.93 70.8376 120.878 70.8371 120.827 70.8262C120.777 70.8153 120.73 70.7943 120.688 70.7645C120.646 70.7347 120.611 70.6966 120.584 70.6526C120.558 70.6087 120.54 70.5597 120.533 70.5088C120.524 70.4584 120.526 70.4068 120.537 70.3569C120.548 70.3071 120.569 70.26 120.599 70.2183C120.629 70.1766 120.666 70.1412 120.709 70.1142C120.752 70.0871 120.801 70.0688 120.851 70.0605L139.245 66.7846C139.297 66.7707 139.351 66.7678 139.403 66.7762C139.456 66.7846 139.506 66.8041 139.551 66.8334C139.596 66.8627 139.634 66.9012 139.662 66.9463C139.691 66.9914 139.71 67.042 139.718 67.095Z" fill="#B22D1F"/>
<path d="M75.8019 46.8275C73.6273 46.2068 66.1407 56.3102 67.3011 67.1809C67.3011 67.1809 68.8998 77.3447 72.6474 85.2844C72.6474 85.2844 71.0229 87.4999 71.4784 88.4568C71.934 89.4137 73.6789 89.6809 74.1172 89.5861C74.8975 89.048 75.5806 88.3804 76.1372 87.612C76.1372 87.4309 74.8221 87.612 74.6501 87.4999C74.4782 87.3878 74.5642 85.8878 74.5986 85.7758C74.9693 85.5653 75.3541 85.3809 75.7504 85.224C75.7504 85.224 74.8306 84.3016 74.0914 84.8102C74.0914 84.8102 72.5958 70.8447 72.4669 68.3447C72.295 64.9999 80.2887 48.1206 75.8019 46.8275Z" fill="#F5B182"/>
</svg>
