<svg width="24" height="24" viewBox="0 0 24 24" fill="none" xmlns="http://www.w3.org/2000/svg">
<path d="M13.2333 13.7143C15.45 13.7143 17 12.1217 17 9.83226C17 7.54286 15.45 6 13.2333 6H8.97917C8.80659 6 8.66667 6.14392 8.66667 6.32143V11.8562H7.3125C7.13992 11.8562 7 12.0001 7 12.1776V13.3929C7 13.5704 7.13992 13.7143 7.3125 13.7143H8.66667V14.5714H7.3125C7.13992 14.5714 7 14.7153 7 14.8929V15.9643C7 16.1418 7.13992 16.2857 7.3125 16.2857H8.66667V17.6786C8.66667 17.8561 8.80659 18 8.97917 18H10.5042C10.6767 18 10.8167 17.8561 10.8167 17.6786V16.2857H15.0208C15.1934 16.2857 15.3333 16.1418 15.3333 15.9643V14.8929C15.3333 14.7153 15.1934 14.5714 15.0208 14.5714H10.8167V13.7143H13.2333ZM10.8167 7.84146H12.8667C14.0833 7.84146 14.8167 8.6212 14.8167 9.83226C14.8167 11.0599 14.0833 11.8562 12.8333 11.8562H10.8167V7.84146Z" fill="currentColor"/>
</svg>
