<svg width="24" height="24" viewBox="0 0 24 24" fill="none" xmlns="http://www.w3.org/2000/svg">
<path fill-rule="evenodd" clip-rule="evenodd" d="M21.2869 0H2.71446C1.2174 0 0 1.29826 0 2.89716V21.1061C0 22.7031 1.2174 24 2.71446 24H21.2868C22.7839 24 24 22.7031 24 21.1061V2.89716C24.0001 1.29826 22.784 0 21.2869 0ZM15.5195 4.30865C16.9672 4.30865 18.1413 5.56123 18.1413 7.10555C18.1413 8.64986 16.9671 9.90244 15.5195 9.90244C14.0713 9.90244 12.8977 8.64986 12.8977 7.10555C12.8977 5.56123 14.0713 4.30865 15.5195 4.30865ZM20.4354 21.3233H11.9996H3.93956C3.21545 21.3233 2.89297 20.7644 3.21939 20.0749L7.71893 10.5677C8.04496 9.87824 8.66631 9.81671 9.10633 10.4301L13.6308 16.7376C14.0708 17.3511 14.8399 17.4033 15.3489 16.8537L16.4558 15.658C16.9644 15.1084 17.7138 15.1764 18.129 15.809L20.9951 20.1764C21.4094 20.81 21.1595 21.3233 20.4354 21.3233Z" fill="#242424" fill-opacity="0.2"/>
</svg>
