<svg width="1920" height="700" viewBox="0 0 1920 700" fill="none" xmlns="http://www.w3.org/2000/svg">
<rect width="1920" height="700" fill="#245880"/>
<rect width="1920" height="700" fill="url(#paint0_linear_202_1104)" fill-opacity="0.2"/>
<mask id="mask0_202_1104" style="mask-type:alpha" maskUnits="userSpaceOnUse" x="0" y="0" width="1920" height="700">
<rect width="1920" height="700" fill="#EFF4F8"/>
</mask>
<g mask="url(#mask0_202_1104)">
<path d="M368.492 623.929C449.636 680.275 520.055 735.637 568.308 779.588C592.44 801.568 610.998 820.668 622.582 835.592C628.379 843.06 632.391 849.434 634.494 854.567C636.622 859.758 636.676 863.372 635.116 865.618C633.556 867.865 630.151 869.076 624.544 868.897C618.999 868.719 611.625 867.187 602.603 864.364C584.572 858.724 560.193 848.008 531.166 833.076C473.127 803.218 396.652 756.578 315.508 700.233C234.364 643.887 163.945 588.525 115.692 544.574C91.5601 522.593 73.0019 503.494 61.4177 488.57C55.621 481.102 51.6091 474.728 49.5057 469.595C47.3784 464.404 47.3241 460.79 48.8841 458.543C50.444 456.297 53.8491 455.085 59.4565 455.265C65.0008 455.442 72.3747 456.975 81.3972 459.797C99.4278 465.438 123.807 476.154 152.834 491.086C210.873 520.944 287.348 567.583 368.492 623.929Z" stroke="white" stroke-opacity="0.07" stroke-width="2"/>
<path d="M1662.49 623.929C1743.64 680.275 1814.05 735.637 1862.31 779.588C1886.44 801.568 1905 820.668 1916.58 835.592C1922.38 843.06 1926.39 849.434 1928.49 854.567C1930.62 859.758 1930.68 863.372 1929.12 865.618C1927.56 867.865 1924.15 869.076 1918.54 868.897C1913 868.719 1905.63 867.187 1896.6 864.364C1878.57 858.724 1854.19 848.008 1825.17 833.076C1767.13 803.218 1690.65 756.578 1609.51 700.233C1528.36 643.887 1457.95 588.525 1409.69 544.574C1385.56 522.593 1367 503.494 1355.42 488.57C1349.62 481.102 1345.61 474.728 1343.51 469.595C1341.38 464.404 1341.32 460.79 1342.88 458.543C1344.44 456.297 1347.85 455.085 1353.46 455.265C1359 455.442 1366.37 456.975 1375.4 459.797C1393.43 465.438 1417.81 476.154 1446.83 491.086C1504.87 520.944 1581.35 567.583 1662.49 623.929Z" stroke="white" stroke-opacity="0.07" stroke-width="2"/>
<path d="M426.748 -61.0754C403.124 34.8471 376.585 120.4 352.782 181.175C340.878 211.568 329.673 235.727 319.874 251.88C314.971 259.962 310.452 265.987 306.41 269.786C302.322 273.628 298.966 274.971 296.311 274.317C293.655 273.663 291.306 270.915 289.47 265.614C287.654 260.373 286.45 252.938 285.862 243.503C284.685 224.647 285.981 198.048 289.553 165.602C296.696 100.725 312.924 12.6321 336.548 -83.2903C360.172 -179.213 386.711 -264.766 410.514 -325.54C422.418 -355.934 433.623 -380.093 443.421 -396.245C448.324 -404.328 452.844 -410.353 456.886 -414.152C460.974 -417.994 464.33 -419.336 466.985 -418.682C469.641 -418.028 471.99 -415.281 473.826 -409.98C475.642 -404.738 476.846 -397.304 477.434 -387.869C478.611 -369.013 477.315 -342.414 473.743 -309.968C466.6 -245.091 450.372 -156.998 426.748 -61.0754Z" stroke="white" stroke-opacity="0.07" stroke-width="2"/>
<path d="M1783.1 46.1883C1759.48 142.111 1732.94 227.664 1709.13 288.438C1697.23 318.832 1686.02 342.991 1676.23 359.143C1671.32 367.226 1666.8 373.251 1662.76 377.05C1658.67 380.892 1655.32 382.234 1652.66 381.58C1650.01 380.926 1647.66 378.179 1645.82 372.878C1644.01 367.636 1642.8 360.202 1642.21 350.767C1641.04 331.911 1642.33 305.312 1645.91 272.866C1653.05 207.988 1669.28 119.896 1692.9 23.9733C1716.52 -71.9491 1743.06 -157.502 1766.87 -218.277C1778.77 -248.67 1789.98 -272.829 1799.77 -288.982C1804.68 -297.065 1809.2 -303.089 1813.24 -306.888C1817.33 -310.731 1820.68 -312.073 1823.34 -311.419C1825.99 -310.765 1828.34 -308.018 1830.18 -302.716C1831.99 -297.475 1833.2 -290.04 1833.79 -280.605C1834.96 -261.749 1833.67 -235.15 1830.1 -202.704C1822.95 -137.827 1806.72 -49.7342 1783.1 46.1883Z" stroke="white" stroke-opacity="0.07" stroke-width="2"/>
<path d="M834.362 223.295C823.112 268.974 809.491 309.456 796.574 337.975C790.112 352.242 783.847 363.469 778.17 370.851C775.329 374.545 772.672 377.228 770.252 378.855C767.829 380.484 765.762 380.98 764.017 380.55C762.273 380.121 760.673 378.722 759.283 376.154C757.895 373.589 756.788 369.979 755.988 365.388C754.388 356.213 754.053 343.361 754.956 327.725C756.761 296.47 763.498 254.292 774.748 208.613C785.998 162.934 799.619 122.452 812.536 93.9333C818.997 79.6662 825.262 68.4397 830.939 61.0574C833.78 57.3632 836.438 54.6803 838.858 53.0533C841.281 51.4244 843.348 50.9287 845.092 51.3583C846.837 51.7879 848.437 53.1867 849.826 55.7546C851.214 58.3195 852.322 61.9296 853.122 66.5207C854.722 75.695 855.056 88.5469 854.153 104.183C852.348 135.439 845.612 177.616 834.362 223.295Z" stroke="white" stroke-opacity="0.07" stroke-width="2"/>
</g>
<defs>
<linearGradient id="paint0_linear_202_1104" x1="646.5" y1="700" x2="1274" y2="-6.45778e-05" gradientUnits="userSpaceOnUse">
<stop/>
<stop offset="1" stop-opacity="0"/>
</linearGradient>
</defs>
</svg>
