<svg width="36" height="36" viewBox="0 0 36 36" fill="none" xmlns="http://www.w3.org/2000/svg">
<path fill-rule="evenodd" clip-rule="evenodd" d="M21.5781 23.1686C17.6027 26.3526 11.7835 26.102 8.09836 22.4168C4.1443 18.4627 4.1443 12.0519 8.09836 8.09787C12.0524 4.14381 18.4632 4.14381 22.4173 8.09787C26.1024 11.783 26.353 17.6022 23.1691 21.5776L30.9025 29.311C31.3419 29.7504 31.3419 30.4627 30.9025 30.902C30.4632 31.3414 29.7509 31.3414 29.3115 30.902L21.5781 23.1686ZM9.68935 20.8258C6.61397 17.7504 6.61397 12.7642 9.68935 9.68886C12.7647 6.61348 17.7509 6.61348 20.8263 9.68886C23.8994 12.762 23.9017 17.7431 20.833 20.819C20.8308 20.8212 20.8285 20.8235 20.8263 20.8258C20.824 20.828 20.8217 20.8303 20.8195 20.8325C17.7436 23.9012 12.7625 23.8989 9.68935 20.8258Z" fill="white"/>
<rect x="14" y="11" width="2" height="8" rx="1" fill="white"/>
<rect x="19" y="14" width="2" height="8" rx="1" transform="rotate(90 19 14)" fill="white"/>
</svg>
